<svg width="239" height="60" viewBox="0 0 239 60" fill="none" xmlns="http://www.w3.org/2000/svg">
<path d="M162.12 19.46L150.59 49.05L138.97 19.46H129.9L146.05 57.7H154.29L170.45 19.46H162.12ZM116.46 19.46V39.65C116.46 46.9 112.92 51.11 106.74 51.11C100.56 51.11 97.01 46.9 97.01 39.65V19.46H88.9301V39.98C88.9301 51.36 95.77 58.52 106.73 58.52C117.69 58.52 124.53 51.35 124.53 39.98V19.46H116.45H116.46ZM63.79 18.55C60.77 18.55 57.78 19.23 55.07 20.55C48.35 23.83 44.1101 30.69 44.1801 38.17C44.1801 47.98 53.33 59.35 61.16 59.35C63.14 59.33 64.97 58.31 66.02 56.63C69.24 51.77 72.53 48.97 77.39 46.82C81.93 44.84 83.16 42.86 83.16 37.84C83.16 26.96 74.67 18.55 63.79 18.55ZM72.36 44.18C69.06 46.24 67.34 47.97 66.01 50.69C65.46 51.78 64.3401 52.45 63.1201 52.42C57.8401 52.42 51.83 45.49 51.83 39.4C51.83 32.56 56.86 27.45 63.7 27.45C70.19 27.47 75.43 32.75 75.4 39.24C75.4 39.29 75.4 39.35 75.4 39.4C75.4 41.54 74.66 42.78 72.35 44.18H72.36ZM20.11 18.55C15.58 18.5 11.2 20.22 7.91003 23.33L7.83002 0.0100002H0V57.7H8.08002V53.83C11.38 56.8 15.67 58.44 20.11 58.44C30.99 58.44 39.23 49.79 39.23 38.5C39.23 27.21 30.99 18.56 20.11 18.56V18.55ZM19.45 51.02C12.85 51.02 7.91003 45.66 7.91003 38.49C7.91003 31.32 12.85 25.96 19.45 25.96C26.05 25.96 30.9901 31.32 30.9901 38.49C30.9901 45.66 26.05 51.02 19.45 51.02ZM238.58 19.45H226.88L226.79 0H218.96V19.45H213.58V26.45H218.96V57.69H226.96L226.88 26.45H238.58V19.45Z" fill="#F9EAD4"/>
<path opacity="0.55" d="M194.94 25.99C194.12 25.74 193.28 25.58 192.43 25.51C193.28 25.56 194.13 25.72 194.94 25.99Z" fill="#F9EAD4"/>
<path d="M210.28 41.08H180.73C181.33 44.79 182.8 47.88 186.15 49.76C187.92 50.71 189.9 51.2 191.91 51.17C195.39 51.22 198.68 50.52 201.49 48.31C202.34 47.58 203.15 46.8 203.91 45.98L209.31 51.25C208.23 52.55 206.98 53.7 205.6 54.66C201.14 57.78 196.16 58.92 190.81 58.62C186.47 58.47 182.32 56.8 179.09 53.9C175.43 50.61 173.5 46.41 172.96 41.54C172.4 37.35 173.04 33.08 174.82 29.24C177.65 23.34 182.4 20.03 188.75 19.05C192.68 18.36 196.72 18.92 200.31 20.65C205.34 23.13 208.26 27.34 209.66 32.7C210.36 35.43 210.57 38.27 210.29 41.07L210.28 41.08ZM180.89 34.6H202.04C201.36 29.74 197.33 26.03 192.43 25.76C186.28 25.41 181.94 28.73 180.89 34.6Z" fill="#F9EAD4"/>
</svg>
