<svg width="100" height="69" viewBox="0 0 100 69" fill="none" xmlns="http://www.w3.org/2000/svg">
<path d="M0 38.145C0.092813 42.9989 1.27077 47.7612 3.43824 52.0454C5.60572 56.3295 8.70161 60.0147 12.4745 62.8017C17.8386 66.7577 24.3125 68.6914 30.849 68.29C37.3855 67.8885 43.6024 65.1753 48.4938 60.5894C54.0755 55.3764 57.5516 48.1102 58.2089 40.282L0 38.1348V38.145Z" fill="#79FE9D"/>
<path d="M99.5319 27.1803H82.4551V10.0576C83.5735 10.0567 84.6894 10.1714 85.7866 10.4001C86.8531 10.625 87.8968 10.9564 88.9036 11.3898C89.8922 11.8171 90.8401 12.3423 91.7346 12.9582C92.6249 13.5694 93.4595 14.2664 94.2275 15.0403C94.9945 15.8132 95.6919 16.6593 96.3109 17.5676C96.9369 18.4828 97.481 19.4573 97.9361 20.4784C98.3966 21.5147 98.7623 22.5949 99.0282 23.7044C99.3011 24.8434 99.4698 26.0073 99.5319 27.1803Z" fill="#F9A86F"/>
<path d="M71.1716 35.0463C79.7825 35.0463 86.7631 27.6915 86.7631 18.6189C86.7631 9.54623 79.7825 2.19141 71.1716 2.19141C62.5606 2.19141 55.5801 9.54623 55.5801 18.6189C55.5801 27.6915 62.5606 35.0463 71.1716 35.0463Z" fill="#79FE9D"/>
<path d="M74.8343 20.8722C76.8591 20.8722 78.5006 19.1428 78.5006 17.0094C78.5006 14.8759 76.8591 13.1465 74.8343 13.1465C72.8094 13.1465 71.168 14.8759 71.168 17.0094C71.168 19.1428 72.8094 20.8722 74.8343 20.8722Z" fill="#030504"/>
<path d="M70.3424 29.6598C76.9734 29.6598 82.3488 23.9961 82.3488 17.0096C82.3488 10.0231 76.9734 4.35938 70.3424 4.35938C63.7114 4.35938 58.3359 10.0231 58.3359 17.0096C58.3359 23.9961 63.7114 29.6598 70.3424 29.6598Z" stroke="#030504"/>
<path d="M67.694 25.8004C74.3249 25.8004 79.7004 20.1367 79.7004 13.1502C79.7004 6.16369 74.3249 0.5 67.694 0.5C61.063 0.5 55.6875 6.16369 55.6875 13.1502C55.6875 20.1367 61.063 25.8004 67.694 25.8004Z" stroke="#030504"/>
</svg>
