<svg width="119" height="63" viewBox="0 0 119 63" fill="none" xmlns="http://www.w3.org/2000/svg">
<path d="M18.4614 45.8008H35.944V62.3321C34.7987 62.3328 33.6562 62.222 32.5327 62.0014C31.4417 61.7859 30.3741 61.4671 29.3444 61.0492C28.332 60.6346 27.3605 60.1277 26.4423 59.535C25.5324 58.9438 24.679 58.2709 23.8929 57.5248C23.1066 56.7773 22.3913 55.9594 21.7563 55.0814C21.1145 54.1983 20.5574 53.2574 20.0922 52.2711C19.6212 51.2707 19.2479 50.2278 18.9773 49.1566C18.6957 48.0574 18.5229 46.9334 18.4614 45.8008Z" fill="#F9A86F"/>
<path d="M109.282 62.0294C109.216 60.8167 108.863 59.6366 108.251 58.5852C107.639 57.5339 106.786 56.6409 105.761 55.9789C104.306 55.0405 102.575 54.6171 100.847 54.7773C99.1199 54.9375 97.4975 55.6719 96.2424 56.8617C94.8096 58.2149 93.9522 60.0615 93.8462 62.0228L109.282 62.0294Z" stroke="#030504" stroke-miterlimit="10"/>
<path d="M15.9636 62.336C15.8976 61.1233 15.5442 59.9433 14.9324 58.8919C14.3205 57.8405 13.4674 56.9475 12.4425 56.2856C10.9874 55.3471 9.25619 54.9237 7.52888 55.0839C5.80157 55.2441 4.17917 55.9785 2.92409 57.1683C1.49125 58.5216 0.633873 60.3682 0.527832 62.3294L15.9636 62.336Z" stroke="#030504" stroke-miterlimit="10"/>
<path d="M117.513 62.0294C117.447 60.8167 117.094 59.6366 116.482 58.5852C115.87 57.5339 115.017 56.6409 113.992 55.9789C112.537 55.0405 110.806 54.6171 109.078 54.7773C107.351 54.9375 105.729 55.6719 104.473 56.8617C103.042 58.2153 102.185 60.0619 102.081 62.0228L117.513 62.0294Z" stroke="#030504" stroke-miterlimit="10"/>
<path d="M24.196 62.3353C24.129 61.1237 23.7751 59.945 23.1633 58.8948C22.5515 57.8447 21.6989 56.9527 20.6749 56.2914C19.2198 55.353 17.4886 54.9296 15.7613 55.0898C14.034 55.25 12.4116 55.9844 11.1565 57.1742C9.72363 58.5274 8.86629 60.374 8.76025 62.3353H24.196Z" stroke="#030504" stroke-miterlimit="10"/>
<path d="M99.8462 62.7343C99.5773 58.0744 98.1561 53.5407 95.6983 49.5015C93.2404 45.4623 89.8152 42.0317 85.701 39.4884C79.8544 35.8801 72.8985 34.2538 65.9593 34.8728C59.02 35.4919 52.5034 38.32 47.4642 42.8995C41.7101 48.1026 38.2686 55.2034 37.8462 62.7441L99.8462 62.7343Z" fill="#030504"/>
<path d="M79.9698 34.2066C81.0175 34.2066 81.8668 33.3629 81.8668 32.3221C81.8668 31.2812 81.0175 30.4375 79.9698 30.4375C78.9221 30.4375 78.0728 31.2812 78.0728 32.3221C78.0728 33.3629 78.9221 34.2066 79.9698 34.2066Z" fill="#C3D5E1"/>
<path d="M82.9659 28.4723C84.0136 28.4723 84.8629 27.6285 84.8629 26.5877C84.8629 25.5469 84.0136 24.7031 82.9659 24.7031C81.9182 24.7031 81.0688 25.5469 81.0688 26.5877C81.0688 27.6285 81.9182 28.4723 82.9659 28.4723Z" fill="#C3D5E1"/>
<path d="M77.3916 28.4723C78.4393 28.4723 79.2887 27.6285 79.2887 26.5877C79.2887 25.5469 78.4393 24.7031 77.3916 24.7031C76.344 24.7031 75.4946 25.5469 75.4946 26.5877C75.4946 27.6285 76.344 28.4723 77.3916 28.4723Z" fill="#C3D5E1"/>
<path d="M81.1827 22.7437C82.2304 22.7437 83.0797 21.9 83.0797 20.8592C83.0797 19.8184 82.2304 18.9746 81.1827 18.9746C80.135 18.9746 79.2856 19.8184 79.2856 20.8592C79.2856 21.9 80.135 22.7437 81.1827 22.7437Z" fill="#C3D5E1"/>
<path d="M85.501 20.859C86.5487 20.859 87.398 20.0152 87.398 18.9744C87.398 17.9336 86.5487 17.0898 85.501 17.0898C84.4533 17.0898 83.604 17.9336 83.604 18.9744C83.604 20.0152 84.4533 20.859 85.501 20.859Z" fill="#C3D5E1"/>
<path d="M81.8643 16.1207C82.912 16.1207 83.7613 15.2769 83.7613 14.2361C83.7613 13.1953 82.912 12.3516 81.8643 12.3516C80.8166 12.3516 79.9673 13.1953 79.9673 14.2361C79.9673 15.2769 80.8166 16.1207 81.8643 16.1207Z" fill="#C3D5E1"/>
<path d="M76.1807 18.9781C77.2284 18.9781 78.0777 18.1344 78.0777 17.0935C78.0777 16.0527 77.2284 15.209 76.1807 15.209C75.133 15.209 74.2837 16.0527 74.2837 17.0935C74.2837 18.1344 75.133 18.9781 76.1807 18.9781Z" fill="#C3D5E1"/>
<path d="M73.6006 12.3551C74.6483 12.3551 75.4977 11.5113 75.4977 10.4705C75.4977 9.42969 74.6483 8.58594 73.6006 8.58594C72.5529 8.58594 71.7036 9.42969 71.7036 10.4705C71.7036 11.5113 72.5529 12.3551 73.6006 12.3551Z" fill="#C3D5E1"/>
<path d="M79.8545 10.3883C80.9022 10.3883 81.7516 9.54452 81.7516 8.5037C81.7516 7.46289 80.9022 6.61914 79.8545 6.61914C78.8068 6.61914 77.9575 7.46289 77.9575 8.5037C77.9575 9.54452 78.8068 10.3883 79.8545 10.3883Z" fill="#C3D5E1"/>
<path d="M85.501 8.50643C86.5487 8.50643 87.398 7.66268 87.398 6.62187C87.398 5.58105 86.5487 4.7373 85.501 4.7373C84.4533 4.7373 83.604 5.58105 83.604 6.62187C83.604 7.66268 84.4533 8.50643 85.501 8.50643Z" fill="#C3D5E1"/>
<path d="M88.0557 14.2359C89.1034 14.2359 89.9527 13.3922 89.9527 12.3514C89.9527 11.3105 89.1034 10.4668 88.0557 10.4668C87.008 10.4668 86.1587 11.3105 86.1587 12.3514C86.1587 13.3922 87.008 14.2359 88.0557 14.2359Z" fill="#C3D5E1"/>
<path d="M81.0694 3.76913C82.1171 3.76913 82.9664 2.92538 82.9664 1.88456C82.9664 0.843747 82.1171 0 81.0694 0C80.0217 0 79.1724 0.843747 79.1724 1.88456C79.1724 2.92538 80.0217 3.76913 81.0694 3.76913Z" fill="#C3D5E1"/>
<path d="M75.4952 4.7408C76.5429 4.7408 77.3922 3.89706 77.3922 2.85624C77.3922 1.81543 76.5429 0.97168 75.4952 0.97168C74.4475 0.97168 73.5981 1.81543 73.5981 2.85624C73.5981 3.89706 74.4475 4.7408 75.4952 4.7408Z" fill="#C3D5E1"/>
<path d="M85.5026 59.3241C87.576 59.3241 89.2567 57.6544 89.2567 55.5947C89.2567 53.535 87.576 51.8652 85.5026 51.8652C83.4293 51.8652 81.7485 53.535 81.7485 55.5947C81.7485 57.6544 83.4293 59.3241 85.5026 59.3241Z" fill="#F9EAD4"/>
</svg>
