<svg width="107" height="104" viewBox="0 0 107 104" fill="none" xmlns="http://www.w3.org/2000/svg">
<path d="M50.337 103.215C78.1373 103.215 100.674 98.5958 100.674 92.8973C100.674 87.1987 78.1373 82.5791 50.337 82.5791C22.5366 82.5791 0 87.1987 0 92.8973C0 98.5958 22.5366 103.215 50.337 103.215Z" fill="#F9EAD4"/>
<path d="M80.8704 29.8047V96.4483H20.1633C20.0541 95.0577 20.0004 93.6537 20.0004 92.2801C19.9583 80.3653 23.2165 68.6824 29.3971 58.586C35.3391 48.911 43.8182 41.1405 53.8668 36.1612C62.2866 31.9908 71.5168 29.8181 80.8704 29.8047Z" fill="#79FE9D"/>
<path d="M55.0647 12.7568V56.3978H15.3107C15.2404 55.4864 15.2034 54.5675 15.2034 53.6676C15.1762 45.8654 17.3107 38.2152 21.3592 31.6046C25.2501 25.2689 30.8029 20.1808 37.3837 16.9212C42.8965 14.1899 48.9401 12.7664 55.0647 12.7568Z" fill="#79FE9D"/>
<path d="M84.7238 4.1625C91.3082 7.42106 96.8648 12.5091 100.759 18.8459C104.806 25.458 106.939 33.1085 106.912 40.9108C106.912 41.8088 106.876 42.7296 106.804 43.639H67.041V0C73.1661 0.00838523 79.2104 1.4312 84.7238 4.1625Z" fill="#79FE9D"/>
<path d="M41.3612 70.8437C43.7439 70.8437 45.6754 68.0326 45.6754 64.5649C45.6754 61.0972 43.7439 58.2861 41.3612 58.2861C38.9784 58.2861 37.0469 61.0972 37.0469 64.5649C37.0469 68.0326 38.9784 70.8437 41.3612 70.8437Z" fill="#030504"/>
<path d="M63.4276 70.488C65.9074 70.488 67.9177 66.3723 67.9177 61.2953C67.9177 56.2183 65.9074 52.1025 63.4276 52.1025C60.9478 52.1025 58.9375 56.2183 58.9375 61.2953C58.9375 66.3723 60.9478 70.488 63.4276 70.488Z" fill="#030504"/>
<path d="M53.0406 78.017C54.6056 78.017 55.8743 77.2977 55.8743 76.4104C55.8743 75.523 54.6056 74.8037 53.0406 74.8037C51.4757 74.8037 50.207 75.523 50.207 76.4104C50.207 77.2977 51.4757 78.017 53.0406 78.017Z" fill="#030504"/>
</svg>
