<svg width="115" height="88" viewBox="0 0 115 88" fill="none" xmlns="http://www.w3.org/2000/svg">
<path d="M0 39.5889C0.105079 44.8418 1.45692 49.9958 3.94563 54.6321C6.43434 59.2684 9.98967 63.2561 14.3226 66.2709C20.4807 70.5517 27.9131 72.644 35.4174 72.2096C42.9217 71.7751 50.0589 68.8393 55.6744 63.8769C62.0828 58.2351 66.075 50.3726 66.8324 41.9014L0 39.5778V39.5889Z" fill="#79FE9D"/>
<path d="M7.07873 11.4655C4.52303 16.0698 3.09743 21.208 2.91781 26.4624C2.73819 31.7169 3.80963 36.9392 6.04502 41.7051C9.22492 48.4725 14.6107 53.9768 21.3312 57.3278C28.0518 60.6789 35.7142 61.6807 43.0792 60.1712C51.4718 58.4674 58.8892 53.6381 63.8092 46.6746L7.08618 11.4692L7.07873 11.4655Z" stroke="#030504" stroke-width="2" stroke-miterlimit="10"/>
<path d="M18.3335 1.44499C14.4073 4.97268 11.3746 9.37047 9.4818 14.281C7.58904 19.1915 6.88963 24.4762 7.44041 29.7056C8.22905 37.1323 11.5176 44.0775 16.7742 49.4178C22.0307 54.7582 28.9478 58.1814 36.4065 59.1336C44.9013 60.2339 53.4982 58.0661 60.4354 53.0746L18.3335 1.44499Z" stroke="#030504" stroke-width="2" stroke-miterlimit="10"/>
<path d="M20.6365 78.7775C24.5792 82.287 29.3003 84.8229 34.4159 86.179C39.5315 87.5351 44.8971 87.6732 50.0765 86.582C57.4313 85.0268 64.0427 81.0532 68.8414 75.304C73.6401 69.5548 76.3455 62.3662 76.5199 54.9008C76.7343 46.3954 73.6633 38.1309 67.9368 31.8024L20.6328 78.7775H20.6365Z" fill="#030504"/>
<path d="M114.275 27.7075H94.6719V9.1784C95.9573 9.1774 97.2397 9.30152 98.5007 9.54898C99.7244 9.79061 100.922 10.1493 102.076 10.62C103.211 11.0824 104.299 11.6507 105.326 12.3172C106.349 12.9777 107.307 13.7321 108.188 14.5704C109.069 15.4077 109.871 16.3231 110.584 17.3053C111.302 18.2966 111.926 19.351 112.45 20.4553C112.976 21.5774 113.395 22.7462 113.7 23.9461C114.012 25.1788 114.205 26.4384 114.275 27.7075Z" fill="#F9A86F"/>
<path d="M81.7138 36.235C91.6005 36.235 99.6152 28.2761 99.6152 18.4582C99.6152 8.64029 91.6005 0.68132 81.7138 0.68132C71.8272 0.68132 63.8125 8.64029 63.8125 18.4582C63.8125 28.2761 71.8272 36.235 81.7138 36.235Z" fill="#79FE9D"/>
<path d="M85.9204 20.8962C88.2452 20.8962 90.1298 19.0246 90.1298 16.716C90.1298 14.4073 88.2452 12.5358 85.9204 12.5358C83.5956 12.5358 81.7109 14.4073 81.7109 16.716C81.7109 19.0246 83.5956 20.8962 85.9204 20.8962Z" fill="#030504"/>
</svg>
