<svg width="98" height="32" viewBox="0 0 98 32" fill="none" xmlns="http://www.w3.org/2000/svg">
<path d="M56.1668 32.0002C55.9449 27.8897 54.7688 23.8903 52.7342 20.327C50.6995 16.7638 47.8637 13.7374 44.4573 11.4939C39.6165 8.30995 33.8572 6.87406 28.111 7.41855C22.3649 7.96304 16.9682 10.4561 12.7939 14.4943C8.03114 19.0855 5.18185 25.3487 4.83008 32.0002H56.1668Z" fill="#030504"/>
<path d="M98.0003 32.0003C97.8532 29.2714 97.0727 26.6162 95.7223 24.2504C94.3718 21.8847 92.4895 19.8753 90.2283 18.3855C87.0145 16.2725 83.1913 15.3198 79.3769 15.6815C75.5625 16.0433 71.9801 17.6983 69.2091 20.379C66.0458 23.426 64.1533 27.5841 63.9199 32.0003H98.0003Z" fill="#030504"/>
<path d="M35.358 9.07364H25.8535V1.89691e-07C26.4755 -0.000124377 27.096 0.0611015 27.7063 0.182809C28.3 0.301177 28.8812 0.477054 29.4417 0.708017C29.991 0.934527 30.5182 1.21235 31.0167 1.5379C31.511 1.86173 31.9749 2.23084 32.4027 2.64056C32.8306 3.04978 33.2198 3.49859 33.5653 3.98115C33.9123 4.46546 34.2142 4.98126 34.4674 5.52195C34.7207 6.07142 34.923 6.64357 35.0716 7.23104C35.2255 7.83443 35.3215 8.45152 35.358 9.07364Z" fill="#C3D5E1"/>
<path d="M43.7167 12.8224L37.9121 10.0803L40.4608 4.53809C40.841 4.71857 41.2034 4.93523 41.5432 5.18516C41.8717 5.42911 42.1766 5.70407 42.4539 6.00635C42.7267 6.3024 42.9712 6.624 43.1841 6.96681C43.3942 7.30757 43.5735 7.66692 43.7196 8.04045C43.8657 8.41627 43.9779 8.80476 44.0547 9.20113C44.1294 9.59716 44.1688 9.99924 44.1721 10.4024C44.1722 10.8113 44.1348 11.2193 44.0604 11.6211C43.9844 12.0319 43.8694 12.4342 43.7167 12.8224Z" fill="#C3D5E1"/>
<path d="M50.5814 18.3649L45.6016 14.2793L49.3902 9.52344C49.7173 9.79063 50.0176 10.09 50.2865 10.4172C50.5475 10.7334 50.7777 11.0745 50.9738 11.4357C51.1687 11.7904 51.3288 12.1636 51.452 12.5499C51.5758 12.9277 51.6649 13.3162 51.7183 13.7106C51.7709 14.1087 51.7862 14.5109 51.7641 14.9119C51.7443 15.315 51.6868 15.7153 51.5923 16.1074C51.4962 16.5062 51.3629 16.8948 51.1943 17.2681C51.0242 17.6523 50.8191 18.0195 50.5814 18.3649Z" fill="#C3D5E1"/>
<path d="M54.6468 26.0952L51.7402 20.3121L57.1153 17.5381C57.3053 17.9169 57.4587 18.3133 57.5735 18.722C57.6855 19.1191 57.7593 19.5263 57.794 19.9378C57.8327 20.3412 57.8327 20.7474 57.794 21.1507C57.7536 21.5507 57.6769 21.946 57.5649 22.3317C57.4516 22.7182 57.303 23.0932 57.121 23.4518C56.9402 23.8108 56.7264 24.1518 56.4825 24.4703C56.236 24.7948 55.9589 25.0942 55.6548 25.364C55.3436 25.641 55.0059 25.8859 54.6468 26.0952Z" fill="#C3D5E1"/>
<path d="M23.3041 9.27669L14.9995 13.9455L10.6582 6.00937C11.2058 5.70354 11.7812 5.45185 12.3764 5.25782C12.9518 5.07082 13.5434 4.93966 14.1433 4.8661C14.7322 4.79311 15.3267 4.7766 15.9187 4.81678C16.5066 4.85958 17.0894 4.95671 17.6598 5.10695C18.2288 5.25445 18.783 5.45553 19.315 5.70758C19.85 5.9615 20.3609 6.26454 20.8414 6.61291C21.3273 6.96828 21.779 7.36954 22.1901 7.81132C22.6075 8.26198 22.9806 8.75276 23.3041 9.27669Z" fill="#C3D5E1"/>
<path d="M74.4965 18.1499L69.7343 22.3458L65.834 17.7988C66.1497 17.5209 66.4922 17.276 66.8563 17.0676C67.2054 16.8675 67.5715 16.6995 67.9502 16.5656C68.3228 16.4346 68.7061 16.3375 69.0957 16.2754C69.4826 16.2204 69.8736 16.2 70.2641 16.2145C70.6498 16.2337 71.0331 16.2871 71.4095 16.3741C71.7913 16.4642 72.1642 16.5895 72.5235 16.7484C72.8864 16.9081 73.2335 17.1024 73.5601 17.3288C73.8975 17.5715 74.2111 17.8465 74.4965 18.1499Z" fill="#C3D5E1"/>
<path d="M12.5714 15.7478L7.67746 24.0032L0 19.3285C0.320213 18.7876 0.691355 18.2794 1.10823 17.8109C1.51405 17.3566 1.96186 16.9426 2.44556 16.5748C2.92049 16.2134 3.42764 15.8977 3.96042 15.6317C4.48913 15.3697 5.04027 15.157 5.60702 14.9963C6.16905 14.8375 6.74414 14.7306 7.32522 14.6771C7.91388 14.622 8.5063 14.622 9.09495 14.6771C9.69079 14.7384 10.2795 14.8569 10.8532 15.0311C11.4478 15.2122 12.0233 15.4523 12.5714 15.7478Z" fill="#C3D5E1"/>
<path d="M67.3395 23.8632L65.5984 30.0119L59.8711 28.3492C59.9858 27.9484 60.1383 27.5598 60.3264 27.1886C60.5092 26.8269 60.7259 26.4838 60.9736 26.1643C61.2173 25.8499 61.4886 25.5586 61.784 25.2937C62.0782 25.0334 62.3955 24.8013 62.7319 24.6002C63.068 24.3985 63.4217 24.2285 63.7886 24.0924C64.1609 23.9607 64.5443 23.8636 64.934 23.8023C65.3268 23.7375 65.7247 23.7103 66.1225 23.721C66.5316 23.7303 66.939 23.7779 67.3395 23.8632Z" fill="#C3D5E1"/>
<path d="M86.8318 28.889C88.6158 28.889 90.062 27.4236 90.062 25.6159C90.062 23.8082 88.6158 22.3428 86.8318 22.3428C85.0478 22.3428 83.6016 23.8082 83.6016 25.6159C83.6016 27.4236 85.0478 28.889 86.8318 28.889Z" fill="#F9EAD4"/>
<path d="M82.3205 23.666V31.9997H74.4941C74.4935 31.4541 74.5462 30.9098 74.6516 30.3748C74.7518 29.8538 74.9034 29.3445 75.1041 28.8543C75.2991 28.372 75.5388 27.9095 75.82 27.473C76.0987 27.0386 76.417 26.6315 76.7708 26.2572C77.1206 25.8825 77.504 25.5415 77.9162 25.2387C78.3344 24.9343 78.7792 24.6691 79.245 24.4466C79.7193 24.2237 80.213 24.0459 80.7197 23.9156C81.244 23.7797 81.7802 23.6961 82.3205 23.666Z" fill="#F9A86F"/>
</svg>
