<svg width="96" height="65" viewBox="0 0 96 65" fill="none" xmlns="http://www.w3.org/2000/svg">
<path d="M95.8433 21.6332L84.4387 32.4953L80.6055 17.3271L95.8433 21.6332Z" fill="#F9A86F"/>
<path d="M60.7679 62.8497C68.7515 60.5739 75.5478 55.3676 79.7597 48.3011C83.9715 41.2346 85.2787 32.8449 83.4126 24.8569C81.5465 16.869 76.6489 9.88979 69.7266 5.35411C62.8043 0.818439 54.3835 -0.928956 46.1953 0.471123L60.7679 62.8497Z" fill="#0617BF"/>
<path d="M0 29.0702L48.0641 18.127L58.6261 63.2438C55.4777 63.9689 52.2648 64.3876 49.0335 64.4937C45.8947 64.5827 42.7545 64.3734 39.6564 63.8688C32.0061 62.6215 24.7582 59.6242 18.4934 55.117C12.2286 50.6098 7.12103 44.718 3.57978 37.9136C2.10067 35.0863 0.901844 32.1248 0 29.0702Z" fill="#1D43C6"/>
<path d="M6.53913 57.0254L54.5969 46.0821L44.0413 0.958984C40.8827 1.68355 37.8035 2.71134 34.8479 4.02763C29.1564 6.55506 24.0094 10.1363 19.6861 14.5772C11.0153 23.4575 6.05815 35.2365 5.80416 47.5633C5.74261 50.7333 5.98872 53.9018 6.53913 57.0254Z" fill="#79FE9D"/>
<path d="M66.2043 18.4522C67.4605 18.4522 68.4789 17.4476 68.4789 16.2085C68.4789 14.9694 67.4605 13.9648 66.2043 13.9648C64.9481 13.9648 63.9297 14.9694 63.9297 16.2085C63.9297 17.4476 64.9481 18.4522 66.2043 18.4522Z" fill="white"/>
</svg>
