<svg width="83" height="98" viewBox="0 0 83 98" fill="none" xmlns="http://www.w3.org/2000/svg">
<path d="M64.5098 60.8238C58.7759 61.3794 56.0571 64.0438 53.3517 71.7231C49.9868 81.1472 45.5854 87.4845 38.1243 93.5913C36.8471 94.6399 35.7842 96.0419 35.0196 97.6865L64.5098 97.6865L64.5098 60.8238Z" fill="#030504"/>
<path d="M35.0198 7.37305V40.5495H0.0943127C0.031577 39.8549 0.000212923 39.1602 0.000212923 38.4656C-0.0229942 32.5343 1.8513 26.7186 5.40596 21.6921C8.82752 16.8799 13.7056 13.0153 19.4849 10.5383C24.329 8.46279 29.6388 7.38089 35.0198 7.37305Z" fill="#030504"/>
<path d="M66.3523 0H33.1758V36.8627H66.3523V0Z" fill="#030504"/>
<path d="M51.6068 88.4707C68.9117 88.4707 82.9401 74.0297 82.9401 56.2158C82.9401 38.4019 68.9117 23.9609 51.6068 23.9609C34.3018 23.9609 20.2734 38.4019 20.2734 56.2158C20.2734 74.0297 34.3018 88.4707 51.6068 88.4707Z" fill="#030504"/>
<path d="M41.4705 11.059C45.0333 11.059 47.9215 13.9472 47.9215 17.51C47.9215 21.0727 45.0333 23.9609 41.4705 23.9609C37.9077 23.9609 35.0195 21.0727 35.0195 17.51C35.0195 13.9472 37.9077 11.059 41.4705 11.059Z" fill="white" stroke="#030504" stroke-width="2" stroke-miterlimit="10"/>
<path d="M40.5488 40.5494C46.9994 41.105 50.0581 43.7694 53.1017 51.4487C56.8872 60.8728 61.8387 67.2101 70.2325 73.3169C71.6693 74.3655 72.865 75.7675 73.7253 77.4121L40.5488 77.4121L40.5488 40.5494Z" fill="white"/>
</svg>
