<svg width="45" height="86" viewBox="0 0 45 86" fill="none" xmlns="http://www.w3.org/2000/svg">
<path d="M25.8945 31.0592C25.8927 32.0254 26.1915 32.9704 26.7532 33.7746C27.3148 34.5787 28.114 35.206 29.0496 35.5769C29.9852 35.9478 31.0152 36.0457 32.0092 35.8583C33.0032 35.6708 33.9165 35.2065 34.6336 34.5239C35.3508 33.8413 35.8393 32.9711 36.0377 32.0236C36.236 31.0761 36.1352 30.0939 35.7479 29.2011C35.3605 28.3083 34.7041 27.5451 33.8617 27.0082C33.0194 26.4712 32.0288 26.1846 31.0156 26.1846C30.3435 26.1834 29.6778 26.3086 29.0566 26.5531C28.4353 26.7976 27.8706 27.1565 27.395 27.6092C26.9193 28.062 26.542 28.5998 26.2845 29.1917C26.0271 29.7837 25.8945 30.4184 25.8945 31.0592Z" fill="#0617BF"/>
<path d="M44.2355 32.1201C43.8736 36.4857 42.1545 38.565 37.1962 40.627C31.116 43.2153 27.0264 46.5456 23.0815 52.2312C22.4034 53.2049 21.4993 54.0167 20.4395 54.6038V32.1201H44.2355Z" fill="#C3D5E1"/>
<path d="M32.3376 80.7373H12.8574V85.3617H32.3376V80.7373Z" fill="#1D43C6"/>
<path d="M25.0184 69.1758H20.1777V85.3527H25.0184V69.1758Z" fill="#1D43C6"/>
<path d="M22.9274 64.1811C18.0868 64.1811 12.649 61.1959 8.0255 55.9934C3.50154 50.9549 0.569971 44.5445 0.0632869 38.8416L0 38.0996H27.0533V63.1199L26.6642 63.3183C25.5218 63.8866 24.2521 64.1826 22.9636 64.1811H22.9274ZM1.57433 39.4715C2.49519 45.2563 5.1109 50.6755 9.12027 55.1049C13.4723 59.9968 18.512 62.8093 22.9274 62.8093C23.8628 62.8179 24.789 62.6325 25.6418 62.2658V39.4715H1.57433Z" fill="#11133C"/>
<path d="M11.3 44.7937C12.5293 44.7937 13.5258 43.8434 13.5258 42.6712C13.5258 41.4991 12.5293 40.5488 11.3 40.5488C10.0707 40.5488 9.07422 41.4991 9.07422 42.6712C9.07422 43.8434 10.0707 44.7937 11.3 44.7937Z" stroke="#0617BF" stroke-width="2" stroke-miterlimit="10"/>
<path d="M7.88086 22.9146C7.88086 23.5596 8.08148 24.1902 8.45729 24.7265C8.8331 25.2628 9.36724 25.6808 9.99219 25.9277C10.6171 26.1745 11.3048 26.2391 11.9682 26.1132C12.6317 25.9874 13.2411 25.6768 13.7194 25.2207C14.1977 24.7646 14.5235 24.1835 14.6554 23.5508C14.7874 22.9182 14.7196 22.2625 14.4607 21.6666C14.2018 21.0707 13.7635 20.5613 13.201 20.203C12.6386 19.8446 11.9774 19.6533 11.301 19.6533C10.3947 19.6556 9.52616 20 8.88528 20.6111C8.2444 21.2222 7.88325 22.0504 7.88086 22.9146Z" fill="#0617BF"/>
<path d="M20.5117 7.17746C20.5099 8.40168 20.8891 9.59887 21.6013 10.6175C22.3134 11.6361 23.3266 12.4303 24.5124 12.8996C25.6982 13.3689 27.0033 13.4921 28.2625 13.2537C29.5218 13.0153 30.6786 12.4259 31.5864 11.5603C32.4942 10.6946 33.1122 9.59162 33.3623 8.39084C33.6123 7.19006 33.4831 5.94545 32.9909 4.81475C32.4988 3.68404 31.6659 2.71805 30.5976 2.03897C29.5294 1.3599 28.2739 0.9983 26.9901 1.00001C25.2726 1.00229 23.6263 1.65391 22.4119 2.81191C21.1975 3.9699 20.5141 5.53981 20.5117 7.17746V7.17746Z" stroke="#0617BF" stroke-width="2" stroke-miterlimit="10"/>
</svg>
