<svg width="99" height="99" viewBox="0 0 99 99" fill="none" xmlns="http://www.w3.org/2000/svg">
<path d="M97.6562 46.6932C97.1534 41.2065 95.5262 35.8739 92.871 31.0113C88.7703 24.51 83.2502 18.9694 76.7035 14.7835C68.7577 10.125 59.4991 8.04761 50.2636 8.85098L49.7681 53.8158L97.842 53.5416C97.9063 51.2572 97.8443 48.971 97.6562 46.6932V46.6932Z" stroke="#030504" stroke-miterlimit="10"/>
<path d="M33.4868 22.1504H65.6437C65.6437 26.3068 63.9499 30.293 60.9348 33.232C57.9198 36.171 53.8305 37.8222 49.5666 37.8222C45.3026 37.8222 41.2134 36.171 38.1983 33.232C35.1833 30.293 33.4894 26.3068 33.4894 22.1504H33.4868Z" fill="#F9A86F" stroke="#F9A86F" stroke-width="1.5" stroke-miterlimit="10"/>
<path d="M57.2971 6.13385C59.0348 6.13385 60.4434 4.76074 60.4434 3.06693C60.4434 1.37311 59.0348 0 57.2971 0C55.5595 0 54.1509 1.37311 54.1509 3.06693C54.1509 4.76074 55.5595 6.13385 57.2971 6.13385Z" fill="#030504"/>
<path d="M0.994195 54.11L0.506348 97.6156C4.09654 97.2709 7.28411 95.5224 9.68187 92.0026C30.0409 62.1761 48.9004 76.4037 49.7676 53.8408L0.994195 54.11Z" fill="#030504" stroke="#030504" stroke-miterlimit="10"/>
<path d="M40.471 6.13385C42.2086 6.13385 43.6172 4.76074 43.6172 3.06693C43.6172 1.37311 42.2086 0 40.471 0C38.7333 0 37.3247 1.37311 37.3247 3.06693C37.3247 4.76074 38.7333 6.13385 40.471 6.13385Z" fill="#030504"/>
</svg>
