<svg width="85" height="61" viewBox="0 0 85 61" fill="none" xmlns="http://www.w3.org/2000/svg">
<path d="M49 44.9978L49 6.29233C50.4757 5.4352 52.122 4.99124 53.7922 5.00013C60.3226 5.00013 67.6932 9.69161 74.0213 17.8654C80.198 25.8496 84.2974 35.9874 85 45L49 44.9978Z" fill="#11133C"/>
<path d="M32.0098 60C32.197 51.5951 35.5066 43.5671 41.2822 37.5645L41.2832 37.5645C44.2886 34.4948 47.8605 32.069 51.7891 30.4277C55.7175 28.7865 59.9251 27.9613 64.167 28.001L64.1768 28.001C64.83 28.001 65.4333 28.0158 66 28.042L66 60L32.0098 60Z" fill="#79FE9D" stroke="#11133C" stroke-width="2"/>
<path d="M-6.11959e-07 23L22 9L22 37L-6.11959e-07 23Z" fill="#030504"/>
<path d="M42 39.9978L42 1.29233C43.4757 0.435203 45.122 -0.0087633 46.7922 0.000132428C53.3226 0.000131857 60.6932 4.69161 67.0213 12.8654C73.198 20.8496 77.2974 30.9874 78 40L42 39.9978Z" fill="#79FE9D"/>
<path d="M25.0098 55C25.197 46.5951 28.5066 38.5671 34.2822 32.5645L34.2832 32.5645C37.2886 29.4948 40.8605 27.069 44.7891 25.4277C48.7175 23.7865 52.9251 22.9613 57.167 23.001L57.1768 23.001C57.83 23.001 58.4333 23.0158 59 23.042L59 55L25.0098 55Z" stroke="#11133C" stroke-width="2"/>
</svg>
