<svg width="31" height="91" viewBox="0 0 31 91" fill="none" xmlns="http://www.w3.org/2000/svg">
<path d="M24.3519 61.7129H3.24609V82.7401H24.3519V61.7129Z" fill="#030504"/>
<path d="M14.068 90.1063C19.1689 90.1063 23.304 85.9866 23.304 80.9047C23.304 75.8228 19.1689 71.7031 14.068 71.7031C8.96713 71.7031 4.83203 75.8228 4.83203 80.9047C4.83203 85.9866 8.96713 90.1063 14.068 90.1063Z" fill="#030504"/>
<path d="M21.6332 32.0684H0.527344V53.0956H21.6332V32.0684Z" fill="#030504"/>
<path d="M21.1051 51.5204C26.206 51.5204 30.3411 47.4007 30.3411 42.3188C30.3411 37.2369 26.206 33.1172 21.1051 33.1172C16.0042 33.1172 11.8691 37.2369 11.8691 42.3188C11.8691 47.4007 16.0042 51.5204 21.1051 51.5204Z" fill="#030504"/>
<path d="M21.1058 59.0586H0V80.0858H21.1058V59.0586Z" fill="#1D43C6"/>
<path d="M10.8161 87.4482C15.917 87.4482 20.0521 83.3284 20.0521 78.2465C20.0521 73.1646 15.917 69.0449 10.8161 69.0449C5.71517 69.0449 1.58008 73.1646 1.58008 78.2465C1.58008 83.3284 5.71517 87.4482 10.8161 87.4482Z" fill="#1D43C6"/>
<path d="M21.6332 28.0391H0.527344V49.0663H21.6332V28.0391Z" fill="#1D43C6"/>
<path d="M21.1051 47.4931C26.206 47.4931 30.3411 43.3734 30.3411 38.2915C30.3411 33.2095 26.206 29.0898 21.1051 29.0898C16.0042 29.0898 11.8691 33.2095 11.8691 38.2915C11.8691 43.3734 16.0042 47.4931 21.1051 47.4931Z" fill="#1D43C6"/>
<path d="M21.5918 24.3554V3.32812L0.485973 3.32813V24.3554H21.5918Z" fill="#030504"/>
<path d="M19.3903 23.2216C24.4912 23.2216 28.6263 19.1019 28.6263 14.02C28.6263 8.93806 24.4912 4.81836 19.3903 4.81836C14.2894 4.81836 10.1543 8.93806 10.1543 14.02C10.1543 19.1019 14.2894 23.2216 19.3903 23.2216Z" fill="#030504"/>
<path d="M21.502 21.0273V0L0.39613 0V21.0273H21.502Z" fill="#1D43C6"/>
<path d="M19.3044 19.8925C24.4053 19.8925 28.5403 15.7728 28.5403 10.6909C28.5403 5.60896 24.4053 1.48926 19.3044 1.48926C14.2035 1.48926 10.0684 5.60896 10.0684 10.6909C10.0684 15.7728 14.2035 19.8925 19.3044 19.8925Z" fill="#1D43C6"/>
</svg>
