<svg width="25" height="84" viewBox="0 0 25 84" fill="none" xmlns="http://www.w3.org/2000/svg">
<path d="M0.677734 66.3504V52.9004L12.367 59.6229L24.0562 66.3504L12.367 73.073L0.677734 79.7955V66.3504Z" fill="#030504"/>
<path d="M0 70.5242V57.0791L11.6842 63.8016L23.3734 70.5242L11.6842 77.2467L0 83.9692V70.5242Z" fill="#C3D5E1"/>
<path d="M0.677734 39.9548V26.5098L12.367 33.2323L24.0562 39.9548L12.367 46.6773L0.677734 53.3999V39.9548Z" fill="#030504"/>
<path d="M0 44.1286V30.6836L11.6842 37.4061L23.3734 44.1286L11.6842 50.8512L0 57.5737V44.1286Z" fill="#C3D5E1"/>
<path d="M0.677734 13.4451V0L12.367 6.72253L24.0562 13.4451L12.367 20.1676L0.677734 26.8901V13.4451Z" fill="#030504"/>
<path d="M0 17.6189V4.17383L11.6842 10.8964L23.3734 17.6189L11.6842 24.3414L0 31.0689V17.6189Z" fill="#C3D5E1"/>
</svg>
