<svg width="78" height="82" viewBox="0 0 78 82" fill="none" xmlns="http://www.w3.org/2000/svg">
<path d="M51.0586 56.0507C58.2753 55.6738 65.0715 52.5568 70.0458 47.3423C75.0201 42.1279 77.7931 35.2136 77.7931 28.0254C77.7931 20.8371 75.0201 13.9228 70.0458 8.70841C65.0715 3.49397 58.2753 0.376907 51.0586 0V56.0507Z" fill="#030504"/>
<path d="M68.979 14.6102V31.035H53.2607V31.0267C53.2606 29.9505 53.3664 28.8769 53.5768 27.8212C53.9844 25.7819 54.7809 23.8392 55.9234 22.0981C56.4842 21.2423 57.1236 20.4401 57.8335 19.7019C60.7586 16.6498 64.7457 14.8249 68.979 14.6006V14.6102Z" fill="#F9A86F"/>
<path d="M46.1999 31.1465H0.551758C0.910755 34.7767 2.73485 37.9988 6.40522 40.4253C37.5063 61.0083 22.6848 80.0775 46.1999 80.9599V31.1465Z" stroke="#030504" stroke-miterlimit="10"/>
<path d="M38.3086 23.2315C42.6659 23.2315 46.1982 19.718 46.1982 15.3838C46.1982 11.0497 42.6659 7.53613 38.3086 7.53613C33.9513 7.53613 30.4189 11.0497 30.4189 15.3838C30.4189 19.718 33.9513 23.2315 38.3086 23.2315Z" fill="#79FE9D"/>
<path d="M38.3105 46.9121H7.29395V69.9465H38.3105V46.9121Z" fill="#79FE9D"/>
<path d="M51.0586 80.9544V60.5645H70.5761V60.5741C70.5598 65.1218 69.0223 69.5348 66.206 73.1173C63.3896 76.6998 59.4546 79.248 55.0214 80.3602C53.7228 80.6847 52.3957 80.8836 51.0586 80.9544Z" fill="#C3D5E1"/>
<path d="M33.7304 42.9883H2.71387V66.0227H33.7304V42.9883Z" fill="#1D43C6"/>
<path d="M31.8674 53.7949H10.9111V56.8847H31.8674V53.7949Z" fill="#F9EAD4"/>
<path d="M22.801 72.0479L27.9878 80.9544H17.6143L22.801 72.0479Z" fill="#1D43C6"/>
<path d="M25.5316 59.8496H10.9111V62.9393H25.5316V59.8496Z" fill="#F9EAD4"/>
</svg>
