<svg width="24" height="84" viewBox="0 0 24 84" fill="none" xmlns="http://www.w3.org/2000/svg">
<path d="M23.4226 20.3106C22.8411 19.4378 22.5995 18.6327 22.5919 17.5342C22.5919 17.3311 22.5391 17.158 22.456 17H22.4409C22.2521 16.9849 22.0783 17.015 21.9046 17.0903C21.3005 17.3611 20.7642 17.5041 20.2054 17.5492C20.1525 17.4138 20.0695 17.2709 19.9637 17.1053C19.3822 16.2476 19.1405 15.4425 19.133 14.3289C19.133 14.1709 19.0952 13.9903 19.0121 13.8474C19.0121 13.8474 19.0071 13.8373 18.997 13.8173H18.9593C18.7856 13.8173 18.6118 13.8549 18.4608 13.9076C17.4488 14.3665 16.6181 14.4718 15.6061 14.3063C15.6363 14.1483 15.6212 13.9452 15.5909 13.727C15.4399 12.6962 15.5758 11.861 16.0516 10.8603C16.1347 10.7023 16.1725 10.5142 16.1574 10.3411V10.311H16.1422C15.9837 10.2282 15.7949 10.1756 15.6212 10.1756C14.5034 10.1379 13.7104 9.86707 12.8646 9.28018C12.7286 9.18989 12.5927 9.10713 12.4719 9.05447C12.5247 8.83626 12.5247 8.57291 12.4719 8.24938C12.3359 7.23361 12.4718 6.39844 12.9325 5.3902C13.0156 5.21715 13.0534 5.04411 13.0534 4.84096H13.0383C12.8797 4.75067 12.6984 4.70551 12.5172 4.69046C11.3994 4.65284 10.5914 4.39702 9.7455 3.79509C9.43586 3.57689 9.17906 3.44896 8.92228 3.40382C8.89207 3.3662 8.86943 3.32107 8.83922 3.28345C8.23504 2.44074 7.97826 1.63564 7.9405 0.537115C7.92539 0.333962 7.87252 0.175938 7.78944 0.00288278H7.77437C7.58556 -0.0121655 7.41184 0.0329904 7.23814 0.108232C6.22614 0.57473 5.3954 0.710161 4.36829 0.574726C3.56019 0.45434 3.15993 0.589776 2.76721 1.09389C2.737 1.12399 2.71432 1.1466 2.69922 1.1767V22.1089H23.5964C23.5964 22.1089 23.5586 22.0411 23.5435 22.0186L23.5964 22.0562C23.9362 21.4242 23.8909 20.9953 23.4226 20.3031V20.3106ZM17.0032 16.8796L17.192 16.5862C17.192 16.5862 17.2071 16.6012 17.2071 16.6162L17.0183 16.8946L17.0032 16.8796Z" fill="#030504"/>
<path d="M2.68945 1.10901H2.75744C2.75744 1.10901 2.70456 1.16167 2.68945 1.19176V1.10901Z" fill="#030504"/>
<path d="M17.1961 16.6087L17.0073 16.8871L16.9922 16.8721L17.181 16.5786C17.181 16.5786 17.1961 16.5936 17.1961 16.6087Z" fill="#030504"/>
<path d="M23.4226 49.9473C22.8411 49.0745 22.5995 48.2695 22.5919 47.1709C22.5919 46.9678 22.5391 46.7947 22.456 46.6367H22.4409C22.2521 46.6216 22.0783 46.6517 21.9046 46.727C21.3005 46.9978 20.7642 47.1408 20.2054 47.1859C20.1525 47.0505 20.0695 46.9076 19.9637 46.742C19.3822 45.8843 19.1405 45.0792 19.133 43.9656C19.133 43.8076 19.0952 43.627 19.0121 43.4841C19.0121 43.4841 19.0071 43.4741 18.997 43.454H18.9593C18.7856 43.454 18.6118 43.4916 18.4608 43.5443C17.4488 44.0032 16.6181 44.1086 15.6061 43.943C15.6363 43.785 15.6212 43.5819 15.5909 43.3637C15.4399 42.3329 15.5758 41.4977 16.0516 40.497C16.1347 40.339 16.1725 40.1509 16.1574 39.9778V39.9477H16.1422C15.9837 39.8649 15.7949 39.8123 15.6212 39.8123C14.5034 39.7747 13.7104 39.5038 12.8646 38.9169C12.7286 38.8266 12.5927 38.7439 12.4719 38.6912C12.5247 38.473 12.5247 38.2096 12.4719 37.8861C12.3359 36.8703 12.4718 36.0352 12.9325 35.0269C13.0156 34.8539 13.0534 34.6808 13.0534 34.4777H13.0383C12.8797 34.3874 12.6984 34.3422 12.5172 34.3272C11.3994 34.2896 10.5914 34.0337 9.7455 33.4318C9.43586 33.2136 9.17906 33.0857 8.92228 33.0405C8.89207 33.0029 8.86943 32.9578 8.83922 32.9202C8.23504 32.0775 7.97826 31.2724 7.9405 30.1738C7.92539 29.9707 7.87252 29.8127 7.78944 29.6396H7.77437C7.58556 29.6246 7.41184 29.6697 7.23814 29.745C6.22614 30.2114 5.3954 30.3469 4.36829 30.2114C3.56019 30.0911 3.15993 30.2265 2.76721 30.7306C2.737 30.7607 2.71432 30.7833 2.69922 30.8134V51.7456H23.5964C23.5964 51.7456 23.5586 51.6779 23.5435 51.6553L23.5964 51.693C23.9362 51.0609 23.8909 50.632 23.4226 49.9398V49.9473ZM17.0032 46.5163L17.192 46.2229C17.192 46.2229 17.2071 46.2379 17.2071 46.253L17.0183 46.5313L17.0032 46.5163Z" fill="#030504"/>
<path d="M2.68945 30.7457H2.75744C2.75744 30.7457 2.70456 30.7983 2.68945 30.8284V30.7457Z" fill="#030504"/>
<path d="M17.1961 46.2454L17.0073 46.5238L16.9922 46.5088L17.181 46.2153C17.181 46.2153 17.1961 46.2304 17.1961 46.2454Z" fill="#030504"/>
<path d="M23.4226 79.5841C22.8411 78.7113 22.5995 77.9062 22.5919 76.8076C22.5919 76.6045 22.5391 76.4314 22.456 76.2734H22.4409C22.2521 76.2584 22.0783 76.2885 21.9046 76.3637C21.3005 76.6346 20.7642 76.7775 20.2054 76.8227C20.1525 76.6872 20.0695 76.5443 19.9637 76.3788C19.3822 75.521 19.1405 74.7159 19.133 73.6023C19.133 73.4443 19.0952 73.2637 19.0121 73.1208C19.0121 73.1208 19.0071 73.1108 18.997 73.0907H18.9593C18.7856 73.0907 18.6118 73.1283 18.4608 73.181C17.4488 73.64 16.6181 73.7453 15.6061 73.5798C15.6363 73.4217 15.6212 73.2186 15.5909 73.0004C15.4399 71.9696 15.5758 71.1344 16.0516 70.1337C16.1347 69.9757 16.1725 69.7876 16.1574 69.6146V69.5844H16.1422C15.9837 69.5017 15.7949 69.449 15.6212 69.449C14.5034 69.4114 13.7104 69.1405 12.8646 68.5536C12.7286 68.4633 12.5927 68.3806 12.4719 68.3279C12.5247 68.1097 12.5247 67.8464 12.4719 67.5228C12.3359 66.5071 12.4718 65.6719 12.9325 64.6636C13.0156 64.4906 13.0534 64.3175 13.0534 64.1144H13.0383C12.8797 64.0241 12.6984 63.9789 12.5172 63.9639C11.3994 63.9263 10.5914 63.6705 9.7455 63.0685C9.43586 62.8503 9.17906 62.7224 8.92228 62.6773C8.89207 62.6396 8.86943 62.5945 8.83922 62.5569C8.23504 61.7142 7.97826 60.9091 7.9405 59.8106C7.92539 59.6074 7.87252 59.4494 7.78944 59.2763H7.77437C7.58556 59.2613 7.41184 59.3064 7.23814 59.3817C6.22614 59.8482 5.3954 59.9836 4.36829 59.8482C3.56019 59.7278 3.15993 59.8632 2.76721 60.3673C2.737 60.3974 2.71432 60.42 2.69922 60.4501V81.3823H23.5964C23.5964 81.3823 23.5586 81.3146 23.5435 81.292L23.5964 81.3297C23.9362 80.6976 23.8909 80.2688 23.4226 79.5765V79.5841ZM17.0032 76.153L17.192 75.8596C17.192 75.8596 17.2071 75.8746 17.2071 75.8897L17.0183 76.1681L17.0032 76.153Z" fill="#030504"/>
<path d="M2.68945 60.3824H2.75744C2.75744 60.3824 2.70456 60.435 2.68945 60.4651V60.3824Z" fill="#030504"/>
<path d="M17.1961 75.8821L17.0073 76.1605L16.9922 76.1455L17.181 75.8521C17.181 75.8521 17.1961 75.8671 17.1961 75.8821Z" fill="#030504"/>
<path d="M20.7332 22.5C20.1517 21.6272 19.91 20.8221 19.9025 19.7236C19.9025 19.5205 19.8496 19.3474 19.7665 19.1894H19.7514C19.5626 19.1743 19.3889 19.2045 19.2152 19.2797C18.611 19.5506 18.0748 19.6935 17.5159 19.7387C17.4631 19.6032 17.38 19.4603 17.2742 19.2947C16.6927 18.437 16.4511 17.6319 16.4435 16.5183C16.4435 16.3603 16.4058 16.1798 16.3227 16.0368C16.3227 16.0368 16.3176 16.0267 16.3076 16.0067H16.2698C16.0961 16.0067 15.9224 16.0443 15.7713 16.097C14.7593 16.5559 13.9286 16.6613 12.9166 16.4958C12.9468 16.3378 12.9317 16.1346 12.9015 15.9164C12.7504 14.8856 12.8864 14.0504 13.3622 13.0497C13.4452 12.8917 13.483 12.7036 13.4679 12.5305V12.5004H13.4528C13.2942 12.4177 13.1054 12.365 12.9317 12.365C11.814 12.3274 11.021 12.0565 10.1751 11.4696C10.0392 11.3793 9.90324 11.2965 9.7824 11.2439C9.83527 11.0257 9.83527 10.7624 9.7824 10.4388C9.64646 9.42307 9.78239 8.58785 10.2431 7.57961C10.3262 7.40656 10.3639 7.23352 10.3639 7.03036H10.3488C10.1902 6.94007 10.009 6.89492 9.82771 6.87987C8.70998 6.84225 7.9019 6.58643 7.05605 5.98449C6.7464 5.76629 6.4896 5.63841 6.23283 5.59327C6.20262 5.55565 6.17997 5.51048 6.14976 5.47286C5.54558 4.63015 5.2888 3.82509 5.25104 2.72657C5.23594 2.52342 5.18306 2.36539 5.09999 2.19234H5.08491C4.89611 2.17729 4.72239 2.22244 4.54869 2.29769C3.53668 2.76418 2.70594 2.89961 1.67883 2.76418C0.870741 2.64379 0.470474 2.77923 0.0777563 3.28335C0.0475473 3.31344 0.0248702 3.33601 0.00976562 3.3661V24.2983H20.9069C20.9069 24.2983 20.8692 24.2306 20.8541 24.208L20.9069 24.2456C21.2468 23.6136 21.2014 23.1847 20.7332 22.4925V22.5ZM14.3138 19.069L14.5026 18.7756C14.5026 18.7756 14.5177 18.7906 14.5177 18.8057L14.3289 19.0841L14.3138 19.069Z" fill="#C3D5E1"/>
<path d="M0 3.29834H0.0679907C0.0679907 3.29834 0.0151045 3.35104 0 3.38114V3.29834Z" fill="#C3D5E1"/>
<path d="M14.5067 18.7981L14.3179 19.0765L14.3027 19.0615L14.4915 18.768C14.4915 18.768 14.5067 18.7831 14.5067 18.7981Z" fill="#C3D5E1"/>
<path d="M20.7332 52.1367C20.1517 51.2639 19.91 50.4589 19.9025 49.3603C19.9025 49.1572 19.8496 48.9841 19.7665 48.8261H19.7514C19.5626 48.8111 19.3889 48.8412 19.2152 48.9164C18.611 49.1873 18.0748 49.3302 17.5159 49.3754C17.4631 49.24 17.38 49.097 17.2742 48.9314C16.6927 48.0737 16.4511 47.2686 16.4435 46.155C16.4435 45.997 16.4058 45.8165 16.3227 45.6735C16.3227 45.6735 16.3176 45.6635 16.3076 45.6434H16.2698C16.0961 45.6434 15.9224 45.681 15.7713 45.7337C14.7593 46.1927 13.9286 46.298 12.9166 46.1325C12.9468 45.9745 12.9317 45.7713 12.9015 45.5531C12.7504 44.5223 12.8864 43.6871 13.3622 42.6864C13.4452 42.5284 13.483 42.3403 13.4679 42.1672V42.1372H13.4528C13.2942 42.0544 13.1054 42.0017 12.9317 42.0017C11.814 41.9641 11.021 41.6932 10.1751 41.1064C10.0392 41.0161 9.90324 40.9333 9.7824 40.8806C9.83527 40.6624 9.83527 40.3991 9.7824 40.0755C9.64646 39.0598 9.78239 38.2246 10.2431 37.2163C10.3262 37.0433 10.3639 36.8702 10.3639 36.6671H10.3488C10.1902 36.5768 10.009 36.5316 9.82771 36.5166C8.70998 36.479 7.9019 36.2231 7.05605 35.6212C6.7464 35.403 6.4896 35.2751 6.23283 35.23C6.20262 35.1924 6.17997 35.1472 6.14976 35.1096C5.54558 34.2669 5.2888 33.4618 5.25104 32.3633C5.23594 32.1601 5.18306 32.0021 5.09999 31.8291H5.08491C4.89611 31.814 4.72239 31.8592 4.54869 31.9344C3.53668 32.4009 2.70594 32.5363 1.67883 32.4009C0.870741 32.2805 0.470474 32.4159 0.0777563 32.9201C0.0475473 32.9502 0.0248702 32.9727 0.00976562 33.0028V53.935H20.9069C20.9069 53.935 20.8692 53.8673 20.8541 53.8447L20.9069 53.8824C21.2468 53.2503 21.2014 52.8214 20.7332 52.1292V52.1367ZM14.3138 48.7057L14.5026 48.4123C14.5026 48.4123 14.5177 48.4274 14.5177 48.4424L14.3289 48.7208L14.3138 48.7057Z" fill="#C3D5E1"/>
<path d="M0 32.9351H0.0679907C0.0679907 32.9351 0.0151045 32.9878 0 33.0179V32.9351Z" fill="#C3D5E1"/>
<path d="M14.5067 48.4349L14.3179 48.7132L14.3027 48.6982L14.4915 48.4047C14.4915 48.4047 14.5067 48.4198 14.5067 48.4349Z" fill="#C3D5E1"/>
<path d="M20.7332 81.7735C20.1517 80.9007 19.91 80.0956 19.9025 78.9971C19.9025 78.7939 19.8496 78.6208 19.7665 78.4628H19.7514C19.5626 78.4478 19.3889 78.4779 19.2152 78.5532C18.611 78.824 18.0748 78.967 17.5159 79.0121C17.4631 78.8767 17.38 78.7337 17.2742 78.5682C16.6927 77.7104 16.4511 76.9053 16.4435 75.7918C16.4435 75.6337 16.4058 75.4532 16.3227 75.3102C16.3227 75.3102 16.3176 75.3002 16.3076 75.2801H16.2698C16.0961 75.2801 15.9224 75.3177 15.7713 75.3704C14.7593 75.8294 13.9286 75.9347 12.9166 75.7692C12.9468 75.6112 12.9317 75.408 12.9015 75.1898C12.7504 74.159 12.8864 73.3238 13.3622 72.3231C13.4452 72.1651 13.483 71.977 13.4679 71.804V71.7739H13.4528C13.2942 71.6911 13.1054 71.6384 12.9317 71.6384C11.814 71.6008 11.021 71.33 10.1751 70.7431C10.0392 70.6528 9.90324 70.57 9.7824 70.5173C9.83527 70.2991 9.83527 70.0358 9.7824 69.7123C9.64646 68.6965 9.78239 67.8613 10.2431 66.853C10.3262 66.68 10.3639 66.507 10.3639 66.3038H10.3488C10.1902 66.2135 10.009 66.1684 9.82771 66.1533C8.70998 66.1157 7.9019 65.8599 7.05605 65.2579C6.7464 65.0397 6.4896 64.9119 6.23283 64.8667C6.20262 64.8291 6.17997 64.7839 6.14976 64.7463C5.54558 63.9036 5.2888 63.0985 5.25104 62C5.23594 61.7969 5.18306 61.6388 5.09999 61.4658H5.08491C4.89611 61.4507 4.72239 61.4959 4.54869 61.5711C3.53668 62.0376 2.70594 62.1731 1.67883 62.0376C0.870741 61.9172 0.470474 62.0527 0.0777563 62.5568C0.0475473 62.5869 0.0248702 62.6094 0.00976562 62.6395V83.5718H20.9069C20.9069 83.5718 20.8692 83.504 20.8541 83.4815L20.9069 83.5191C21.2468 82.887 21.2014 82.4582 20.7332 81.7659V81.7735ZM14.3138 78.3425L14.5026 78.049C14.5026 78.049 14.5177 78.0641 14.5177 78.0791L14.3289 78.3575L14.3138 78.3425Z" fill="#C3D5E1"/>
<path d="M0 62.5718H0.0679907C0.0679907 62.5718 0.0151045 62.6245 0 62.6546V62.5718Z" fill="#C3D5E1"/>
<path d="M14.5067 78.0716L14.3179 78.35L14.3027 78.3349L14.4915 78.0414C14.4915 78.0414 14.5067 78.0565 14.5067 78.0716Z" fill="#C3D5E1"/>
<path d="M13.0461 4.8418V4.85113H13.0273L13.0461 4.8418Z" fill="#030504"/>
<path d="M13.0461 34.4775V34.4869H13.0273L13.0461 34.4775Z" fill="#030504"/>
<path d="M13.0461 64.1143V64.1236H13.0273L13.0461 64.1143Z" fill="#030504"/>
<path d="M17.1829 16.5853C17.1829 16.5853 17.1981 16.6004 17.1981 16.6154L17.0093 16.8938L16.9941 16.8788L17.1829 16.5853Z" fill="#030504"/>
<path d="M19.0185 13.8164L19.0034 13.8465C19.0034 13.8465 19.0034 13.8315 18.9883 13.8164H19.0185Z" fill="#030504"/>
<path d="M17.1829 46.222C17.1829 46.222 17.1981 46.2371 17.1981 46.2521L17.0093 46.5305L16.9941 46.5155L17.1829 46.222Z" fill="#030504"/>
<path d="M19.0185 43.4531L19.0034 43.4832C19.0034 43.4832 19.0034 43.4682 18.9883 43.4531H19.0185Z" fill="#030504"/>
<path d="M17.1829 75.8588C17.1829 75.8588 17.1981 75.8738 17.1981 75.8888L17.0093 76.1672L16.9941 76.1522L17.1829 75.8588Z" fill="#030504"/>
<path d="M19.0185 73.0898L19.0034 73.1199C19.0034 73.1199 19.0034 73.1049 18.9883 73.0898H19.0185Z" fill="#030504"/>
<path d="M17.1829 16.5858C17.1829 16.5858 17.1981 16.6008 17.1981 16.6158L17.0093 16.8942L16.9941 16.8792L17.1829 16.5858Z" fill="#030504"/>
<path d="M18.987 13.8169H18.9492L18.9794 13.7793C18.9794 13.7793 18.9945 13.8094 18.9945 13.8169H18.987Z" fill="#030504"/>
<path d="M17.1829 46.2225C17.1829 46.2225 17.1981 46.2375 17.1981 46.2526L17.0093 46.5309L16.9941 46.5159L17.1829 46.2225Z" fill="#030504"/>
<path d="M18.987 43.4536H18.9492L18.9794 43.416C18.9794 43.416 18.9945 43.4461 18.9945 43.4536H18.987Z" fill="#030504"/>
<path d="M17.1829 75.8592C17.1829 75.8592 17.1981 75.8742 17.1981 75.8893L17.0093 76.1677L16.9941 76.1526L17.1829 75.8592Z" fill="#030504"/>
<path d="M18.987 73.0903H18.9492L18.9794 73.0527C18.9794 73.0527 18.9945 73.0828 18.9945 73.0903H18.987Z" fill="#030504"/>
</svg>
