<svg width="97" height="105" viewBox="0 0 97 105" fill="none" xmlns="http://www.w3.org/2000/svg">
<path d="M42.9546 30.3549C47.7965 30.3549 51.7217 26.4169 51.7217 21.5591C51.7217 16.7012 47.7965 12.7632 42.9546 12.7632C38.1127 12.7632 34.1875 16.7012 34.1875 21.5591C34.1875 26.4169 38.1127 30.3549 42.9546 30.3549Z" fill="#79FE9D"/>
<path d="M88.0308 65.2363C92.8727 65.2363 96.7979 61.2982 96.7979 56.4404C96.7979 51.5826 92.8727 47.6445 88.0308 47.6445C83.1888 47.6445 79.2637 51.5826 79.2637 56.4404C79.2637 61.2982 83.1888 65.2363 88.0308 65.2363Z" fill="#79FE9D"/>
<path d="M42.9548 10.8436C45.9394 10.8436 48.3589 8.41617 48.3589 5.4218C48.3589 2.42742 45.9394 0 42.9548 0C39.9703 0 37.5508 2.42742 37.5508 5.4218C37.5508 8.41617 39.9703 10.8436 42.9548 10.8436Z" fill="#79FE9D"/>
<path d="M88.031 45.7249C91.0156 45.7249 93.4351 43.2975 93.4351 40.3031C93.4351 37.3088 91.0156 34.8813 88.031 34.8813C85.0464 34.8813 82.627 37.3088 82.627 40.3031C82.627 43.2975 85.0464 45.7249 88.031 45.7249Z" fill="#79FE9D"/>
<path d="M42.9542 104.864C66.6771 104.864 85.9083 85.5697 85.9083 61.769C85.9083 37.9682 66.6771 18.6738 42.9542 18.6738C19.2312 18.6738 0 37.9682 0 61.769C0 85.5697 19.2312 104.864 42.9542 104.864Z" fill="#F9EAD4"/>
<path d="M60.4311 42.4323V60.8385H42.9551C42.9477 57.2817 43.9755 53.8001 45.9123 50.821C46.5403 49.8648 47.2502 48.9654 48.0343 48.1333C48.8275 47.3086 49.693 46.5571 50.6204 45.8879C53.4886 43.8032 56.8946 42.5914 60.4311 42.3975V42.4323Z" fill="#F9A86F"/>
<path d="M49.3895 38.3018H18.2871C18.4154 39.6016 18.8424 40.8539 19.5345 41.9602C20.2267 43.0665 21.1653 43.9966 22.2763 44.6776C43.4635 58.8138 33.3629 71.9262 49.3895 72.5196V38.3018Z" stroke="#030504" stroke-width="1.4" stroke-miterlimit="10"/>
<path d="M53.6465 89.0878V66.2139H75.3555C75.3542 67.714 75.2067 69.2103 74.9149 70.6816C74.6389 72.1089 74.2192 73.5045 73.6624 74.8469C73.1246 76.1723 72.4606 77.4424 71.6794 78.6397C70.9067 79.8321 70.0255 80.9499 69.0469 81.9789C68.0676 83.0105 66.9919 83.9456 65.8346 84.7712C64.6767 85.6118 63.442 86.3403 62.147 86.9469C60.8368 87.564 59.4696 88.0511 58.0649 88.4013C56.6172 88.7703 55.1376 89.0002 53.6465 89.0878Z" fill="#C3D5E1"/>
<path d="M34.6276 73.3223H18.9141V80.2566H34.6276V73.3223Z" fill="#C3D5E1"/>
<path d="M35.5078 80.3031V73.3223L41.4919 76.8127L35.5078 80.3031Z" fill="#1D43C6"/>
</svg>
