<svg width="17" height="57" viewBox="0 0 17 57" fill="none" xmlns="http://www.w3.org/2000/svg">
<path d="M15.1906 15.4193C15.1906 15.8292 15.1806 16.199 15.1555 16.5389H1.95117V2.24915C5.54824 2.25914 8.88443 3.60367 11.3527 6.04777C13.831 8.50186 15.1956 11.8306 15.1956 15.4193H15.1906Z" fill="#030504"/>
<path d="M7.94195 3.96355C7.93191 3.8136 7.92188 3.68365 7.92188 3.5587L12.6778 3.17383L13.0993 8.32193C11.8049 8.42189 10.5607 8.03703 9.60252 7.22733C8.63929 6.41763 8.0473 5.25807 7.94195 3.96355Z" fill="#030504"/>
<path d="M11.6688 7.28733C11.7089 7.14239 11.7541 7.01742 11.7942 6.90247L16.3746 8.242L14.9147 13.2002C13.6705 12.8303 12.6471 12.0256 12.0451 10.931C11.438 9.82642 11.3026 8.53688 11.6688 7.29234V7.28733Z" fill="#030504"/>
<path d="M13.877 12.1455C13.9271 12.0555 13.9723 11.9806 14.0174 11.9106L16.8319 13.445L15.1562 16.4889C14.3887 16.0691 13.8368 15.3943 13.601 14.5846C13.3602 13.7749 13.4606 12.9052 13.882 12.1405L13.877 12.1455Z" fill="#030504"/>
<path d="M2.19622 2.55907C2.12599 2.43912 2.06579 2.33414 2.01562 2.23418L5.7933 0L8.23148 4.08851C7.20302 4.69328 6.01404 4.87319 4.89528 4.5933C3.7665 4.3084 2.80828 3.58867 2.19622 2.56404V2.55907Z" fill="#030504"/>
<path d="M13.4406 16.1196C13.4406 16.5295 13.4306 16.8993 13.4055 17.2392H0.201172V2.94946C3.79824 2.95946 7.13445 4.30395 9.60273 6.74805C12.081 9.20215 13.4456 12.5309 13.4456 16.1196H13.4406Z" fill="#F9A86F"/>
<path d="M6.18609 4.66386C6.17605 4.51392 6.16602 4.38397 6.16602 4.25901L10.922 3.87415L11.3434 9.02227C10.049 9.12224 8.80487 8.73738 7.84666 7.92768C6.88343 7.11797 6.29144 5.95839 6.18609 4.66386Z" fill="#F9A86F"/>
<path d="M9.9188 7.98765C9.95893 7.8427 10.0041 7.71774 10.0442 7.60278L14.6246 8.94229L13.1647 13.9005C11.9205 13.5306 10.8971 12.7259 10.2951 11.6313C9.68802 10.5267 9.55257 9.2372 9.9188 7.99265V7.98765Z" fill="#F9A86F"/>
<path d="M12.1211 12.8459C12.1713 12.7559 12.2164 12.6809 12.2616 12.611L15.076 14.1454L13.4004 17.1893C12.6328 16.7694 12.081 16.0947 11.8452 15.285C11.6044 14.4753 11.7047 13.6056 12.1261 12.8409L12.1211 12.8459Z" fill="#F9A86F"/>
<path d="M0.446239 3.25437C0.376003 3.13441 0.315793 3.02947 0.265625 2.92951L4.0433 0.695312L6.48149 4.7838C5.45304 5.38858 4.26405 5.56852 3.1453 5.28862C2.01651 5.00373 1.05829 4.28399 0.446239 3.25937V3.25437Z" fill="#F9A86F"/>
<path d="M15.1906 35.0717C15.1906 35.4815 15.1806 35.8514 15.1555 36.1912H1.95117V21.9015C5.54824 21.9115 8.88443 23.256 11.3527 25.7001C13.831 28.1542 15.1956 31.483 15.1956 35.0717H15.1906Z" fill="#030504"/>
<path d="M7.94195 23.6209C7.93191 23.4709 7.92188 23.341 7.92188 23.216L12.6778 22.8312L13.0993 27.9793C11.8049 28.0792 10.5607 27.6944 9.60252 26.8847C8.63929 26.075 8.0473 24.9154 7.94195 23.6209Z" fill="#030504"/>
<path d="M11.6688 26.9447C11.7089 26.7997 11.7541 26.6748 11.7942 26.5598L16.3746 27.8993L14.9147 32.8575C13.6705 32.4877 12.6471 31.6829 12.0451 30.5883C11.438 29.4837 11.3026 28.1942 11.6688 26.9497V26.9447Z" fill="#030504"/>
<path d="M13.877 31.7979C13.9271 31.708 13.9723 31.633 14.0174 31.563L16.8319 33.0974L15.1562 36.1413C14.3887 35.7214 13.8368 35.0467 13.601 34.237C13.3602 33.4273 13.4606 32.5576 13.882 31.7929L13.877 31.7979Z" fill="#030504"/>
<path d="M2.19622 22.2114C2.12599 22.0914 2.06579 21.9865 2.01562 21.8865L5.7933 19.6523L8.23148 23.7408C7.20302 24.3456 6.01404 24.5256 4.89528 24.2457C3.7665 23.9608 2.80828 23.241 2.19622 22.2164V22.2114Z" fill="#030504"/>
<path d="M13.4406 35.7718C13.4406 36.1817 13.4306 36.5515 13.4055 36.8914H0.201172V22.6017C3.79824 22.6117 7.13445 23.9562 9.60273 26.4003C12.081 28.8544 13.4456 32.1831 13.4456 35.7718H13.4406Z" fill="#F9A86F"/>
<path d="M6.18609 24.3211C6.17605 24.1711 6.16602 24.0412 6.16602 23.9162L10.922 23.5314L11.3434 28.6795C10.049 28.7794 8.80487 28.3946 7.84666 27.5849C6.88343 26.7752 6.29144 25.6156 6.18609 24.3211Z" fill="#F9A86F"/>
<path d="M9.9188 27.6399C9.95893 27.4949 10.0041 27.37 10.0442 27.255L14.6246 28.5945L13.1647 33.5527C11.9205 33.1828 10.8971 32.3781 10.2951 31.2835C9.68802 30.1789 9.55257 28.8894 9.9188 27.6448V27.6399Z" fill="#F9A86F"/>
<path d="M12.1211 32.498C12.1713 32.4081 12.2164 32.3331 12.2616 32.2631L15.076 33.7976L13.4004 36.8414C12.6328 36.4216 12.081 35.7468 11.8452 34.9371C11.6044 34.1274 11.7047 33.2577 12.1261 32.493L12.1211 32.498Z" fill="#F9A86F"/>
<path d="M0.446239 22.9116C0.376003 22.7916 0.315793 22.6867 0.265625 22.5867L4.0433 20.3525L6.48149 24.441C5.45304 25.0458 4.26405 25.2257 3.1453 24.9458C2.01651 24.661 1.05829 23.9412 0.446239 22.9166V22.9116Z" fill="#F9A86F"/>
<path d="M14.9953 54.5297C14.9953 54.9396 14.9853 55.3094 14.9602 55.6493H1.75586V41.3596C5.35293 41.3696 8.68914 42.7141 11.1574 45.1582C13.6357 47.6123 15.0003 50.941 15.0003 54.5297H14.9953Z" fill="#030504"/>
<path d="M7.74077 43.0789C7.73074 42.9289 7.7207 42.799 7.7207 42.674L12.4767 42.2892L12.8981 47.4373C11.6037 47.5372 10.3596 47.1524 9.40135 46.3427C8.43811 45.533 7.84613 44.3734 7.74077 43.0789Z" fill="#030504"/>
<path d="M11.4735 46.4027C11.5136 46.2577 11.5588 46.1328 11.5989 46.0178L16.1793 47.3573L14.7194 52.3155C13.4752 51.9457 12.4518 51.1409 11.8497 50.0463C11.2427 48.9417 11.1073 47.6522 11.4735 46.4077V46.4027Z" fill="#030504"/>
<path d="M13.6758 51.2559C13.726 51.166 13.7711 51.091 13.8163 51.021L16.6307 52.5554L14.9551 55.5993C14.1875 55.1795 13.6357 54.5047 13.3999 53.695C13.1591 52.8853 13.2594 52.0156 13.6808 51.2509L13.6758 51.2559Z" fill="#030504"/>
<path d="M2.00093 41.6694C1.93069 41.5495 1.87048 41.4445 1.82031 41.3445L5.59799 39.1104L8.03618 43.1989C7.00773 43.8037 5.81872 43.9836 4.69997 43.7037C3.57118 43.4188 2.61298 42.699 2.00093 41.6744V41.6694Z" fill="#030504"/>
<path d="M13.2394 55.2298C13.2394 55.6397 13.2294 56.0096 13.2043 56.3494H0V42.0597C3.59707 42.0697 6.93328 43.4142 9.40156 45.8583C11.8799 48.3124 13.2444 51.6412 13.2444 55.2298H13.2394Z" fill="#F9A86F"/>
<path d="M5.99077 43.7791C5.98074 43.6292 5.9707 43.4992 5.9707 43.3742L10.7267 42.9894L11.1481 48.1375C9.85374 48.2374 8.60956 47.8526 7.65135 47.0429C6.68811 46.2332 6.09613 45.0736 5.99077 43.7791Z" fill="#F9A86F"/>
<path d="M9.71762 47.0979C9.75776 46.9529 9.80291 46.828 9.84304 46.713L14.4234 48.0525L12.9635 53.0107C11.7193 52.6408 10.6959 51.8361 10.0939 50.7415C9.48685 49.6369 9.35139 48.3474 9.71762 47.1029V47.0979Z" fill="#F9A86F"/>
<path d="M11.9258 51.9561C11.976 51.8661 12.0211 51.7912 12.0663 51.7212L14.8807 53.2556L13.2051 56.2995C12.4375 55.8796 11.8857 55.2049 11.6499 54.3952C11.4091 53.5855 11.5094 52.7158 11.9308 51.9511L11.9258 51.9561Z" fill="#F9A86F"/>
<path d="M0.250911 42.3696C0.180676 42.2496 0.120481 42.1447 0.0703125 42.0447L3.84799 39.8105L6.28616 43.899C5.25771 44.5038 4.06872 44.6838 2.94997 44.4039C1.82118 44.119 0.862965 43.3992 0.250911 42.3746V42.3696Z" fill="#F9A86F"/>
</svg>
