<svg width="96" height="101" viewBox="0 0 96 101" fill="none" xmlns="http://www.w3.org/2000/svg">
<path d="M95.0928 0H22.3828V71.3294H95.0928V0Z" fill="#79FE9D"/>
<path d="M29.181 43.0996C30.9378 43.0996 32.6227 43.7907 33.865 45.0207C35.1073 46.2508 35.8053 47.9191 35.8053 49.6586C35.8044 51.3976 35.1061 53.065 33.8639 54.2944C32.6217 55.5237 30.9372 56.2143 29.181 56.2143C27.4247 56.2143 25.7402 55.5237 24.498 54.2944C23.2558 53.065 22.5575 51.3976 22.5566 49.6586C22.5566 47.9191 23.2546 46.2508 24.4969 45.0207C25.7392 43.7907 27.4241 43.0996 29.181 43.0996Z" fill="#11133C"/>
<path d="M6.62098 43.0996C7.49203 43.0996 8.35452 43.2697 9.15909 43.6002C9.96367 43.9306 10.6945 44.4149 11.3098 45.0254C11.9251 45.6358 12.4128 46.3605 12.7449 47.1578C13.077 47.9551 13.2471 48.8094 13.2453 49.6719C13.2453 51.4108 12.5478 53.0786 11.3063 54.3086C10.0647 55.5385 8.38062 56.23 6.62432 56.2309C4.86745 56.2309 3.18253 55.5398 1.94023 54.3098C0.69793 53.0797 1.35613e-05 51.4114 1.35613e-05 49.6719C-0.00174834 48.8097 0.168187 47.9556 0.500091 47.1585C0.831996 46.3615 1.31935 45.637 1.9343 45.0266C2.54924 44.4161 3.27971 43.9317 4.08389 43.6011C4.88808 43.2705 5.75022 43.1 6.62098 43.0996Z" fill="#11133C"/>
<path d="M95.8393 36.7959C89.091 37.3201 85.8911 39.8249 82.7079 47.0507C78.7574 55.9155 73.5672 61.8806 64.7884 67.6202C63.2849 68.6063 62.0334 69.9249 61.1328 71.472H95.8393V36.7959Z" fill="#1D43C6"/>
<path d="M55.6848 80.9873V99.3637H38.3751C38.345 98.9789 38.3282 98.594 38.3282 98.2125C38.3175 94.9275 39.2469 91.7067 41.0088 88.9231C42.7027 86.2558 45.1201 84.114 47.9849 82.7423C50.3853 81.5906 53.0174 80.9907 55.6848 80.9873Z" stroke="#11133C" stroke-width="2"/>
<path d="M87.1641 80.9873V99.3637H69.8712C69.8411 98.9789 69.8243 98.594 69.8243 98.2125C69.8136 94.9275 70.743 91.7067 72.5049 88.9231C74.1988 86.2558 76.6162 84.114 79.481 82.7423C81.8763 81.5931 84.5024 80.9933 87.1641 80.9873V80.9873Z" stroke="#11133C" stroke-width="2"/>
</svg>
