<svg width="58" height="74" viewBox="0 0 58 74" fill="none" xmlns="http://www.w3.org/2000/svg">
<path d="M57.6742 9.12109H1.36523V14.5691H57.6742V9.12109Z" fill="#030504"/>
<path d="M57.6742 35.1211H1.36523V40.5691H57.6742V35.1211Z" fill="#030504"/>
<path d="M57.6742 63.1211H1.36523V68.5691H57.6742V63.1211Z" fill="#030504"/>
<path d="M40.7775 19.0634C45.0804 19.0634 48.5686 15.5881 48.5686 11.3012C48.5686 7.0143 45.0804 3.53906 40.7775 3.53906C36.4745 3.53906 32.9863 7.0143 32.9863 11.3012C32.9863 15.5881 36.4745 19.0634 40.7775 19.0634Z" fill="#030504"/>
<path d="M40.7775 45.0634C45.0804 45.0634 48.5686 41.5881 48.5686 37.3012C48.5686 33.0143 45.0804 29.5391 40.7775 29.5391C36.4745 29.5391 32.9863 33.0143 32.9863 37.3012C32.9863 41.5881 36.4745 45.0634 40.7775 45.0634Z" fill="#030504"/>
<path d="M40.7775 73.0634C45.0804 73.0634 48.5686 69.5881 48.5686 65.3012C48.5686 61.0143 45.0804 57.5391 40.7775 57.5391C36.4745 57.5391 32.9863 61.0143 32.9863 65.3012C32.9863 69.5881 36.4745 73.0634 40.7775 73.0634Z" fill="#030504"/>
<path d="M17.4044 19.4735C21.7074 19.4735 25.1956 15.9983 25.1956 11.7114C25.1956 7.42445 21.7074 3.94922 17.4044 3.94922C13.1015 3.94922 9.61328 7.42445 9.61328 11.7114C9.61328 15.9983 13.1015 19.4735 17.4044 19.4735Z" fill="#030504"/>
<path d="M17.4044 45.4735C21.7074 45.4735 25.1956 41.9983 25.1956 37.7114C25.1956 33.4244 21.7074 29.9492 17.4044 29.9492C13.1015 29.9492 9.61328 33.4244 9.61328 37.7114C9.61328 41.9983 13.1015 45.4735 17.4044 45.4735Z" fill="#030504"/>
<path d="M17.4044 73.4735C21.7074 73.4735 25.1956 69.9983 25.1956 65.7114C25.1956 61.4244 21.7074 57.9492 17.4044 57.9492C13.1015 57.9492 9.61328 61.4244 9.61328 65.7114C9.61328 69.9983 13.1015 73.4735 17.4044 73.4735Z" fill="#030504"/>
<path d="M56.309 5.58301H0V11.031H56.309V5.58301Z" fill="#F9A86F"/>
<path d="M56.309 31.583H0V37.031H56.309V31.583Z" fill="#F9A86F"/>
<path d="M56.309 59.583H0V65.031H56.309V59.583Z" fill="#F9A86F"/>
<path d="M39.4083 15.5243C43.7113 15.5243 47.1995 12.0491 47.1995 7.76214C47.1995 3.47523 43.7113 0 39.4083 0C35.1054 0 31.6172 3.47523 31.6172 7.76214C31.6172 12.0491 35.1054 15.5243 39.4083 15.5243Z" fill="#F9A86F"/>
<path d="M39.4083 41.5243C43.7113 41.5243 47.1995 38.0491 47.1995 33.7621C47.1995 29.4752 43.7113 26 39.4083 26C35.1054 26 31.6172 29.4752 31.6172 33.7621C31.6172 38.0491 35.1054 41.5243 39.4083 41.5243Z" fill="#F9A86F"/>
<path d="M39.4083 69.5243C43.7113 69.5243 47.1995 66.0491 47.1995 61.7621C47.1995 57.4752 43.7113 54 39.4083 54C35.1054 54 31.6172 57.4752 31.6172 61.7621C31.6172 66.0491 35.1054 69.5243 39.4083 69.5243Z" fill="#F9A86F"/>
<path d="M16.0333 15.9344C20.3363 15.9344 23.8245 12.4592 23.8245 8.1723C23.8245 3.88539 20.3363 0.410156 16.0333 0.410156C11.7304 0.410156 8.24219 3.88539 8.24219 8.1723C8.24219 12.4592 11.7304 15.9344 16.0333 15.9344Z" fill="#F9A86F"/>
<path d="M16.0333 41.9344C20.3363 41.9344 23.8245 38.4592 23.8245 34.1723C23.8245 29.8854 20.3363 26.4102 16.0333 26.4102C11.7304 26.4102 8.24219 29.8854 8.24219 34.1723C8.24219 38.4592 11.7304 41.9344 16.0333 41.9344Z" fill="#F9A86F"/>
<path d="M16.0333 69.9344C20.3363 69.9344 23.8245 66.4592 23.8245 62.1723C23.8245 57.8854 20.3363 54.4102 16.0333 54.4102C11.7304 54.4102 8.24219 57.8854 8.24219 62.1723C8.24219 66.4592 11.7304 69.9344 16.0333 69.9344Z" fill="#F9A86F"/>
</svg>
