<svg width="101" height="88" viewBox="0 0 101 88" fill="none" xmlns="http://www.w3.org/2000/svg">
<path d="M33.4489 43.741C33.4494 44.2865 33.2916 44.8198 32.9956 45.2735C32.6995 45.7273 32.2785 46.081 31.7858 46.2899C31.2931 46.4989 30.7508 46.5537 30.2277 46.4474C29.7045 46.3411 29.2239 46.0785 28.8467 45.6928C28.4696 45.3071 28.2128 44.8157 28.1088 44.2807C28.0049 43.7457 28.0584 43.1912 28.2628 42.6874C28.4671 42.1836 28.8131 41.753 29.2568 41.4503C29.7005 41.1476 30.222 40.9862 30.7554 40.9867C31.4698 40.9867 32.1548 41.2769 32.66 41.7934C33.1651 42.31 33.4489 43.0106 33.4489 43.741Z" fill="#F2F2F2"/>
<path d="M30.7544 50.0712H27.479L29.1167 47.1693L30.7544 44.2699L32.3922 47.1693L34.0299 50.0712H30.7544Z" fill="#F2F2F2"/>
<path d="M98.7098 7.89102H7.84619V68.2297H98.7098V7.89102Z" fill="#F9EAD4"/>
<path d="M58.0373 87.8105H49.3052L53.67 80.0788L58.0373 72.3471L62.4022 80.0788L66.767 87.8105H58.0373Z" fill="#F9EAD4"/>
<path d="M92.2137 1.35001H1.3501V61.6887H92.2137V1.35001Z" fill="#79FE9D"/>
<path d="M92.2137 1.35001H1.3501V61.6887H92.2137V1.35001Z" stroke="#11133C" stroke-width="2.7" stroke-miterlimit="10"/>
<path d="M98.7098 7.89102H7.84619V68.2297H98.7098V7.89102Z" fill="#030504"/>
<path d="M98.7098 7.89102H7.84619V68.2297H98.7098V7.89102Z" stroke="#C3D5E1" stroke-width="2.7" stroke-miterlimit="10"/>
<path d="M58.0373 87.8105H49.3052L53.67 80.0788L58.0373 72.3471L62.4022 80.0788L66.767 87.8105H58.0373Z" fill="#030504"/>
<path d="M70.5655 38.0611C70.566 41.2304 69.6473 44.3288 67.9258 46.9642C66.2042 49.5997 63.757 51.6539 60.8937 52.8671C58.0304 54.0803 54.8795 54.398 51.8396 53.78C48.7998 53.162 46.0074 51.636 43.8156 49.3951C41.6239 47.1542 40.1312 44.299 39.5264 41.1906C38.9215 38.0821 39.2317 34.8601 40.4177 31.9319C41.6037 29.0038 43.6122 26.501 46.1892 24.7402C48.7662 22.9793 51.7959 22.0395 54.8953 22.0395C59.0509 22.0395 63.0363 23.7273 65.975 26.7319C68.9136 29.7365 70.5648 33.8116 70.5655 38.0611Z" fill="#F9EAD4"/>
<path d="M54.8953 54.0847C63.5497 54.0847 70.5655 46.9105 70.5655 38.0606C70.5655 29.2108 63.5497 22.0365 54.8953 22.0365C46.2409 22.0365 39.2251 29.2108 39.2251 38.0606C39.2251 46.9105 46.2409 54.0847 54.8953 54.0847Z" stroke="#11133C" stroke-width="2.7" stroke-miterlimit="10"/>
<path d="M74.8738 32.1586H31.6821V39.7772H74.8738V32.1586Z" fill="#79FE9D"/>
<path d="M37.2327 33.9321C37.6268 33.5288 38.129 33.2542 38.6758 33.1428C39.2226 33.0315 39.7894 33.0884 40.3045 33.3065C40.8196 33.5246 41.2599 33.8941 41.5697 34.3681C41.8794 34.8421 42.0448 35.3994 42.0448 35.9695C42.0448 36.5396 41.8794 37.0969 41.5697 37.5709C41.2599 38.0449 40.8196 38.4143 40.3045 38.6324C39.7894 38.8505 39.2226 38.9075 38.6758 38.7962C38.129 38.6848 37.6268 38.4102 37.2327 38.0069C36.9709 37.7395 36.7631 37.4219 36.6214 37.0723C36.4797 36.7227 36.4067 36.3479 36.4067 35.9695C36.4067 35.591 36.4797 35.2163 36.6214 34.8667C36.7631 34.5171 36.9709 34.1995 37.2327 33.9321Z" fill="#030504"/>
<path d="M49.4446 33.9321C49.8387 33.5288 50.3409 33.2542 50.8877 33.1428C51.4345 33.0315 52.0012 33.0884 52.5163 33.3065C53.0314 33.5246 53.4718 33.8941 53.7815 34.3681C54.0913 34.8421 54.2566 35.3994 54.2566 35.9695C54.2566 36.5396 54.0913 37.0969 53.7815 37.5709C53.4718 38.0449 53.0314 38.4143 52.5163 38.6324C52.0012 38.8505 51.4345 38.9075 50.8877 38.7962C50.3409 38.6848 49.8387 38.4102 49.4446 38.0069C48.9164 37.4665 48.6196 36.7336 48.6196 35.9695C48.6196 35.2053 48.9164 34.4725 49.4446 33.9321Z" fill="#030504"/>
</svg>
