<svg width="34" height="66" viewBox="0 0 34 66" fill="none" xmlns="http://www.w3.org/2000/svg">
<path d="M10.0031 18.373C14.0844 18.373 17.3929 15.0768 17.3929 11.0107C17.3929 6.94464 14.0844 3.64844 10.0031 3.64844C5.92181 3.64844 2.61328 6.94464 2.61328 11.0107C2.61328 15.0768 5.92181 18.373 10.0031 18.373Z" fill="#030504"/>
<path d="M17.3918 18.373C21.473 18.373 24.7815 15.0768 24.7815 11.0107C24.7815 6.94464 21.473 3.64844 17.3918 3.64844C13.3105 3.64844 10.002 6.94464 10.002 11.0107C10.002 15.0768 13.3105 18.373 17.3918 18.373Z" fill="#030504"/>
<path d="M25.5949 18.373C29.6762 18.373 32.9847 15.0768 32.9847 11.0107C32.9847 6.94464 29.6762 3.64844 25.5949 3.64844C21.5136 3.64844 18.2051 6.94464 18.2051 11.0107C18.2051 15.0768 21.5136 18.373 25.5949 18.373Z" fill="#030504"/>
<path d="M7.3898 14.7246C11.4711 14.7246 14.7796 11.4284 14.7796 7.36228C14.7796 3.2962 11.4711 0 7.3898 0C3.30853 0 0 3.2962 0 7.36228C0 11.4284 3.30853 14.7246 7.3898 14.7246Z" fill="#F9A86F"/>
<path d="M14.7843 14.7246C18.8656 14.7246 22.1741 11.4284 22.1741 7.36228C22.1741 3.2962 18.8656 0 14.7843 0C10.7031 0 7.39453 3.2962 7.39453 7.36228C7.39453 11.4284 10.7031 14.7246 14.7843 14.7246Z" fill="#F9A86F"/>
<path d="M22.9816 14.7246C27.0629 14.7246 30.3714 11.4284 30.3714 7.36228C30.3714 3.2962 27.0629 0 22.9816 0C18.9003 0 15.5918 3.2962 15.5918 7.36228C15.5918 11.4284 18.9003 14.7246 22.9816 14.7246Z" fill="#F9A86F"/>
<path d="M10.0031 41.9345C14.0844 41.9345 17.3929 38.6383 17.3929 34.5722C17.3929 30.5062 14.0844 27.21 10.0031 27.21C5.92181 27.21 2.61328 30.5062 2.61328 34.5722C2.61328 38.6383 5.92181 41.9345 10.0031 41.9345Z" fill="#030504"/>
<path d="M17.3918 41.9345C21.473 41.9345 24.7815 38.6383 24.7815 34.5722C24.7815 30.5062 21.473 27.21 17.3918 27.21C13.3105 27.21 10.002 30.5062 10.002 34.5722C10.002 38.6383 13.3105 41.9345 17.3918 41.9345Z" fill="#030504"/>
<path d="M25.5949 41.9345C29.6762 41.9345 32.9847 38.6383 32.9847 34.5722C32.9847 30.5062 29.6762 27.21 25.5949 27.21C21.5136 27.21 18.2051 30.5062 18.2051 34.5722C18.2051 38.6383 21.5136 41.9345 25.5949 41.9345Z" fill="#030504"/>
<path d="M7.3898 38.2812C11.4711 38.2812 14.7796 34.985 14.7796 30.9189C14.7796 26.8528 11.4711 23.5566 7.3898 23.5566C3.30853 23.5566 0 26.8528 0 30.9189C0 34.985 3.30853 38.2812 7.3898 38.2812Z" fill="#F9A86F"/>
<path d="M14.7843 38.2812C18.8656 38.2812 22.1741 34.985 22.1741 30.9189C22.1741 26.8528 18.8656 23.5566 14.7843 23.5566C10.7031 23.5566 7.39453 26.8528 7.39453 30.9189C7.39453 34.985 10.7031 38.2812 14.7843 38.2812Z" fill="#F9A86F"/>
<path d="M22.9816 38.2812C27.0629 38.2812 30.3714 34.985 30.3714 30.9189C30.3714 26.8528 27.0629 23.5566 22.9816 23.5566C18.9003 23.5566 15.5918 26.8528 15.5918 30.9189C15.5918 34.985 18.9003 38.2812 22.9816 38.2812Z" fill="#F9A86F"/>
<path d="M10.4035 65.8964C14.4847 65.8964 17.7933 62.6002 17.7933 58.5342C17.7933 54.4681 14.4847 51.1719 10.4035 51.1719C6.3222 51.1719 3.01367 54.4681 3.01367 58.5342C3.01367 62.6002 6.3222 65.8964 10.4035 65.8964Z" fill="#030504"/>
<path d="M17.7941 65.8964C21.8754 65.8964 25.1839 62.6002 25.1839 58.5342C25.1839 54.4681 21.8754 51.1719 17.7941 51.1719C13.7128 51.1719 10.4043 54.4681 10.4043 58.5342C10.4043 62.6002 13.7128 65.8964 17.7941 65.8964Z" fill="#030504"/>
<path d="M25.9972 65.8964C30.0785 65.8964 33.387 62.6002 33.387 58.5342C33.387 54.4681 30.0785 51.1719 25.9972 51.1719C21.9159 51.1719 18.6074 54.4681 18.6074 58.5342C18.6074 62.6002 21.9159 65.8964 25.9972 65.8964Z" fill="#030504"/>
<path d="M7.79019 62.2471C11.8715 62.2471 15.18 58.9509 15.18 54.8848C15.18 50.8187 11.8715 47.5225 7.79019 47.5225C3.70892 47.5225 0.400391 50.8187 0.400391 54.8848C0.400391 58.9509 3.70892 62.2471 7.79019 62.2471Z" fill="#F9A86F"/>
<path d="M15.1808 62.2471C19.2621 62.2471 22.5706 58.9509 22.5706 54.8848C22.5706 50.8187 19.2621 47.5225 15.1808 47.5225C11.0995 47.5225 7.79102 50.8187 7.79102 54.8848C7.79102 58.9509 11.0995 62.2471 15.1808 62.2471Z" fill="#F9A86F"/>
<path d="M23.382 62.2471C27.4633 62.2471 30.7718 58.9509 30.7718 54.8848C30.7718 50.8187 27.4633 47.5225 23.382 47.5225C19.3007 47.5225 15.9922 50.8187 15.9922 54.8848C15.9922 58.9509 19.3007 62.2471 23.382 62.2471Z" fill="#F9A86F"/>
</svg>
