<svg width="80" height="74" viewBox="0 0 80 74" fill="none" xmlns="http://www.w3.org/2000/svg">
<g clip-path="url(#clip0_22_1307)">
<path d="M0 73.7278V38.1507H35.6106V38.1687C35.6124 40.4999 35.3739 42.8257 34.8984 45.1126C33.9719 49.5273 32.167 53.733 29.5805 57.5036C26.3395 62.2297 21.9716 66.1621 16.8317 68.9811C11.6919 71.8002 5.92512 73.4265 0 73.7278Z" fill="#79FE9D"/>
<path d="M35.6145 0V35.5771H0.00390625V35.5591C0.0364638 27.6265 2.84316 19.9296 7.98195 13.6807C13.1207 7.43168 20.2996 2.9857 28.3879 1.04293C30.7577 0.475916 33.1792 0.126669 35.6192 0" fill="#F9A86F"/>
<path d="M61.3804 0.792267C64.9162 0.792267 68.3725 1.78925 71.3123 3.65717C74.2521 5.52509 76.5434 8.18002 77.8964 11.2862C79.2494 14.3924 79.6032 17.8104 78.9133 21.1078C78.2233 24.4052 76.5205 27.4341 74.0202 29.8113C71.5199 32.1884 68.3344 33.8072 64.8665 34.4628C61.3987 35.1185 57.8042 34.7815 54.5377 33.4946C51.2713 32.2077 48.4795 30.0286 46.5155 27.2329C44.5515 24.4372 43.5034 21.1505 43.5039 17.7885C43.5039 15.5563 43.9663 13.346 44.8647 11.2838C45.7631 9.22155 47.08 7.3478 48.74 5.76953C50.4 4.19126 52.3707 2.93938 54.5396 2.08537C56.7084 1.23137 59.033 0.791971 61.3804 0.792267Z" fill="#1D43C6"/>
</g>
<defs>
<clipPath id="clip0_22_1307">
<rect width="79.2549" height="73.7255" fill="white"/>
</clipPath>
</defs>
</svg>
