<svg width="68" height="72" viewBox="0 0 68 72" fill="none" xmlns="http://www.w3.org/2000/svg">
<path d="M67.4512 28.5C67.0686 32.44 66.0855 35.3274 64.1445 37.7021C62.1061 40.1962 58.9689 42.1805 54.2041 44.1875L54.2031 44.1885C42.3509 49.2356 34.3683 55.8785 26.6973 67.085C25.5956 68.6929 24.167 70.0661 22.5 71.1221V28.5H67.4512Z" fill="#030504" stroke="#11133C"/>
<path d="M47.5 61.4971C37.0086 61.447 26.9292 57.388 19.2822 50.1416L18.5381 49.4189C14.6771 45.5079 11.6242 40.8587 9.55762 35.7422C7.49047 30.6243 6.45194 25.1406 6.50195 19.6123V19.6084C6.50195 18.4755 6.53206 17.4524 6.59277 16.5L47.5 16.5L47.5 61.4971Z" fill="#F9A86F" stroke="#11133C"/>
<path d="M51.3828 41.5H4.61719L28 0.999023L51.3828 41.5Z" stroke="#11133C"/>
</svg>
