<svg width="52" height="92" viewBox="0 0 52 92" fill="none" xmlns="http://www.w3.org/2000/svg">
<path d="M50.3846 35.1768H0.912109V90.1094H50.3846V35.1768Z" fill="white"/>
<path d="M50.2964 35.2686H1V90.0175H50.2964V35.2686Z" stroke="#11133C" stroke-width="2"/>
<path d="M29.5584 68.4928C35.3886 68.4928 40.1149 63.5608 40.1149 57.4769C40.1149 51.3929 35.3886 46.4609 29.5584 46.4609C23.7282 46.4609 19.002 51.3929 19.002 57.4769C19.002 63.5608 23.7282 68.4928 29.5584 68.4928Z" fill="#1D43C6"/>
<path d="M0.962891 24.4623C1.2966 17.8584 4.04554 11.6399 8.6431 7.08852C13.2407 2.53718 19.3364 0 25.6736 0C32.0108 0 38.1065 2.53718 42.704 7.08852C47.3016 11.6399 50.0506 17.8584 50.3843 24.4623H0.962891Z" fill="#79FE9D"/>
<path d="M24.8852 90.0945L24.8694 90.1092H24.7497L24.7338 90.0945H24.6793L24.7056 90.0669L24.5684 89.9236V63.9473C30.2234 64.1494 32.623 65.9682 35.0245 71.6856C35.7656 73.46 36.6404 75.1704 37.6407 76.8004L37.5914 76.8519C40.0263 80.7449 43.1566 83.8737 47.6267 86.9437C48.7886 87.7396 49.7374 88.8308 50.3838 90.1147L24.8852 90.0945Z" fill="#1D43C6" stroke="#030504" stroke-miterlimit="10"/>
</svg>
