<svg width="87" height="72" viewBox="0 0 87 72" fill="none" xmlns="http://www.w3.org/2000/svg">
<path d="M86.6273 71.8824H44.8262V31.7275H44.8478C47.5874 31.7273 50.3204 31.9974 53.0079 32.5341C55.617 33.0598 58.1701 33.8369 60.6321 34.8548C63.0528 35.8581 65.3747 37.0888 67.5672 38.5306C69.7433 39.9649 71.7838 41.5986 73.6627 43.411C75.5424 45.2252 77.2518 47.211 78.7691 49.343C80.2965 51.4889 81.6232 53.7734 82.7321 56.1669C83.8567 58.5975 84.7505 61.1301 85.4014 63.7309C86.0686 66.402 86.4792 69.1318 86.6273 71.8824Z" fill="#C3D5E1"/>
<path d="M0 31.7285H41.8012V71.8823H41.7795C39.04 71.8834 36.3069 71.6136 33.6195 71.0767C31.0103 70.551 28.4572 69.774 25.9952 68.7561C23.5747 67.7543 21.2528 66.5253 19.0601 65.0852C16.8842 63.6507 14.8437 62.017 12.9647 60.2048C11.0852 58.3904 9.37578 56.4046 7.85824 54.2728C6.33081 52.1269 5.0041 49.8424 3.8952 47.4489C2.77062 45.0184 1.87688 42.4857 1.22598 39.8849C0.558882 37.2121 0.148329 34.4807 0 31.7285Z" fill="#030504"/>
<path d="M5.46921 29.6538C8.48977 29.6538 10.9384 27.1827 10.9384 24.1345C10.9384 21.0863 8.48977 18.6152 5.46921 18.6152C2.44865 18.6152 0 21.0863 0 24.1345C0 27.1827 2.44865 29.6538 5.46921 29.6538Z" fill="#1D43C6"/>
<path d="M36.3325 29.6538C39.3531 29.6538 41.8017 27.1827 41.8017 24.1345C41.8017 21.0863 39.3531 18.6152 36.3325 18.6152C33.3119 18.6152 30.8633 21.0863 30.8633 24.1345C30.8633 27.1827 33.3119 29.6538 36.3325 29.6538Z" fill="#1D43C6"/>
<path d="M20.9008 24.1352C23.9214 24.1352 26.3701 21.6641 26.3701 18.6159C26.3701 15.5677 23.9214 13.0967 20.9008 13.0967C17.8803 13.0967 15.4316 15.5677 15.4316 18.6159C15.4316 21.6641 17.8803 24.1352 20.9008 24.1352Z" fill="#1D43C6"/>
<path d="M20.9008 11.0385C23.9214 11.0385 26.3701 8.56746 26.3701 5.51926C26.3701 2.47106 23.9214 0 20.9008 0C17.8803 0 15.4316 2.47106 15.4316 5.51926C15.4316 8.56746 17.8803 11.0385 20.9008 11.0385Z" fill="#1D43C6"/>
<path d="M9.86374 16.5415C12.8843 16.5415 15.333 14.0704 15.333 11.0222C15.333 7.97399 12.8843 5.50293 9.86374 5.50293C6.84318 5.50293 4.39453 7.97399 4.39453 11.0222C4.39453 14.0704 6.84318 16.5415 9.86374 16.5415Z" fill="#1D43C6"/>
<path d="M31.938 16.5415C34.9585 16.5415 37.4072 14.0704 37.4072 11.0222C37.4072 7.97399 34.9585 5.50293 31.938 5.50293C28.9174 5.50293 26.4688 7.97399 26.4688 11.0222C26.4688 14.0704 28.9174 16.5415 31.938 16.5415Z" fill="#1D43C6"/>
</svg>
