<svg width="76" height="76" viewBox="0 0 76 76" fill="none" xmlns="http://www.w3.org/2000/svg">
<path d="M73.3699 36.1513C72.9912 31.9036 71.7622 27.7753 69.756 24.0113C66.6597 18.9784 62.4914 14.6892 57.5477 11.4487C51.5432 7.84051 44.5465 6.23222 37.5676 6.85599L37.2051 41.671L73.5123 41.4587C73.5614 39.6883 73.5138 37.9165 73.3699 36.1513V36.1513Z" stroke="#FCF8F3" stroke-width="4" stroke-miterlimit="10"/>
<path d="M0.368392 41.8891L0 75.5686C2.71144 75.3018 5.11881 73.9481 6.93163 71.2233C22.3056 48.1334 36.5509 59.1476 37.2039 41.6807L0.368392 41.8891Z" fill="#FCF8F3"/>
<path d="M24.9043 17.1475H49.1884C49.1884 18.7407 48.8743 20.3183 48.2641 21.7902C47.6539 23.2622 46.7595 24.5996 45.632 25.7262C44.5046 26.8528 43.166 27.7464 41.6929 28.3561C40.2198 28.9658 38.6409 29.2796 37.0463 29.2796C35.4518 29.2796 33.8729 28.9658 32.3998 28.3561C30.9266 27.7464 29.5881 26.8528 28.4606 25.7262C27.3331 24.5996 26.4387 23.2622 25.8285 21.7902C25.2183 20.3183 24.9043 18.7407 24.9043 17.1475Z" fill="#F9A86F" stroke="#F9A86F" stroke-width="1.5" stroke-miterlimit="10"/>
<path d="M30.1828 4.74848C31.4951 4.74848 32.559 3.6855 32.559 2.37424C32.559 1.06298 31.4951 0 30.1828 0C28.8705 0 27.8066 1.06298 27.8066 2.37424C27.8066 3.6855 28.8705 4.74848 30.1828 4.74848Z" fill="#FCF8F3"/>
<path d="M42.8898 4.74848C44.2022 4.74848 45.266 3.6855 45.266 2.37424C45.266 1.06298 44.2022 0 42.8898 0C41.5775 0 40.5137 1.06298 40.5137 2.37424C40.5137 3.6855 41.5775 4.74848 42.8898 4.74848Z" fill="#FCF8F3"/>
</svg>
