<svg width="94" height="67" viewBox="0 0 94 67" fill="none" xmlns="http://www.w3.org/2000/svg">
<path d="M46.0786 51.6074C58.2938 51.6074 68.1962 41.705 68.1962 29.4897C68.1962 17.2745 58.2938 7.37207 46.0786 7.37207C33.8633 7.37207 23.9609 17.2745 23.9609 29.4897C23.9609 41.705 33.8633 51.6074 46.0786 51.6074Z" fill="#1D43C6"/>
<path d="M64.5102 44.2353C76.7255 44.2353 86.6279 34.3329 86.6279 22.1176C86.6279 9.90241 76.7255 0 64.5102 0C52.295 0 42.3926 9.90241 42.3926 22.1176C42.3926 34.3329 52.295 44.2353 64.5102 44.2353Z" fill="#1D43C6"/>
<path d="M70.0389 62.6669C83.2721 62.6669 93.9997 52.7645 93.9997 40.5493C93.9997 28.334 83.2721 18.4316 70.0389 18.4316C56.8057 18.4316 46.0781 28.334 46.0781 40.5493C46.0781 52.7645 56.8057 62.6669 70.0389 62.6669Z" fill="#1D43C6"/>
<path d="M22.1176 51.6074C34.3329 51.6074 44.2353 41.705 44.2353 29.4897C44.2353 17.2745 34.3329 7.37207 22.1176 7.37207C9.90241 7.37207 0 17.2745 0 29.4897C0 41.705 9.90241 51.6074 22.1176 51.6074Z" fill="#1D43C6"/>
<path d="M42.3917 66.3525C53.589 66.3525 62.6662 56.4501 62.6662 44.2348C62.6662 32.0196 53.589 22.1172 42.3917 22.1172C31.1944 22.1172 22.1172 32.0196 22.1172 44.2348C22.1172 56.4501 31.1944 66.3525 42.3917 66.3525Z" fill="#1D43C6"/>
</svg>
