<svg width="67" height="63" viewBox="0 0 67 63" fill="none" xmlns="http://www.w3.org/2000/svg">
<path d="M11.7596 50.5686L11.2324 2.21033C15.104 2.59387 18.5408 4.53676 21.1281 8.44924C43.0783 41.6009 63.4141 25.8031 64.3495 50.8673L11.7596 50.5686Z" stroke="#FCF8F3" stroke-width="4" stroke-miterlimit="10"/>
<path d="M28.2903 25.5773C33.6165 25.5773 37.9342 21.2386 37.9342 15.8865C37.9342 10.5344 33.6165 6.19568 28.2903 6.19568C22.9642 6.19568 18.6465 10.5344 18.6465 15.8865C18.6465 21.2386 22.9642 25.5773 28.2903 25.5773Z" fill="#F9A86F"/>
<path d="M43.0404 38.7103L50.036 50.814H36.0449L43.0404 38.7103Z" fill="#1D43C6"/>
<path d="M52.933 38.7679L59.9285 50.8717H45.9375L52.933 38.7679Z" fill="#1D43C6"/>
<path d="M22.8387 62.8544V38.7601H4.92516e-08V38.7727C-0.000100383 40.3517 0.153398 41.9269 0.458327 43.4759C1.0529 46.4665 2.21035 49.3155 3.86849 51.8699C5.94714 55.0718 8.74857 57.7355 12.0449 59.6442C15.3413 61.5529 19.0395 62.6528 22.8387 62.8544Z" fill="#79FE9D"/>
</svg>
