<svg width="78" height="78" viewBox="0 0 78 78" fill="none" xmlns="http://www.w3.org/2000/svg">
<path d="M17.7188 62.1222V18.7715H59.6779V18.7935C59.68 21.6342 59.3989 24.4683 58.8387 27.2551C57.7471 32.6348 55.6203 37.7598 52.5728 42.3545C48.0399 49.1846 41.656 54.6327 34.1415 58.0839C28.9808 60.452 23.4055 61.823 17.7188 62.1222Z" fill="#F9EAD4"/>
<path d="M35.4492 77.4122V34.0615H77.4083V34.0835C77.358 45.2074 72.9844 55.8913 65.1835 63.9468C57.3826 72.0024 46.7448 76.8198 35.4492 77.4122Z" fill="#FCF8F3"/>
<path d="M17.7263 34.8643C27.5163 34.8643 35.4527 27.0597 35.4527 17.4322C35.4527 7.80464 27.5163 0 17.7263 0C7.93635 0 0 7.80464 0 17.4322C0 27.0597 7.93635 34.8643 17.7263 34.8643Z" fill="#79FE9D"/>
</svg>
