<svg width="69" height="87" viewBox="0 0 69 87" fill="none" xmlns="http://www.w3.org/2000/svg">
<path d="M47.1201 48.9442C46.8827 51.9079 45.7434 53.3131 42.4679 54.7091C38.4424 56.4437 35.7367 58.721 33.1305 62.5936C32.6807 63.2518 32.0812 63.7994 31.3789 64.1937V48.9581L47.1201 48.9442Z" fill="#C3D5E1"/>
<path d="M28.2949 43.8655V22.8186C29.1951 22.3513 30.1997 22.1091 31.2191 22.1137C35.2066 22.1137 39.702 24.6645 43.5614 29.1123C47.3305 33.458 49.8323 38.9725 50.2643 43.8748L28.2949 43.8655Z" fill="#79FE9D"/>
<path d="M28.2949 43.8655V22.8186C29.1951 22.3513 30.1997 22.1091 31.2191 22.1137C35.2066 22.1137 39.702 24.6645 43.5614 29.1123C47.3305 33.458 49.8323 38.9725 50.2643 43.8748L28.2949 43.8655Z" stroke="#11133C" stroke-miterlimit="10"/>
<path d="M45.2933 82.2584H22.9395V86.6274H45.2933V82.2584Z" fill="#1D43C6"/>
<path d="M20.8408 35.4571C22.4686 33.8905 24.3965 32.6528 26.5143 31.8148C28.6321 30.9768 30.8983 30.5549 33.1831 30.5733V48.9443H15.8705C15.8373 48.5083 15.8231 48.0166 15.8231 47.5065C15.8 45.2707 16.2331 43.0529 17.0971 40.9824C17.961 38.912 19.2385 37.0305 20.8549 35.4478" fill="#1D43C6"/>
<path d="M56.1836 57.6033C56.1836 58.1179 56.3397 58.6209 56.6323 59.0488C56.925 59.4767 57.3409 59.8101 57.8276 60.0071C58.3142 60.204 58.8496 60.2556 59.3662 60.1552C59.8828 60.0548 60.3574 59.8069 60.7298 59.443C61.1022 59.0792 61.3558 58.6156 61.4585 58.1109C61.5613 57.6062 61.5086 57.083 61.3071 56.6075C61.1055 56.1321 60.7641 55.7258 60.3261 55.4399C59.8882 55.154 59.3733 55.0013 58.8466 55.0013C58.1403 55.0013 57.463 55.2756 56.9636 55.7635C56.4641 56.2514 56.1836 56.9132 56.1836 57.6033Z" fill="#C3D5E1"/>
<path d="M67.7083 48.9859C67.5943 50.4561 67.0294 51.1565 65.4011 51.8522C63.4756 52.6486 61.8537 54.0142 60.7633 55.7573C60.5396 56.0844 60.2425 56.3572 59.8945 56.5551V48.9859H67.7083Z" stroke="#030504" stroke-miterlimit="10"/>
<path d="M0.500004 26.8351C0.499065 27.3673 0.659765 27.8879 0.961729 28.3308C1.26369 28.7738 1.69334 29.1193 2.19635 29.3236C2.69937 29.528 3.25308 29.5819 3.78747 29.4786C4.32187 29.3753 4.81296 29.1195 5.19849 28.7435C5.58402 28.3675 5.84669 27.8882 5.95331 27.3662C6.05993 26.8443 6.00568 26.3032 5.79743 25.8114C5.58919 25.3196 5.23635 24.8992 4.78347 24.6034C4.33059 24.3076 3.79807 24.1497 3.25331 24.1497C2.52392 24.1497 1.82434 24.4325 1.30814 24.9359C0.791933 25.4394 0.501262 26.1225 0.500004 26.8351Z" fill="#79FE9D"/>
<path d="M3.25329 29.5252C4.77389 29.5252 6.00658 28.3208 6.00658 26.8351C6.00658 25.3495 4.77389 24.1451 3.25329 24.1451C1.73269 24.1451 0.5 25.3495 0.5 26.8351C0.5 28.3208 1.73269 29.5252 3.25329 29.5252Z" stroke="#11133C" stroke-miterlimit="10"/>
<path d="M12.6425 17.9581C12.5191 19.4793 11.9352 20.1982 10.269 20.9171C8.28156 21.7424 6.60714 23.1529 5.47917 24.9521C5.25112 25.2927 4.94369 25.5756 4.58203 25.7776V17.9581H12.6425Z" stroke="#030504" stroke-miterlimit="10"/>
<path d="M43.7685 16.4971C46.1831 16.4971 48.1405 14.5847 48.1405 12.2256C48.1405 9.86648 46.1831 7.95404 43.7685 7.95404C41.3539 7.95404 39.3965 9.86648 39.3965 12.2256C39.3965 14.5847 41.3539 16.4971 43.7685 16.4971Z" stroke="#030504" stroke-miterlimit="10"/>
<path d="M59.8659 0C59.6712 2.41637 58.7456 3.56189 56.0682 4.70282C52.788 6.0942 50.5854 7.94942 48.4729 11.1171C48.1069 11.6538 47.6197 12.1012 47.0488 12.425V0H59.8659Z" fill="#1D43C6"/>
<path d="M36.3545 76.6791H31.8828V86.6275H36.3545V76.6791Z" fill="#1D43C6"/>
<path d="M34.6975 51.7825V67.9828C34.0054 68.3438 33.232 68.5304 32.4474 68.5255C29.3808 68.5255 25.9202 66.5636 22.9533 63.1408C20.0576 59.7969 18.1303 55.5578 17.8027 51.7825H34.6975Z" stroke="#11133C" stroke-miterlimit="10"/>
</svg>
