<svg width="166" height="80" viewBox="0 0 166 80" fill="none" xmlns="http://www.w3.org/2000/svg">
<path d="M136 52C129.778 52.4242 126.828 54.4458 123.892 60.2791C120.25 67.4372 115.465 72.2512 107.369 76.8896C105.982 77.6849 104.828 78.75 104 80L136 80L136 52Z" fill="#C3D5E1"/>
<path d="M48 0C56.555 0.727176 60.6117 4.19278 64.6482 14.1927C69.6559 26.4638 76.2354 34.7163 87.3677 42.6678C89.2748 44.0312 90.861 45.8571 92 48L48 48L48 0Z" fill="#1D43C6"/>
<path d="M136.002 80L165.031 80C165.674 78.8522 166.007 77.5718 166 76.2728C166 71.1935 162.481 65.4608 156.351 60.539C150.363 55.7349 142.759 52.5464 136 52L136.002 80Z" fill="#C3D5E1"/>
<path d="M47.9973 48L1.5508 48C0.522241 46.0324 -0.0105152 43.8374 0.000158398 41.6105C0.000158779 32.9032 5.62994 23.0757 15.4384 14.6383C25.0195 6.40268 37.1849 0.936758 48 0L47.9973 48Z" fill="#1D43C6"/>
<path d="M92 22C92.3241 16.0609 94.994 10.4682 99.4593 6.37501C103.925 2.2818 109.845 0 116 0C122.155 0 128.075 2.2818 132.541 6.37501C137.006 10.4682 139.676 16.0609 140 22H92Z" fill="#F9A86F"/>
</svg>
