<svg width="62" height="80" viewBox="0 0 62 80" fill="none" xmlns="http://www.w3.org/2000/svg">
<path d="M0.00132751 46.8237C0.00132751 45.7849 0.0302486 44.8595 0.0946293 44L32 44L32 79.9991C23.5063 80.0627 15.3357 76.6212 9.28416 70.431C6.30585 67.3327 3.95119 63.6497 2.35745 59.5966C0.763708 55.5436 -0.0372276 51.2016 0.00132751 46.8237Z" fill="#79FE9D"/>
<path d="M26.5 35.499L26.5 1.47168C27.8333 0.826517 29.3016 0.492867 30.79 0.500003L30.792 0.500003C37.1175 0.500002 44.3625 4.6046 50.6426 11.9053L50.6436 11.9053C56.6246 18.8639 60.6242 27.646 61.4482 35.5L26.5 35.499Z" fill="#030504" stroke="#11133C"/>
<path d="M48 54.5C52.1421 54.5 55.5 57.8579 55.5 62C55.5 66.1421 52.1421 69.5 48 69.5C43.8579 69.5 40.5 66.1421 40.5 62C40.5 57.8579 43.8579 54.5 48 54.5Z" fill="#F9A86F" stroke="#11133C"/>
</svg>
