<svg width="104" height="117" viewBox="0 0 104 117" fill="none" xmlns="http://www.w3.org/2000/svg">
<path d="M47.3984 34.4286V23.9385" stroke="#F9EAD4" stroke-width="2"/>
<path d="M62.209 34.4286V23.9385" stroke="#F9EAD4" stroke-width="2"/>
<path d="M87.3282 63.0236C86.9046 54.9981 83.4246 47.4413 77.6056 41.9106C71.7866 36.3799 64.072 33.2969 56.0518 33.2969C48.0316 33.2969 40.317 36.3799 34.498 41.9106C28.679 47.4413 25.1991 54.9981 24.7754 63.0236H87.3282Z" fill="#1D43C6"/>
<path d="M49.4172 46.8369C50.1954 46.8369 50.9562 47.0682 51.6032 47.5014C52.2503 47.9347 52.7546 48.5504 53.0524 49.2709C53.3502 49.9914 53.4282 50.7841 53.2763 51.549C53.1245 52.3138 52.7498 53.0164 52.1995 53.5678C51.6492 54.1192 50.9481 54.4947 50.1848 54.6469C49.4216 54.799 48.6304 54.7209 47.9114 54.4225C47.1924 54.1241 46.5779 53.6187 46.1455 52.9703C45.7132 52.3219 45.4824 51.5596 45.4824 50.7798C45.4824 49.7341 45.897 48.7312 46.6349 47.9917C47.3728 47.2523 48.3736 46.8369 49.4172 46.8369Z" fill="#F9A86F"/>
<path d="M47.3986 20.8281C47.9792 20.8284 48.536 21.0596 48.9465 21.4711C49.357 21.8826 49.5876 22.4406 49.5876 23.0225C49.5876 23.3107 49.5309 23.5961 49.4208 23.8624C49.3107 24.1287 49.1493 24.3706 48.9459 24.5744C48.7425 24.7782 48.5009 24.9398 48.2352 25.05C47.9694 25.1603 47.6845 25.2169 47.3969 25.2168C47.1093 25.2168 46.8245 25.1601 46.5589 25.0498C46.2932 24.9395 46.0518 24.7779 45.8484 24.5741C45.6451 24.3703 45.4838 24.1284 45.3737 23.8622C45.2637 23.596 45.207 23.3106 45.207 23.0225C45.207 22.7343 45.2637 22.449 45.3737 22.1827C45.4838 21.9165 45.6451 21.6746 45.8484 21.4708C46.0518 21.2671 46.2932 21.1054 46.5589 20.9952C46.8245 20.8849 47.1093 20.8281 47.3969 20.8281" fill="#79FE9D"/>
<path d="M41.9902 116.117V68.4814H87.2349V68.5053C87.2359 71.6267 86.9316 74.7406 86.3263 77.8025C85.1499 83.7138 82.8569 89.3454 79.5708 94.3942C74.6842 101.898 67.8025 107.885 59.7017 111.679C56.9635 112.962 54.1099 113.98 51.1793 114.721C48.1695 115.481 45.0937 115.948 41.9945 116.117" fill="#F9EAD4"/>
<path d="M70.0209 116.117V68.4814H24.7754V68.5053C24.7752 71.6266 25.0795 74.7405 25.6839 77.8025C26.8606 83.714 29.1542 89.3457 32.4411 94.3942C36.5584 100.722 42.1074 105.987 48.6372 109.761C55.167 113.536 62.4933 115.714 70.0209 116.117Z" fill="#F9A86F"/>
<path d="M62.2101 46.8369C62.9884 46.8369 63.7491 47.0682 64.3962 47.5014C65.0433 47.9347 65.5476 48.5504 65.8454 49.2709C66.1432 49.9914 66.2211 50.7841 66.0693 51.549C65.9175 52.3138 65.5427 53.0164 64.9924 53.5678C64.4422 54.1192 63.741 54.4947 62.9778 54.6469C62.2145 54.799 61.4234 54.7209 60.7044 54.4225C59.9854 54.1241 59.3709 53.6187 58.9385 52.9703C58.5062 52.3219 58.2754 51.5596 58.2754 50.7798C58.2754 50.262 58.3772 49.7493 58.5749 49.2709C58.7726 48.7925 59.0625 48.3579 59.4279 47.9917C59.7932 47.6256 60.227 47.3352 60.7044 47.137C61.1818 46.9389 61.6934 46.8369 62.2101 46.8369Z" fill="#F9A86F"/>
<path d="M62.1712 20.8281C62.4588 20.828 62.7437 20.8847 63.0094 20.9949C63.2752 21.1051 63.5167 21.2668 63.7202 21.4705C63.9236 21.6743 64.085 21.9162 64.1951 22.1825C64.3052 22.4488 64.3619 22.7342 64.3619 23.0225C64.3619 23.3107 64.3052 23.5961 64.1951 23.8624C64.085 24.1287 63.9236 24.3706 63.7202 24.5744C63.5167 24.7782 63.2752 24.9398 63.0094 25.05C62.7437 25.1603 62.4588 25.2169 62.1712 25.2168C61.8835 25.2169 61.5987 25.1603 61.3329 25.05C61.0671 24.9398 60.8256 24.7782 60.6222 24.5744C60.4187 24.3706 60.2573 24.1287 60.1472 23.8624C60.0371 23.5961 59.9805 23.3107 59.9805 23.0225C59.9805 22.7342 60.0371 22.4488 60.1472 22.1825C60.2573 21.9162 60.4187 21.6743 60.6222 21.4705C60.8256 21.2668 61.0671 21.1051 61.3329 20.9949C61.5987 20.8847 61.8835 20.828 62.1712 20.8281Z" fill="#79FE9D"/>
<path d="M96.1378 9.75488C98.0149 9.75488 99.8152 10.502 101.143 11.832C102.47 13.1619 103.216 14.9658 103.216 16.8467C103.216 17.7781 103.033 18.7004 102.677 19.5609C102.321 20.4214 101.8 21.2032 101.143 21.8618C100.486 22.5203 99.7052 23.0427 98.8465 23.399C97.9877 23.7554 97.0673 23.9387 96.1378 23.9386C94.2608 23.9386 92.4607 23.1914 91.1334 21.8615C89.8062 20.5315 89.0605 18.7276 89.0605 16.8467C89.0605 14.9659 89.8062 13.162 91.1334 11.832C92.4607 10.5021 94.2608 9.75488 96.1378 9.75488Z" fill="#FCF8F3"/>
<path d="M80.8397 0C82.1308 0 83.369 0.513924 84.2819 1.42872C85.1948 2.34351 85.7077 3.58423 85.7077 4.87794C85.7077 6.17165 85.1948 7.41238 84.2819 8.32717C83.369 9.24196 82.1308 9.75588 80.8397 9.75588C80.2005 9.75588 79.5675 9.62971 78.977 9.38456C78.3864 9.13941 77.8499 8.78009 77.3979 8.32712C76.9459 7.87415 76.5874 7.3364 76.3429 6.74459C76.0984 6.15277 75.9725 5.51848 75.9727 4.87794C75.9725 4.2374 76.0984 3.60311 76.3429 3.0113C76.5874 2.41948 76.9459 1.88174 77.3979 1.42877C77.8499 0.975798 78.3864 0.616479 78.977 0.371329C79.5675 0.126179 80.2005 -9.74775e-09 80.8397 0Z" fill="#F9A86F"/>
<path d="M16.0781 83.9736C16.1339 85.0252 16.4362 86.0489 16.9607 86.9614C17.4852 87.874 18.217 88.6498 19.0967 89.2259C20.1666 89.9263 21.4168 90.2993 22.6948 90.2993C23.9727 90.2993 25.223 89.9263 26.2929 89.2259C27.1729 88.65 27.9049 87.8743 28.4295 86.9617C28.9542 86.0491 29.2566 85.0253 29.3123 83.9736H16.0781Z" fill="#1D43C6"/>
<path d="M72.6979 79.5938H0V84.0225H72.6979V79.5938Z" fill="#79FE9D"/>
<path d="M22.4578 74.0112C22.694 72.5534 21.706 71.1797 20.2512 70.9431C18.7963 70.7064 17.4255 71.6964 17.1893 73.1543C16.9532 74.6121 17.9411 75.9858 19.396 76.2224C20.8508 76.4591 22.2217 75.4691 22.4578 74.0112Z" stroke="#F9EAD4" stroke-width="4"/>
<path d="M4.20117 72.6299C4.26457 73.7897 4.6002 74.9181 5.18078 75.9235C5.76136 76.9288 6.57049 77.7827 7.54241 78.4157C8.92359 79.3132 10.5666 79.7174 12.2055 79.563C13.8445 79.4086 15.3835 78.7046 16.5735 77.5648C17.9318 76.2708 18.7448 74.5052 18.8457 72.6299H4.20117Z" fill="#F9EAD4"/>
<path d="M46.6278 74.0122C46.8639 72.5544 45.876 71.1807 44.4211 70.944C42.9662 70.7074 41.5954 71.6974 41.3592 73.1552C41.1231 74.6131 42.111 75.9868 43.5659 76.2234C45.0208 76.46 46.3916 75.4701 46.6278 74.0122Z" stroke="#F9EAD4" stroke-width="4"/>
<path d="M28.3691 72.6299C28.4701 74.5075 29.2855 76.275 30.6476 77.5684C32.0098 78.8618 33.8149 79.5826 35.6914 79.5826C37.5679 79.5826 39.373 78.8618 40.7352 77.5684C42.0973 76.275 42.9127 74.5075 43.0137 72.6299H28.3691Z" fill="#F9EAD4"/>
<path d="M67.2293 74.0122C67.4655 72.5543 66.4775 71.1807 65.0227 70.944C63.5678 70.7074 62.197 71.6974 61.9608 73.1552C61.7246 74.6131 62.7126 75.9868 64.1675 76.2234C65.6223 76.46 66.9932 75.4701 67.2293 74.0122Z" stroke="#F9EAD4" stroke-width="4"/>
<path d="M48.9688 72.6299C49.0697 74.5075 49.8851 76.275 51.2473 77.5684C52.6094 78.8618 54.4145 79.5826 56.291 79.5826C58.1675 79.5826 59.9727 78.8618 61.3348 77.5684C62.6969 76.275 63.5124 74.5075 63.6133 72.6299H48.9688Z" fill="#F9EAD4"/>
</svg>
