<svg width="65" height="61" viewBox="0 0 65 61" fill="none" xmlns="http://www.w3.org/2000/svg">
<g clip-path="url(#clip0_22_1306)">
<path d="M64.51 35.3888C64.51 49.4367 53.291 60.8234 39.4512 60.8234V9.9519C53.291 9.9519 64.51 21.3386 64.51 35.3888Z" fill="#F9EAD4"/>
<path d="M40.296 4.9749C40.2989 6.2916 39.7842 7.55556 38.865 8.48888C37.9458 9.42221 36.6974 9.94849 35.3942 9.95201C34.7488 9.95056 34.11 9.82067 33.5142 9.56976C32.9185 9.31885 32.3774 8.95184 31.922 8.48967C31.4667 8.0275 31.1058 7.47923 30.8602 6.87617C30.6145 6.2731 30.4888 5.62705 30.4902 4.9749C30.4879 3.65821 31.0032 2.39447 31.9228 1.46156C32.8424 0.528646 34.0911 0.00293302 35.3942 0C36.0394 0.00145213 36.6779 0.131283 37.2734 0.382082C37.8689 0.63288 38.4097 0.99973 38.8649 1.46169C39.32 1.92366 39.6807 2.47168 39.9262 3.07448C40.1718 3.67727 40.2974 4.32304 40.296 4.9749Z" fill="#1D43C6"/>
<path d="M42.3522 17.9358C45.075 19.8803 46.9257 22.8343 47.5005 26.1527C48.0752 29.4712 47.3273 32.8847 45.42 35.6479C44.4801 37.0149 43.2818 38.1805 41.8943 39.0777C40.5067 39.9748 38.9572 40.5857 37.3349 40.8753C35.7127 41.1648 34.0499 41.1272 32.4421 40.7647C30.8343 40.4022 29.3133 39.7219 27.9668 38.763L42.3501 17.9291L42.3522 17.9358Z" fill="#79FE9D"/>
<path d="M25.5409 49.9107C25.1749 40.0406 17.2492 46.262 8.69247 33.2081C7.6845 31.6583 6.3435 30.9033 4.83594 30.7528L5.0419 49.7933L25.5409 49.9107Z" fill="#F9A86F"/>
<path d="M25.5409 49.9107C25.1749 40.0406 17.2492 46.262 8.69247 33.2081C7.6845 31.6583 6.3435 30.9033 4.83594 30.7528L5.0419 49.7933L25.5409 49.9107Z" stroke="#030504" stroke-width="3.1" stroke-miterlimit="10"/>
<path d="M3.16414 18.5689H0V35.0811H3.16414V18.5689Z" fill="#1D43C6"/>
</g>
<defs>
<clipPath id="clip0_22_1306">
<rect width="64.5098" height="60.8235" fill="white"/>
</clipPath>
</defs>
</svg>
