<svg width="57" height="68" viewBox="0 0 57 68" fill="none" xmlns="http://www.w3.org/2000/svg">
<path d="M38.6094 9.0174L41.78 13.9956L44.9507 18.9737L48.1213 13.9956L51.2919 9.0174H38.6094Z" fill="#030504"/>
<path d="M56.8558 4.53906H0.546875V9.98706H56.8558V4.53906Z" fill="#030504"/>
<path d="M38.6094 4.47833L41.78 9.4565L44.9507 14.4347L48.1213 9.4565L51.2919 4.47833H38.6094Z" fill="#1D43C6"/>
<path d="M56.8558 0H0.546875V5.44799H56.8558V0Z" fill="#1D43C6"/>
<path d="M22.5703 32.0732L25.7409 37.0514L28.9116 42.0296L32.0822 37.0514L35.2529 32.0732H22.5703Z" fill="#030504"/>
<path d="M56.6742 27.96H0.365234V33.408H56.6742V27.96Z" fill="#030504"/>
<path d="M22.0234 28.8047L25.1941 33.7829L28.3647 38.761L31.5354 33.7829L34.706 28.8047H22.0234Z" fill="#1D43C6"/>
<path d="M56.6742 23.4219H0.365234V28.8699H56.6742V23.4219Z" fill="#1D43C6"/>
<path d="M38.0625 57.494L41.2331 62.4721L44.4038 67.4503L47.5744 62.4721L50.7451 57.494H38.0625Z" fill="#030504"/>
<path d="M56.309 53.0156H0V58.4636H56.309V53.0156Z" fill="#030504"/>
<path d="M38.0625 52.9549L41.2331 57.9331L44.4038 62.9112L47.5744 57.9331L50.7451 52.9549H38.0625Z" fill="#1D43C6"/>
<path d="M56.309 48.4766H0V53.9246H56.309V48.4766Z" fill="#1D43C6"/>
</svg>
