<svg width="80" height="109" viewBox="0 0 80 109" fill="none" xmlns="http://www.w3.org/2000/svg">
<g clip-path="url(#clip0_22_1328)">
<path d="M61.2218 47.2833C60.2864 59.2345 55.8717 64.902 43.1185 70.5364C27.4658 77.5308 16.9294 86.724 6.79984 102.286C5.06138 104.951 2.73296 107.167 0 108.759V47.2975L61.2218 47.2833Z" fill="#C3D5E1"/>
<path d="M0 28.66L26.6849 19.5616L35.0607 44.7765C34.5229 45.0134 33.9664 45.2267 33.4192 45.4162C28.6524 47.0594 23.5238 47.3009 18.6271 46.1128C13.9316 44.9659 9.64955 42.5025 6.27132 39.0047C3.43731 36.0783 1.29338 32.5402 0 28.6552" fill="#F9EAD4"/>
<path d="M62.0769 16.7136L70.6632 31.7876L79.2542 46.8569H62.0769H44.9043L53.4906 31.7876L62.0769 16.7136Z" fill="#F9A86F"/>
<path d="M58.2807 1.09457C56.9046 1.89968 55.795 3.10021 55.0922 4.54429C54.3895 5.98837 54.125 7.61116 54.3324 9.2075C54.5398 10.8038 55.2097 12.302 56.2574 13.5126C57.3051 14.7232 58.6834 15.5918 60.2183 16.0086C61.7531 16.4254 63.3755 16.3717 64.8802 15.8543C66.3849 15.3368 67.7044 14.3788 68.6718 13.1015C69.6393 11.8242 70.2112 10.285 70.3153 8.67833C70.4194 7.07167 70.0511 5.46978 69.2567 4.07527C68.7293 3.14922 68.0269 2.3375 67.1898 1.68651C66.3527 1.03553 65.3973 0.558044 64.378 0.281256C63.3588 0.00446763 62.2957 -0.0661991 61.2495 0.0733568C60.2033 0.212913 59.1945 0.559924 58.2807 1.09457Z" fill="#79FE9D"/>
</g>
<defs>
<clipPath id="clip0_22_1328">
<rect width="79.2549" height="108.745" fill="white"/>
</clipPath>
</defs>
</svg>
