<svg width="20" height="66" viewBox="0 0 20 66" fill="none" xmlns="http://www.w3.org/2000/svg">
<path d="M19.2305 55.5795H5.64989C5.34888 55.0097 5.19336 54.3749 5.19336 53.7301C5.19336 51.2111 6.83888 48.3621 9.70851 45.923C12.5079 43.5389 16.0648 41.9545 19.2305 41.6846V55.5845V55.5795Z" fill="#030504"/>
<path d="M0.373047 48.9523H13.9536C14.2546 49.5221 14.4101 50.1568 14.4101 50.8016C14.4101 53.3207 12.7646 56.1696 9.895 58.6087C7.09561 60.9928 3.53867 62.5772 0.373047 62.8471V48.9473V48.9523Z" fill="#030504"/>
<path d="M19.23 58.218H5.38353C5.0775 57.6432 4.91697 56.9985 4.92199 56.3487C4.92199 53.7996 6.5976 50.9207 9.52242 48.4466C12.377 46.0325 16.0042 44.4331 19.23 44.1582V58.218Z" fill="#F9A86F"/>
<path d="M0 51.5107H13.8465C14.1525 52.0855 14.313 52.7303 14.308 53.38C14.308 55.9291 12.6324 58.8081 9.70758 61.2822C6.853 63.6963 3.22582 65.2957 0 65.5706V51.5107Z" fill="#F9A86F"/>
<path d="M19.2305 34.3373H5.64989C5.34888 33.7675 5.19336 33.1327 5.19336 32.488C5.19336 29.9689 6.83888 27.1199 9.70851 24.6808C12.5079 22.2967 16.0648 20.7123 19.2305 20.4424V34.3423V34.3373Z" fill="#030504"/>
<path d="M0.373047 27.7101H13.9536C14.2546 28.2799 14.4101 28.9146 14.4101 29.5594C14.4101 32.0785 12.7646 34.9274 9.895 37.3665C7.09561 39.7507 3.53867 41.3351 0.373047 41.605V27.7051V27.7101Z" fill="#030504"/>
<path d="M19.23 36.9758H5.38353C5.0775 36.4011 4.91697 35.7563 4.92199 35.1065C4.92199 32.5575 6.5976 29.6785 9.52242 27.2044C12.377 24.7903 16.0042 23.1909 19.23 22.916V36.9758Z" fill="#F9A86F"/>
<path d="M0 30.2686H13.8465C14.1525 30.8433 14.313 31.4881 14.308 32.1379C14.308 34.6869 12.6324 37.5659 9.70758 40.04C6.853 42.4541 3.22582 44.0535 0 44.3284V30.2686Z" fill="#F9A86F"/>
<path d="M19.2305 13.8949H5.64989C5.34888 13.3251 5.19336 12.6903 5.19336 12.0456C5.19336 9.5265 6.83888 6.67755 9.70851 4.23845C12.5079 1.85432 16.0648 0.269901 19.2305 0V13.8999V13.8949Z" fill="#030504"/>
<path d="M0.373047 7.26672H13.9536C14.2546 7.83651 14.4101 8.47127 14.4101 9.11603C14.4101 11.6351 12.7646 14.4841 9.895 16.9232C7.09561 19.3073 3.53867 20.8917 0.373047 21.1616V7.26172V7.26672Z" fill="#030504"/>
<path d="M19.23 16.5344H5.38353C5.0775 15.9596 4.91697 15.3149 4.92199 14.6651C4.92199 12.1161 6.5976 9.23711 9.52242 6.76302C12.377 4.34891 16.0042 2.74951 19.23 2.47461V16.5344Z" fill="#F9A86F"/>
<path d="M0 9.82617H13.8465C14.1525 10.401 14.313 11.0457 14.308 11.6955C14.308 14.2445 12.6324 17.1235 9.70758 19.5976C6.853 22.0117 3.22582 23.6111 0 23.886V9.82617Z" fill="#F9A86F"/>
</svg>
