<svg width="91" height="72" viewBox="0 0 91 72" fill="none" xmlns="http://www.w3.org/2000/svg">
<path d="M88.3814 59.0569C87.6349 50.8205 85.2183 42.8154 81.2747 35.5159C75.1863 25.7579 66.9901 17.4418 57.2691 11.1594C45.4644 4.16451 31.7093 1.04612 17.9889 2.25426L17.2725 69.7554L88.6573 69.3433C88.7545 65.9121 88.6624 62.4782 88.3814 59.0569Z" stroke="#030504" stroke-width="4" stroke-miterlimit="10"/>
<path d="M41.9287 35.1787H69.65C69.65 38.8005 68.1898 42.2739 65.5907 44.8349C62.9915 47.3958 59.4663 48.8346 55.7905 48.8346C52.1147 48.8346 48.5894 47.3958 45.9903 44.8349C43.3911 42.2739 41.9309 38.8005 41.9309 35.1787H41.9287Z" fill="#F9A86F" stroke="#F9A86F" stroke-width="1.5" stroke-miterlimit="10"/>
<path d="M63.5505 52.4102L73.7855 69.7557H53.3311L63.5505 52.4102Z" fill="#79FE9D"/>
<path d="M49.3183 52.4102L59.5534 69.7557H39.0967L49.3183 52.4102Z" fill="#79FE9D"/>
<path d="M0.74102 56.3892L39.218 56.8035C38.9132 53.754 37.3668 51.0465 34.254 49.0077C7.87663 31.717 20.4456 15.6846 0.50293 14.959L0.74102 56.3892Z" fill="#1D43C6" stroke="#030504" stroke-miterlimit="10"/>
</svg>
