<svg width="91" height="94" viewBox="0 0 91 94" fill="none" xmlns="http://www.w3.org/2000/svg">
<g clip-path="url(#clip0_22_1308)">
<path d="M20.3711 21.4288C34.222 22.5083 40.5377 27.892 46.8534 42.8325C54.6424 61.0413 64.8058 73.3956 82.46 85.4353C85.7981 87.7918 88.2972 90.6237 89.9418 93.7703H20.3711V21.4288Z" stroke="#C3D5E1" stroke-width="4" stroke-miterlimit="10"/>
<path d="M43.8327 70.4121L53.7691 88.0697H33.8984L43.8327 70.4121Z" fill="#1D43C6"/>
<path d="M57.6611 70.4122L67.5953 88.0698H47.7246L57.6611 70.4122Z" fill="#1D43C6"/>
<path d="M32.4246 -1.52588e-05C25.9216 0.355506 19.7985 3.27203 15.3172 8.14851C10.8359 13.025 8.33789 19.4898 8.33789 26.2107C8.33789 32.9317 10.8359 39.3965 15.3172 44.273C19.7985 49.1495 25.9216 52.066 32.4246 52.4215V-1.52588e-05Z" fill="#F9A86F"/>
<path d="M32.4242 88.1271V52.9705H3.49901e-05V52.9888C-0.00942452 59.7736 1.89933 66.4139 5.49234 72.0957C8.99454 77.6352 13.9278 82.0536 19.735 84.8519C21.6968 85.7984 23.7415 86.5498 25.8415 87.0959C27.9988 87.6558 30.2031 88.0011 32.4242 88.1271Z" fill="#FCF8F3"/>
</g>
<defs>
<clipPath id="clip0_22_1308">
<rect width="90.3137" height="94" fill="white"/>
</clipPath>
</defs>
</svg>
