<svg width="58" height="91" viewBox="0 0 58 91" fill="none" xmlns="http://www.w3.org/2000/svg">
<path d="M25.1842 13.2866C27.9357 13.2869 30.6253 14.0561 32.9131 15.4969C35.2008 16.9377 36.9839 18.9855 38.0369 21.3813C39.0899 23.7771 39.3655 26.4134 38.829 28.9569C38.2924 31.5004 36.9678 33.8368 35.0225 35.6708C33.0772 37.5048 30.5986 38.754 27.9001 39.2605C25.2017 39.767 22.4044 39.508 19.8621 38.5163C17.3197 37.5246 15.1465 35.8446 13.617 33.6889C12.0876 31.5332 11.2707 28.9985 11.2695 26.4052C11.2695 24.6831 11.6295 22.9778 12.3288 21.3867C13.0281 19.7957 14.053 18.35 15.3451 17.1323C16.6373 15.9146 18.1712 14.9488 19.8594 14.2898C21.5476 13.6309 23.357 13.2919 25.1842 13.292" fill="#C3D5E1"/>
<path d="M27.8273 3.04004C30.5795 3.03977 33.2699 3.8087 35.5583 5.24958C37.8468 6.69046 39.6305 8.73858 40.6839 11.1349C41.7373 13.5313 42.0131 16.1682 41.4763 18.7123C40.9396 21.2563 39.6144 23.5933 37.6685 25.4275C35.7225 27.2617 33.2432 28.5109 30.5439 29.0171C27.8447 29.5232 25.0468 29.2636 22.5042 28.271C19.9615 27.2784 17.7882 25.5975 16.2592 23.4408C14.7302 21.2841 13.9141 18.7485 13.9141 16.1546C13.9139 14.4324 14.2736 12.7271 14.9727 11.136C15.6719 9.54485 16.6967 8.0991 17.9887 6.88128C19.2806 5.66347 20.8145 4.69743 22.5026 4.03835C24.1908 3.37926 26.0001 3.04004 27.8273 3.04004Z" fill="#C3D5E1"/>
<path d="M43.2233 10.2358C45.975 10.2361 48.6649 11.0054 50.9527 12.4465C53.2406 13.8875 55.0236 15.9356 56.0765 18.3318C57.1293 20.7279 57.4046 23.3645 56.8676 25.9081C56.3306 28.4518 55.0054 30.7882 53.0595 32.622C51.1137 34.4557 48.6346 35.7045 45.9357 36.2104C43.2368 36.7162 40.4394 36.4565 37.8972 35.4639C35.3549 34.4714 33.182 32.7906 31.6533 30.6342C30.1246 28.4778 29.3086 25.9425 29.3086 23.349C29.3086 19.8712 30.7745 16.5358 33.3837 14.0766C35.9929 11.6174 39.5318 10.2358 43.2219 10.2358" fill="#C3D5E1"/>
<path d="M39.7082 0C42.46 0 45.15 0.769078 47.438 2.20997C49.726 3.65087 51.5093 5.69887 52.5624 8.095C53.6155 10.4911 53.891 13.1277 53.3541 15.6715C52.8173 18.2152 51.4922 20.5517 49.5464 22.3856C47.6006 24.2195 45.1215 25.4685 42.4225 25.9744C39.7236 26.4804 36.9261 26.2207 34.3838 25.2282C31.8415 24.2357 29.6685 22.555 28.1397 20.3985C26.6109 18.2421 25.7949 15.7067 25.7949 13.1132C25.7949 9.63536 27.2608 6.29997 29.87 3.84077C32.4793 1.38156 36.0182 0 39.7082 0Z" fill="#C3D5E1"/>
<path d="M13.9133 3.64648C16.6651 3.64648 19.3551 4.41556 21.6431 5.85646C23.9311 7.29736 25.7144 9.34536 26.7675 11.7415C27.8205 14.1376 28.0961 16.7742 27.5592 19.3179C27.0224 21.8617 25.6973 24.1982 23.7515 26.0321C21.8056 27.866 19.3265 29.1149 16.6276 29.6209C13.9287 30.1269 11.1312 29.8672 8.5889 28.8747C6.04658 27.8822 3.87362 26.2014 2.34481 24.045C0.816001 21.8885 0 19.3532 0 16.7597C0 13.2818 1.46586 9.94646 4.0751 7.48725C6.68435 5.02805 10.2232 3.64648 13.9133 3.64648Z" fill="#C3D5E1"/>
<path d="M29.8774 78.7412L36.9892 90.3134H22.7656L29.8774 78.7412Z" fill="#030504"/>
<path d="M51.2127 46.0859H8.68555V76.0118H51.2127V46.0859Z" fill="#030504"/>
<path d="M25.2295 31.25L32.3413 42.8222H18.1191L25.2295 31.25Z" fill="#79FE9D"/>
<path d="M40.9126 24.4727L48.0244 36.0449H33.8008L40.9126 24.4727Z" fill="#79FE9D"/>
<path d="M26.383 44.1543H24.0957V57.7076H26.383V44.1543Z" fill="#79FE9D"/>
<path d="M42.0646 37.3789H39.7773V50.9322H42.0646V37.3789Z" fill="#79FE9D"/>
</svg>
