<svg width="85" height="72" viewBox="0 0 85 72" fill="none" xmlns="http://www.w3.org/2000/svg">
<g clip-path="url(#clip0_22_1317)">
<path d="M31.4694 54.7256C31.4694 55.7148 31.4413 56.6099 31.3805 57.4154H0.0429688V23.1537C4.17644 23.0987 8.27909 23.8771 12.1094 25.443C15.9397 27.0089 19.4204 29.3306 22.3465 32.2716C25.2726 35.2126 27.585 38.7134 29.1478 42.5679C30.7105 46.4224 31.4919 50.5529 31.446 54.7161" fill="#1D43C6"/>
<path d="M62.8631 54.7255C62.8631 55.7148 62.835 56.6098 62.7789 57.4154H31.4414V23.1536C35.5752 23.0974 39.6784 23.8749 43.5093 25.4403C47.3402 27.0058 50.8214 29.3274 53.7478 32.2687C56.6741 35.2099 58.9866 38.7112 60.5488 42.5663C62.1111 46.4215 62.8916 50.5525 62.8444 54.7161" fill="#1D43C6"/>
<path d="M79.0776 42.8025H19.1855V71.8823H79.0776V42.8025Z" fill="#C3D5E1"/>
<path d="M29.9437 53.7975H0V71.8117H29.9437V53.7975Z" fill="#0617BF"/>
<path d="M68.0109 23.1254H62.8379V42.8024H68.0109V23.1254Z" fill="#79FE9D"/>
<path d="M74.6203 23.1254H69.4473V42.8024H74.6203V23.1254Z" fill="#79FE9D"/>
<path d="M79.0729 50.613H67.9785V71.774H79.0729V50.613Z" fill="#0617BF"/>
<path d="M84.6481 7.77753C84.5826 8.61134 84.2739 9.00702 83.3805 9.39802C82.3258 9.84949 81.4377 10.6221 80.8408 11.6074C80.7215 11.7912 80.5613 11.9444 80.373 12.0549V7.77753H84.6481Z" fill="#79FE9D"/>
<path d="M84.6481 7.77753C84.5826 8.61134 84.2739 9.00702 83.3805 9.39802C82.3258 9.84949 81.4377 10.6221 80.8408 11.6074C80.7215 11.7912 80.5613 11.9444 80.373 12.0549V7.77753H84.6481Z" stroke="#030504" stroke-width="1.04" stroke-miterlimit="10"/>
<path d="M68.8725 19.0834C67.5442 18.9798 66.9127 18.4758 66.286 17.0295C65.5668 15.3195 64.3335 13.8795 62.7594 12.9123C62.4634 12.7141 62.2168 12.4497 62.0391 12.1397H68.8725V19.0834Z" fill="#79FE9D"/>
<path d="M68.8725 19.0834C67.5442 18.9798 66.9127 18.4758 66.286 17.0295C65.5668 15.3195 64.3335 13.8795 62.7594 12.9123C62.4634 12.7141 62.2168 12.4497 62.0391 12.1397H68.8725V19.0834Z" stroke="#030504" stroke-width="1.04" stroke-miterlimit="10"/>
<path d="M79.9159 0.122437C79.8738 0.645337 79.6774 0.895031 79.1114 1.1447C78.4425 1.43437 77.8813 1.92884 77.5072 2.55795C77.4286 2.67555 77.3246 2.77377 77.2031 2.8453V0.141298L79.9159 0.122437Z" fill="#79FE9D"/>
<path d="M79.9159 0.122437C79.8738 0.645337 79.6774 0.895031 79.1114 1.1447C78.4425 1.43437 77.8813 1.92884 77.5072 2.55795C77.4286 2.67555 77.3246 2.77377 77.2031 2.8453V0.141298L79.9159 0.122437Z" stroke="#030504" stroke-width="1.04" stroke-miterlimit="10"/>
</g>
<defs>
<clipPath id="clip0_22_1317">
<rect width="84.7843" height="71.8824" fill="white"/>
</clipPath>
</defs>
</svg>
