<svg width="60" height="84" viewBox="0 0 60 84" fill="none" xmlns="http://www.w3.org/2000/svg">
<path d="M-1.83588e-06 6C8.16618 6.63628 12.0385 9.66869 15.8915 18.4186C20.6716 29.1559 26.952 36.3767 37.5783 43.3343C39.3986 44.5273 40.9127 46.1249 42 48L0 48L-1.83588e-06 6Z" fill="#11133C"/>
<path d="M32 52C31.697 56.2775 30.253 58.3059 26.0864 60.3241C20.9734 62.828 17.5349 66.1177 14.2217 71.6839C13.6536 72.6374 12.8929 73.4305 12 74L12 52L32 52Z" fill="#11133C"/>
<path d="M15.1006 79C15.4803 75.5905 16.3521 73.102 17.9541 71.0527C19.7355 68.7742 22.5039 66.9246 26.8213 65.0234L26.8252 65.0225C37.4104 60.3101 44.6532 54.1427 51.5088 43.9668L52.1709 42.9697C52.9444 41.7895 53.9012 40.749 55 39.8848L55 79L15.1006 79Z" fill="#11133C" stroke="#11133C" stroke-width="2"/>
<path d="M6 0C14.1662 0.63628 18.0385 3.66869 21.8915 12.4186C26.6716 23.1559 32.952 30.3767 43.5783 37.3343C45.3986 38.5273 46.9127 40.1249 48 42L6 42L6 0Z" fill="#C3D5E1"/>
<path d="M30 52C29.697 55.8887 28.253 57.7326 24.0864 59.5674C18.9734 61.8436 15.5349 64.8343 12.2217 69.8944C11.6536 70.7613 10.8929 71.4823 10 72L10 52L30 52Z" fill="#C3D5E1"/>
<path d="M19.1006 83C19.4803 79.5905 20.3521 77.102 21.9541 75.0527C23.7355 72.7742 26.5039 70.9246 30.8213 69.0234L30.8252 69.0225C41.4104 64.3101 48.6532 58.1427 55.5088 47.9668L56.1709 46.9697C56.9444 45.7895 57.9012 44.749 59 43.8848L59 83L19.1006 83Z" fill="#C3D5E1" stroke="#030504" stroke-width="2"/>
</svg>
