<svg width="154" height="95" viewBox="0 0 154 95" fill="none" xmlns="http://www.w3.org/2000/svg">
<path d="M134.461 21.4189H90.3945V94.7521H134.461V21.4189Z" fill="#C3D5E1"/>
<path d="M148.725 5H105.797V77.2106H148.725V5Z" stroke="#C3D5E1" stroke-width="10"/>
<path d="M33.5679 75.5664L44.8331 94.754H22.3027L33.5679 75.5664Z" fill="#030504"/>
<path d="M67.3634 21.4189H0V71.0382H67.3634V21.4189Z" fill="#030504"/>
<path d="M45.9896 52.8971C49.7225 52.8971 52.7487 49.9116 52.7487 46.2288C52.7487 42.546 49.7225 39.5605 45.9896 39.5605C42.2566 39.5605 39.2305 42.546 39.2305 46.2288C39.2305 49.9116 42.2566 52.8971 45.9896 52.8971Z" fill="#79FE9D"/>
<path d="M66.47 52.8971C70.203 52.8971 73.2291 49.9116 73.2291 46.2288C73.2291 42.546 70.203 39.5605 66.47 39.5605C62.7371 39.5605 59.7109 42.546 59.7109 46.2288C59.7109 49.9116 62.7371 52.8971 66.47 52.8971Z" fill="#79FE9D"/>
<path d="M89.2298 52.8971C92.9627 52.8971 95.9889 49.9116 95.9889 46.2288C95.9889 42.546 92.9627 39.5605 89.2298 39.5605C85.4968 39.5605 82.4707 42.546 82.4707 46.2288C82.4707 49.9116 85.4968 52.8971 89.2298 52.8971Z" fill="#79FE9D"/>
</svg>
