<svg width="82" height="80" viewBox="0 0 82 80" fill="none" xmlns="http://www.w3.org/2000/svg">
<path d="M74.0462 70.6511C73.4745 64.3811 71.6167 58.2871 68.5832 52.7314C63.8976 45.2989 57.5887 38.9666 50.1063 34.1861C41.0353 28.8578 30.4638 26.4783 19.9169 27.3908L19.3691 78.7798L74.2615 78.4647C74.3365 75.8582 74.2646 73.2498 74.0462 70.6511Z" stroke="#030504" stroke-miterlimit="10"/>
<path d="M0.771063 42.6025H37.4674C37.5063 44.9784 37.0602 47.338 36.1551 49.5439C35.25 51.7499 33.904 53.7581 32.1955 55.4517C30.487 57.1452 28.4501 58.4902 26.2036 59.4082C23.957 60.3263 21.5456 60.7991 19.1099 60.7991C16.6742 60.7991 14.2628 60.3263 12.0162 59.4082C9.76962 58.4902 7.73275 57.1452 6.02424 55.4517C4.31573 53.7581 2.96973 51.7499 2.06464 49.5439C1.15954 47.338 0.713449 44.9784 0.752341 42.6025H0.771063Z" fill="#F9A86F" stroke="#F9A86F" stroke-width="1.5" stroke-miterlimit="10"/>
<path d="M8.75263 24.2992C10.7356 24.2992 12.3432 22.7311 12.3432 20.7966C12.3432 18.8621 10.7356 17.2939 8.75263 17.2939C6.76964 17.2939 5.16211 18.8621 5.16211 20.7966C5.16211 22.7311 6.76964 24.2992 8.75263 24.2992Z" fill="#030504"/>
<path d="M27.9636 24.2992C29.9466 24.2992 31.5541 22.7311 31.5541 20.7966C31.5541 18.8621 29.9466 17.2939 27.9636 17.2939C25.9806 17.2939 24.373 18.8621 24.373 20.7966C24.373 22.7311 25.9806 24.2992 27.9636 24.2992Z" fill="#030504"/>
<path d="M53.6121 64.0474C57.2252 63.8548 60.7407 62.8335 63.8731 61.0664C67.0055 59.2993 69.6664 56.8362 71.6396 53.8773C74.0455 50.2776 75.3265 46.073 75.3265 41.7756C75.3265 37.4783 74.0455 33.2737 71.6396 29.6739C69.6655 26.7159 67.0034 24.2544 63.87 22.4896C60.7366 20.7248 57.2204 19.7065 53.6074 19.5176V64.0428L53.6121 64.0474Z" fill="#F9EAD4"/>
<path d="M54.3945 54.3985C56.4346 54.2881 58.3985 53.6045 60.0495 52.4302C61.4173 51.4551 62.5299 50.1789 63.2969 48.7054C64.064 47.2318 64.4637 45.6025 64.4637 43.9499C64.4637 42.2972 64.064 40.6679 63.2969 39.1944C62.5299 37.7208 61.4173 36.4446 60.0495 35.4695C58.3981 34.2965 56.4342 33.6146 54.3945 33.5059V54.3985Z" fill="#F9A86F"/>
<path d="M71.0506 40.1042C74.6856 40.1042 77.6324 37.2296 77.6324 33.6835C77.6324 30.1374 74.6856 27.2627 71.0506 27.2627C67.4155 27.2627 64.4688 30.1374 64.4688 33.6835C64.4688 37.2296 67.4155 40.1042 71.0506 40.1042Z" fill="#C3D5E1"/>
<path d="M53.0093 27.03C58.2137 27.03 62.4327 22.9143 62.4327 17.8373C62.4327 12.7603 58.2137 8.64453 53.0093 8.64453C47.8049 8.64453 43.5859 12.7603 43.5859 17.8373C43.5859 22.9143 47.8049 27.03 53.0093 27.03Z" fill="#C3D5E1"/>
<path d="M53.0081 49.494C55.9477 49.494 58.3307 47.1693 58.3307 44.3017C58.3307 41.4341 55.9477 39.1094 53.0081 39.1094C50.0686 39.1094 47.6855 41.4341 47.6855 44.3017C47.6855 47.1693 50.0686 49.494 53.0081 49.494Z" fill="#C3D5E1"/>
<path d="M76.3734 10.3847C79.313 10.3847 81.696 8.05997 81.696 5.19233C81.696 2.32468 79.313 0 76.3734 0C73.4338 0 71.0508 2.32468 71.0508 5.19233C71.0508 8.05997 73.4338 10.3847 76.3734 10.3847Z" fill="#C3D5E1"/>
</svg>
