<svg width="116" height="116" viewBox="0 0 116 116" fill="none" xmlns="http://www.w3.org/2000/svg">
<path d="M25.3633 26.0508C42.6063 27.3631 50.4687 33.9079 58.3311 52.0709C68.0275 74.2071 80.6828 89.2261 102.658 103.863C106.813 106.727 109.924 110.17 111.969 113.995H25.3633V26.0508Z" stroke="#030504" stroke-width="4" stroke-miterlimit="10"/>
<path d="M54.5691 85.5879L66.9362 107.046H42.1992L54.5691 85.5879Z" fill="#1D43C6"/>
<path d="M71.7839 85.5879L84.151 107.046H59.4141L71.7839 85.5879Z" fill="#1D43C6"/>
<path d="M40.3683 0C32.2727 0.432203 24.6501 3.97781 19.0714 9.90608C13.4926 15.8343 10.3828 23.6936 10.3828 31.8641C10.3828 40.0346 13.4926 47.8939 19.0714 53.8221C24.6501 59.7504 32.2727 63.2959 40.3683 63.7281V0Z" fill="#F9A86F"/>
<path d="M40.3676 107.135V64.3955H0V64.4178C0.0128178 71.1998 1.6252 77.8817 4.70414 83.9122C7.78309 89.9427 12.2404 95.1491 17.7084 99.102C19.8661 100.663 22.1624 102.019 24.5679 103.153C27.0113 104.304 29.5577 105.217 32.1727 105.881C34.858 106.564 37.6023 106.983 40.3676 107.135Z" fill="#79FE9D"/>
</svg>
