<svg width="68" height="80" viewBox="0 0 68 80" fill="none" xmlns="http://www.w3.org/2000/svg">
<path d="M68.001 32C67.3647 40.1662 64.3323 44.0385 55.5823 47.8915C44.8451 52.6716 37.6242 58.952 30.6666 69.5783C29.4736 71.3986 27.876 72.9127 26.001 74V32H68.001Z" fill="#EB1D4B"/>
<path d="M4.50391 79.5C4.56368 69.7296 8.50674 60.357 15.5137 53.3828L15.5146 53.3828C19.0818 49.8926 23.3225 47.132 27.9902 45.2637C32.6581 43.3954 37.6596 42.4567 42.7021 42.502L42.707 42.502C43.7244 42.502 44.6442 42.528 45.501 42.5811L45.501 79.5L4.50391 79.5Z" fill="#1D43C6" stroke="#1D43C6"/>
<path d="M32.8804 12.3746C35.4188 14.913 35.4188 19.0286 32.8804 21.567C30.342 24.1054 26.2264 24.1054 23.688 21.567C21.1496 19.0286 21.1496 14.913 23.688 12.3746C26.2264 9.83618 30.342 9.83618 32.8804 12.3746Z" fill="#030504" stroke="#11133C"/>
<path d="M54.4473 28.2843L28.2843 54.4472L0.707167 26.8701L26.8701 0.707107L54.4473 28.2843Z" fill="#030504" stroke="#1D43C6"/>
</svg>
