<svg width="130" height="85" viewBox="0 0 130 85" fill="none" xmlns="http://www.w3.org/2000/svg">
<path d="M0.319987 48.7353L0 20.0488C2.35214 20.2758 4.43886 21.4273 6.01088 23.7496C19.3436 43.4157 31.6965 34.0436 32.2645 48.913L0.319987 48.7353Z" fill="#1D43C6"/>
<path d="M34.9403 0C37.2565 0 39.4778 0.902968 41.1156 2.51026C42.7534 4.11756 43.6735 6.29751 43.6735 8.57057C43.6735 10.8436 42.7534 13.0236 41.1156 14.6309C39.4778 16.2382 37.2565 17.1411 34.9403 17.1411C32.6241 17.1411 30.4027 16.2382 28.7649 14.6309C27.1271 13.0236 26.207 10.8436 26.207 8.57057C26.207 6.29751 27.1271 4.11756 28.7649 2.51026C30.4027 0.902968 32.6241 0 34.9403 0Z" fill="#F9A86F"/>
<path d="M63.7517 31.3311H44.4453V65.3224H63.7517V31.3311Z" fill="#FCF8F3"/>
<path d="M95.5677 16.5537H68.875V65.3724H95.5677V16.5537Z" fill="#C3D5E1"/>
<path d="M103.857 46.627H89.2793V65.3851H103.857V46.627Z" fill="#79FE9D"/>
<path d="M96.7559 71.1337C97.3239 56.2643 109.677 65.6364 123.009 45.9703C124.581 43.6492 126.668 42.4965 129.02 42.2695L128.7 70.956L96.7559 71.1337Z" fill="#1D43C6"/>
<path d="M32.6952 73.083L36.1369 78.9339L39.5792 84.7847H32.6952H25.8105L29.2529 78.9339L32.6952 73.083Z" fill="#79FE9D"/>
<path d="M24.4914 67.9668L27.9331 73.8176L31.3755 79.6685H24.4914H17.6074L21.0491 73.8176L24.4914 67.9668Z" fill="#79FE9D"/>
<path d="M48.8215 58.4307L52.2632 64.2815L55.7055 70.1324H48.8215H41.9375L45.3792 64.2815L48.8215 58.4307Z" fill="#79FE9D"/>
<path d="M44.4679 46.5254H25.1621V65.3456H44.4679V46.5254Z" fill="white"/>
<path d="M86.1797 7.75977V20.2295H98.2752V20.2234C98.278 18.6088 97.9581 17.0093 97.3339 15.5155C97.0313 14.7933 96.6605 14.1006 96.2263 13.4463C94.9193 11.4822 93.0796 9.91516 90.9143 8.92154C90.1822 8.58562 89.4191 8.31908 88.6354 8.12552C87.8306 7.92674 87.0083 7.80446 86.1797 7.76037" fill="#79FE9D"/>
<path d="M75.7708 25.7476V32.6652H82.483V32.6616C82.4851 31.3261 82.0901 30.019 81.3463 28.9006C80.621 27.8106 79.6 26.9409 78.3982 26.3896C77.992 26.2034 77.5686 26.0555 77.1338 25.9478C76.6867 25.8374 76.2299 25.7695 75.7695 25.7451" fill="#0617BF"/>
</svg>
