<svg width="48" height="64" viewBox="0 0 48 64" fill="none" xmlns="http://www.w3.org/2000/svg">
<path d="M-1.57361e-06 0C6.99959 0.545379 10.3187 3.14458 13.6213 10.6445C17.7185 19.8479 23.1017 26.0372 32.21 32.0009C33.7703 33.0234 35.0681 34.3928 36 36L0 36L-1.57361e-06 0Z" fill="#C3D5E1"/>
<path d="M28 40C27.7273 43.4998 26.4277 45.1593 22.6777 46.8106C18.0761 48.8592 14.9814 51.5508 11.9996 56.105C11.4883 56.8851 10.8036 57.534 10 58L10 40L28 40Z" fill="#C3D5E1"/>
<path d="M13.1025 63C13.4353 60.176 14.1749 58.1165 15.502 56.4189C17.0074 54.4933 19.3553 52.92 23.0479 51.2939L23.0508 51.292C32.4435 47.1105 38.7777 41.5936 44.8379 32.3379C45.4375 31.4231 46.1671 30.6077 47 29.915L47 63L13.1025 63Z" fill="#C3D5E1" stroke="#11133C" stroke-width="2"/>
</svg>
