<svg width="73" height="97" viewBox="0 0 73 97" fill="none" xmlns="http://www.w3.org/2000/svg">
<path d="M1.20992 34.671L0.506348 96.2311C3.20278 95.9853 5.80146 95.1391 8.09624 93.7603C10.391 92.3816 12.3181 90.5083 13.7235 88.2896C43.0295 46.0903 70.2225 66.1778 71.4684 34.2559L1.20992 34.671Z" fill="#F9EAD4" stroke="white" stroke-miterlimit="10"/>
<path d="M60.1487 23.5651C66.9399 23.5651 72.4453 18.2899 72.4453 11.7826C72.4453 5.27523 66.9399 0 60.1487 0C53.3574 0 47.8521 5.27523 47.8521 11.7826C47.8521 18.2899 53.3574 23.5651 60.1487 23.5651Z" fill="#F9A86F"/>
<path d="M22.877 7.57812L57.5453 23.7726C56.4355 25.9539 54.8883 27.9044 52.9919 29.5127C51.0955 31.121 48.8874 32.3555 46.493 33.146C44.0987 33.9364 41.5658 34.2672 39.0381 34.1195C36.5103 33.9718 34.0367 33.3486 31.7603 32.2852C29.4839 31.2219 27.449 29.7393 25.7706 27.9222C24.0922 26.105 22.8039 23.989 21.979 21.6947C21.154 19.4004 20.8078 16.973 20.962 14.5509C21.1161 12.1288 21.7672 9.75935 22.877 7.57812Z" fill="#79FE9D" stroke="#F9A86F" stroke-width="1.5" stroke-miterlimit="10"/>
</svg>
