<svg width="89" height="73" viewBox="0 0 89 73" fill="none" xmlns="http://www.w3.org/2000/svg">
<path d="M87.2696 6.42773H6.75586V56.4755H87.2696V6.42773Z" fill="#F9EAD4"/>
<path d="M47.3622 66.2986L43.4961 72.7115H51.232H58.9678L55.0981 66.2986L51.232 59.8857L47.3622 66.2986Z" fill="#F9EAD4"/>
<path d="M81.5138 1H1V51.0478H81.5138V1Z" stroke="#11133C" stroke-width="2" stroke-miterlimit="10"/>
<path d="M87.2696 6.42773H6.75586V56.4755H87.2696V6.42773Z" fill="#0617BF"/>
<path d="M87.2696 6.42773H6.75586V56.4755H87.2696V6.42773Z" stroke="#C3D5E1" stroke-width="2" stroke-miterlimit="10"/>
<path d="M47.3622 66.2986L43.4961 72.7115H51.232H58.9678L55.0981 66.2986L51.232 59.8857L47.3622 66.2986Z" fill="#030504"/>
<path d="M81.5138 1H1V51.0478H81.5138V1Z" stroke="#79FE9D" stroke-width="2" stroke-miterlimit="10"/>
<path d="M66.9078 32.4315V45.5412H54.1374C54.1124 45.2675 54.1016 44.9905 54.1016 44.7203C54.0935 42.3766 54.7785 40.0786 56.0776 38.092C57.3274 36.1888 59.1118 34.661 61.2265 33.6833C62.9979 32.8626 64.9398 32.4348 66.9078 32.4315Z" fill="#C3D5E1"/>
<path d="M66.9078 32.4315V45.5412H54.1374C54.1124 45.2675 54.1016 44.9905 54.1016 44.7203C54.0935 42.3766 54.7785 40.0786 56.0776 38.092C57.3274 36.1888 59.1118 34.661 61.2265 33.6833C62.9979 32.8626 64.9398 32.4348 66.9078 32.4315V32.4315Z" stroke="#0617BF" stroke-width="2" stroke-miterlimit="10"/>
<path d="M69.9361 25.3724C69.9368 26.4826 69.5935 27.5681 68.9496 28.4915C68.3057 29.415 67.3902 30.1349 66.3188 30.5602C65.2475 30.9855 64.0685 31.0972 62.9308 30.881C61.7932 30.6648 60.748 30.1305 59.9277 29.3457C59.1073 28.5609 58.5485 27.5609 58.3219 26.4721C58.0954 25.3832 58.2113 24.2546 58.655 23.2288C59.0987 22.203 59.8502 21.3263 60.8145 20.7094C61.7788 20.0926 62.9127 19.7633 64.0725 19.7633C65.627 19.7633 67.1179 20.3542 68.2174 21.406C69.317 22.4578 69.9351 23.8845 69.9361 25.3724Z" fill="#EEF5F9"/>
<path d="M69.9361 25.3724C69.9368 26.4826 69.5935 27.5681 68.9496 28.4915C68.3057 29.415 67.3902 30.1349 66.3188 30.5602C65.2475 30.9855 64.0685 31.0972 62.9308 30.881C61.7932 30.6648 60.748 30.1305 59.9277 29.3457C59.1073 28.5609 58.5485 27.5609 58.3219 26.4721C58.0954 25.3832 58.2113 24.2546 58.655 23.2288C59.0987 22.203 59.8502 21.3263 60.8145 20.7094C61.7788 20.0926 62.9127 19.7633 64.0725 19.7633C65.627 19.7633 67.1179 20.3542 68.2174 21.406C69.317 22.4578 69.9351 23.8845 69.9361 25.3724Z" stroke="#C3D5E1" stroke-width="2" stroke-miterlimit="10"/>
<path d="M17.6719 41.5945C18.0292 41.3311 24.3608 33.1431 24.3608 33.1431L32.822 37.3705L43.9524 19.7633" stroke="#79FE9D" stroke-width="2" stroke-miterlimit="10"/>
<path d="M43.9389 19.7599L42.4668 18.9903L43.8996 18.1558L45.3325 17.3213L45.3718 18.9288L45.4075 20.5329L43.9389 19.7599Z" fill="#79FE9D"/>
</svg>
