<svg width="27" height="61" viewBox="0 0 27 61" fill="none" xmlns="http://www.w3.org/2000/svg">
<path d="M13.4507 25.5205V39.3654H0.49226C0.467175 39.0755 0.457138 38.7856 0.457138 38.5007C0.447104 36.0266 1.14444 33.5975 2.46387 31.5033C3.73313 29.494 5.54421 27.8796 7.6864 26.845C9.48243 25.9803 11.454 25.5255 13.4507 25.5255V25.5205Z" fill="#030504"/>
<path d="M13.4004 39.3605V25.5156H26.3589C26.384 25.8055 26.394 26.0954 26.394 26.3803C26.404 28.8544 25.7067 31.2835 24.3872 33.3777C23.118 35.387 21.3069 37.0014 19.1647 38.036C17.3687 38.9007 15.3971 39.3555 13.4004 39.3555V39.3605Z" fill="#030504"/>
<path d="M13.2305 35.5568V21.7119H26.1889C26.214 22.0018 26.2241 22.2917 26.2241 22.5766C26.2341 25.0507 25.5368 27.4798 24.2173 29.574C22.9481 31.5833 21.137 33.1977 18.9948 34.2323C17.1988 35.097 15.2272 35.5518 13.2305 35.5518V35.5568Z" fill="#F9A86F"/>
<path d="M13.3062 21.7119V35.5568H0.347713C0.322629 35.2669 0.312607 34.977 0.312607 34.6921C0.302573 32.218 0.999913 29.7889 2.31934 27.6947C3.5886 25.6855 5.39966 24.071 7.54185 23.0364C9.33788 22.1717 11.3095 21.7169 13.3062 21.7169V21.7119Z" fill="#F9A86F"/>
<path d="M13.1343 46.2979V60.1428H0.175853C0.150769 59.8529 0.140732 59.563 0.140732 59.2781C0.130698 56.804 0.828038 54.3749 2.14747 52.2806C3.41672 50.2714 5.2278 48.657 7.36999 47.6224C9.16602 46.7577 11.1376 46.3029 13.1343 46.3029V46.2979Z" fill="#030504"/>
<path d="M13.0898 60.1428V46.2979H26.0483C26.0734 46.5877 26.0834 46.8776 26.0834 47.1625C26.0935 49.6366 25.3961 52.0657 24.0767 54.16C22.8074 56.1692 20.9964 57.7836 18.8542 58.8182C17.0582 59.6829 15.0865 60.1378 13.0898 60.1378V60.1428Z" fill="#030504"/>
<path d="M12.9199 56.3342V42.4893H25.8784C25.9035 42.7792 25.9135 43.069 25.9135 43.3539C25.9236 45.828 25.2262 48.2571 23.9068 50.3514C22.6375 52.3606 20.8264 53.975 18.6843 55.0097C16.8882 55.8743 14.9166 56.3292 12.9199 56.3292V56.3342Z" fill="#F9A86F"/>
<path d="M12.9937 42.4893V56.3342H0.0352283C0.0101441 56.0443 0.000106772 55.7544 0.000106772 55.4695C-0.0099269 52.9954 0.687413 50.5663 2.00684 48.4721C3.2761 46.4628 5.08718 44.8484 7.22937 43.8138C9.02539 42.9491 10.997 42.4943 12.9937 42.4943V42.4893Z" fill="#F9A86F"/>
<path d="M13.7613 3.80859V17.6535H0.802806C0.777722 17.3636 0.767685 17.0737 0.767685 16.7888C0.757651 14.3147 1.45499 11.8856 2.77442 9.79139C4.04368 7.78213 5.85476 6.16773 7.99695 5.13311C9.79297 4.26843 11.7646 3.81359 13.7613 3.81359V3.80859Z" fill="#030504"/>
<path d="M13.7109 17.6535V3.80859H26.6694C26.6945 4.09849 26.7046 4.38838 26.7046 4.67328C26.7146 7.14736 26.0172 9.57647 24.6978 11.6707C23.4286 13.68 21.6175 15.2944 19.4753 16.329C17.6792 17.1937 15.7076 17.6485 13.7109 17.6485V17.6535Z" fill="#030504"/>
<path d="M13.541 13.8449V0H26.4995C26.5246 0.289893 26.5346 0.579786 26.5346 0.864681C26.5446 3.33877 25.8473 5.76788 24.5279 7.86211C23.2586 9.87137 21.4476 11.4858 19.3054 12.5204C17.5093 13.3851 15.5377 13.8399 13.541 13.8399V13.8449Z" fill="#F9A86F"/>
<path d="M13.6168 0V13.8449H0.65826C0.633176 13.555 0.623154 13.2651 0.623154 12.9802C0.61312 10.5061 1.31046 8.07703 2.62989 5.9828C3.89915 3.97354 5.71023 2.35913 7.85241 1.32451C9.64844 0.459831 11.6201 0.00499923 13.6168 0.00499923V0Z" fill="#F9A86F"/>
</svg>
