<svg width="72" height="85" viewBox="0 0 72 85" fill="none" xmlns="http://www.w3.org/2000/svg">
<g clip-path="url(#clip0_22_1329)">
<path d="M66.1197 81.9156C66.1197 82.9351 66.0909 83.8452 66.0303 84.6885H33.584V49.3237C42.4214 49.3435 50.6227 52.6802 56.681 58.7214C62.7665 64.7992 66.1197 73.0269 66.1197 81.908" fill="#C3D5E1"/>
<path d="M7.15147 35.2296H1.79297V82.2469H7.15147V35.2296Z" fill="#0617BF"/>
<path d="M13.9972 35.2296H8.63867V82.2469H13.9972V35.2296Z" fill="#0617BF"/>
<path d="M66.7885 62.8118H55.293V84.6491H66.7885V62.8118Z" fill="#030504"/>
<path d="M71.7003 46.5357H66.3418V84.6111H71.7003V46.5357Z" fill="#1D43C6"/>
<path d="M27.8628 9.41443C27.7826 10.4355 27.4085 10.9202 26.3014 11.4019C24.9504 11.999 24.0431 12.7845 23.1677 14.1125C23.0174 14.3402 22.8162 14.5296 22.5801 14.6656V9.41443H27.8628Z" fill="#79FE9D"/>
<path d="M27.8628 9.41443C27.7826 10.4355 27.4085 10.9202 26.3014 11.4019C24.9504 11.999 24.0431 12.7845 23.1677 14.1125C23.0174 14.3402 22.8162 14.5296 22.5801 14.6656V9.41443H27.8628Z" stroke="#030504" stroke-width="2.72" stroke-miterlimit="10"/>
<path d="M8.41488 23.2656C6.77765 23.1364 6.00068 22.5211 5.23431 20.7448C4.27712 18.5645 3.01701 17.0982 0.88603 15.6866C0.521572 15.4436 0.218269 15.1191 0 14.7385H8.41488V23.2656Z" fill="#79FE9D"/>
<path d="M8.41488 23.2656C6.77765 23.1364 6.00068 22.5211 5.23431 20.7448C4.27712 18.5645 3.01701 17.0982 0.88603 15.6866C0.521572 15.4436 0.218269 15.1191 0 14.7385H8.41488V23.2656Z" stroke="#030504" stroke-width="2.72" stroke-miterlimit="10"/>
<path d="M22.0252 0C21.9737 0.645759 21.7328 0.952687 21.0377 1.25657C20.2151 1.6069 19.522 2.20607 19.0551 2.9705C18.9612 3.11469 18.8346 3.23445 18.6855 3.31996V0H22.0252Z" fill="#79FE9D"/>
<path d="M22.0252 0C21.9737 0.645759 21.7328 0.952687 21.0377 1.25657C20.2151 1.6069 19.522 2.20607 19.0551 2.9705C18.9612 3.11469 18.8346 3.23445 18.6855 3.31996V0H22.0252Z" stroke="#030504" stroke-width="2.72" stroke-miterlimit="10"/>
<path d="M33.6153 81.9156C33.6153 82.9351 33.585 83.8452 33.5245 84.6885H1.07812V49.3237C9.91556 49.3435 18.1184 52.6802 24.1766 58.7214C30.2621 64.7992 33.6153 73.0269 33.6153 81.908" fill="#C3D5E1"/>
</g>
<defs>
<clipPath id="clip0_22_1329">
<rect width="71.8824" height="84.7843" fill="white"/>
</clipPath>
</defs>
</svg>
