<svg width="78" height="108" viewBox="0 0 78 108" fill="none" xmlns="http://www.w3.org/2000/svg">
<path d="M76.8074 24.6338H18.0801V83.5926H76.8074V24.6338Z" fill="#1D43C6"/>
<path d="M23.5633 60.2695C24.6215 60.2695 25.656 60.5875 26.5358 61.1832C27.4157 61.779 28.1015 62.6257 28.5064 63.6163C28.9114 64.607 29.0174 65.697 28.8109 66.7487C28.6045 67.8004 28.0949 68.7664 27.3466 69.5246C26.5983 70.2828 25.645 70.7991 24.6071 71.0083C23.5692 71.2175 22.4934 71.1102 21.5158 70.6998C20.5381 70.2895 19.7025 69.5946 19.1146 68.703C18.5267 67.8115 18.2129 66.7633 18.2129 65.691C18.2129 64.2531 18.7766 62.8742 19.78 61.8575C20.7834 60.8407 22.1443 60.2695 23.5633 60.2695Z" fill="#79FE9D"/>
<path d="M5.35041 60.2695C6.40862 60.2695 7.44306 60.5875 8.32293 61.1832C9.2028 61.779 9.88858 62.6257 10.2935 63.6163C10.6985 64.607 10.8045 65.697 10.598 66.7487C10.3916 67.8004 9.88199 68.7664 9.13372 69.5246C8.38545 70.2828 7.4321 70.7991 6.39422 71.0083C5.35635 71.2175 4.28055 71.1102 3.30289 70.6998C2.32524 70.2895 1.48962 69.5946 0.901707 68.703C0.313797 67.8115 0 66.7633 0 65.691C0 64.2531 0.56371 62.8742 1.56711 61.8575C2.5705 60.8407 3.9314 60.2695 5.35041 60.2695Z" fill="#79FE9D"/>
<path d="M77.4188 55.0596C71.9683 55.4928 69.3838 57.5633 66.8128 63.5332C63.622 70.8633 59.4299 75.7911 52.3393 80.5353C51.1243 81.3496 50.1134 82.4397 49.3867 83.719H77.4188V55.0596Z" fill="#79FE9D"/>
<path d="M44.981 91.5752V106.765H31.0028C30.9758 106.447 30.9649 106.126 30.9649 105.813C30.955 103.098 31.7058 100.435 33.13 98.1347C34.4989 95.9307 36.4513 94.1605 38.7646 93.0259C40.7026 92.0746 42.8276 91.5788 44.981 91.5752V91.5752Z" stroke="#11133C" stroke-width="2"/>
<path d="M70.4048 91.5752V106.765H56.4266C56.4023 106.447 56.3887 106.126 56.3887 105.813C56.3813 103.098 57.1319 100.436 58.5538 98.1347C59.9237 95.9305 61.8769 94.1603 64.1911 93.0259C66.1281 92.0744 68.2522 91.5785 70.4048 91.5752Z" stroke="#11133C" stroke-width="2"/>
<path d="M22.5497 0L36.5956 24.6338H8.50391L22.5497 0Z" fill="#F9A86F"/>
</svg>
