<svg width="61" height="54" viewBox="0 0 61 54" fill="none" xmlns="http://www.w3.org/2000/svg">
<path d="M30.3869 7.84166C50.4255 -12.3329 73.073 10.4717 53.036 30.6463L30.3869 53.4509L7.73782 30.6463C-12.2149 10.5582 10.4342 -12.248 30.3869 7.84166Z" fill="#F9A86F"/>
<path d="M30.9706 13.1035C28.8736 13.0998 26.8033 13.5768 24.9166 14.4984C22.6295 15.6228 20.7057 17.3766 19.368 19.5567C18.0302 21.7367 17.3333 24.2538 17.3581 26.8163C17.3581 33.6726 23.7081 41.6309 29.1438 41.6309C29.8198 41.6253 30.4835 41.4479 31.0733 41.1153C31.6631 40.7828 32.16 40.3057 32.5181 39.7283C34.7515 36.331 37.0396 34.3734 40.4122 32.8753C43.5615 31.4937 44.4163 30.1088 44.4163 26.5982C44.4163 18.9911 38.5275 13.1152 30.9706 13.1152V13.1035ZM39.0383 27.6885C39.0383 29.1866 38.5275 30.0505 36.9222 31.031C34.6358 32.4692 33.4356 33.6793 32.5181 35.5802C32.3319 35.9518 32.0451 36.2628 31.6908 36.4772C31.3366 36.6917 30.9293 36.8008 30.516 36.792C26.8541 36.792 22.6798 31.9481 22.6798 27.6885C22.6798 22.9079 26.1681 19.334 30.9144 19.334C33.0775 19.3424 35.1487 20.2155 36.6725 21.7613C38.1963 23.3071 39.0479 25.399 39.04 27.577C39.04 27.6153 39.04 27.6519 39.04 27.6885" fill="#030504"/>
</svg>
