<svg width="128" height="76" viewBox="0 0 128 76" fill="none" xmlns="http://www.w3.org/2000/svg">
<path d="M0 0.601074C10.7706 1.44287 15.8791 5.46041 20.9607 17.0573C27.265 31.2824 35.5489 40.8475 49.5646 50.0645C51.9655 51.6455 53.9625 53.7624 55.3966 56.2467H0V0.601074Z" fill="#1D43C6"/>
<path d="M98.4279 75.5681C87.6573 74.7247 82.5487 70.7072 77.4671 59.1119C71.1628 44.8868 62.879 35.3201 48.8633 26.103C46.4624 24.5221 44.4654 22.4052 43.0312 19.9209H98.4279V75.5681Z" fill="#1D43C6"/>
<path d="M127.177 28.61C127.177 21.0222 124.148 13.7451 118.756 8.37967C113.365 3.01426 106.053 0 98.4282 0C90.8036 0 83.4913 3.01426 78.0999 8.37967C72.7085 13.7451 69.6797 21.0222 69.6797 28.61H127.177Z" fill="#F9A86F"/>
</svg>
