<svg width="97" height="75" viewBox="0 0 97 75" fill="none" xmlns="http://www.w3.org/2000/svg">
<path d="M2.45996 38.2895H65.2335C65.2335 54.866 51.1815 68.3026 33.8483 68.3026C16.5151 68.3026 2.45996 54.866 2.45996 38.2895Z" fill="#F9A86F"/>
<path d="M2.45996 38.2895H65.2335C65.2335 54.866 51.1815 68.3026 33.8483 68.3026C16.5151 68.3026 2.45996 54.866 2.45996 38.2895Z" stroke="#F9A86F" stroke-width="4.92" stroke-miterlimit="10"/>
<path d="M30.2627 74.7653L32.1719 61.2529L34.2794 47.8384L46.5533 61.2119L58.7057 74.6864L44.5226 74.8284L30.2627 74.7653Z" fill="#F9EAD4"/>
<path d="M39.5986 42.559L75.445 9.06213L86.9706 20.3403L51.1242 53.8404L39.5986 42.559Z" stroke="#F9EAD4" stroke-width="13.1" stroke-miterlimit="10"/>
<path d="M77.286 55.8789L38.2256 17.6549L50.0198 6.63232L89.0802 44.8563L77.286 55.8789Z" fill="#79FE9D"/>
</svg>
