<svg width="25" height="88" viewBox="0 0 25 88" fill="none" xmlns="http://www.w3.org/2000/svg">
<path d="M14.747 77.429H2.24805V64.9766H14.747V77.429Z" fill="#030504"/>
<path d="M24.0407 77.429H7.75977V74.2325H24.0407V77.429Z" fill="#030504"/>
<path d="M7.71712 64.9766H23.998V68.1731H7.71712V64.9766Z" fill="#030504"/>
<path d="M19.707 73.1408C19.707 73.2701 19.71 73.3874 19.7191 73.4957H23.9086V68.964C22.7676 68.964 21.7082 69.394 20.9264 70.1698C20.1417 70.9486 19.707 72.0041 19.707 73.1438V73.1408Z" fill="#030504"/>
<path d="M14.747 85.8528H2.24805V73.4004H14.747V85.8528Z" fill="#030504"/>
<path d="M24.0407 85.8528H7.75977V82.6563H24.0407V85.8528Z" fill="#030504"/>
<path d="M7.71712 73.4004H23.998V76.597H7.71712V73.4004Z" fill="#030504"/>
<path d="M19.707 81.5647C19.707 81.694 19.71 81.8112 19.7191 81.9195H23.9086V77.3878C22.7676 77.3878 21.7082 77.8178 20.9264 78.5936C20.1417 79.3725 19.707 80.428 19.707 81.5677V81.5647Z" fill="#030504"/>
<path d="M14.747 44.9407H2.24805V32.4883H14.747V44.9407Z" fill="#030504"/>
<path d="M24.0407 44.9407H7.75977V41.7442H24.0407V44.9407Z" fill="#030504"/>
<path d="M7.71712 32.4883H23.998V35.6849H7.71712V32.4883Z" fill="#030504"/>
<path d="M19.707 40.6525C19.707 40.7819 19.71 40.8991 19.7191 41.0074H23.9086V36.4757C22.7676 36.4757 21.7082 36.9057 20.9264 37.6815C20.1417 38.4604 19.707 39.5159 19.707 40.6556V40.6525Z" fill="#030504"/>
<path d="M14.747 53.3636H2.24805V40.9112H14.747V53.3636Z" fill="#030504"/>
<path d="M24.0407 53.3636H7.75977V50.167H24.0407V53.3636Z" fill="#030504"/>
<path d="M7.71712 40.9112H23.998V44.1077H7.71712V40.9112Z" fill="#030504"/>
<path d="M19.707 49.0754C19.707 49.2047 19.71 49.322 19.7191 49.4302H23.9086V44.8985C22.7676 44.8985 21.7082 45.3285 20.9264 46.1044C20.1417 46.8832 19.707 47.9387 19.707 49.0784V49.0754Z" fill="#030504"/>
<path d="M14.747 12.4525H2.24805V3.24249e-05H14.747V12.4525Z" fill="#030504"/>
<path d="M24.0407 12.4525H7.75977V9.2559H24.0407V12.4525Z" fill="#030504"/>
<path d="M7.71712 0L23.998 0V3.19655L7.71712 3.19655V0Z" fill="#030504"/>
<path d="M19.707 8.16427C19.707 8.29357 19.71 8.41085 19.7191 8.5191H23.9086V3.98739C22.7676 3.98739 21.7082 4.41741 20.9264 5.19325C20.1417 5.97209 19.707 7.02759 19.707 8.16728V8.16427Z" fill="#030504"/>
<path d="M14.747 20.8743H2.24805V8.42191H14.747V20.8743Z" fill="#030504"/>
<path d="M24.0407 20.8743H7.75977V17.6778H24.0407V20.8743Z" fill="#030504"/>
<path d="M7.71712 8.42191L23.998 8.42191V11.6185L7.71712 11.6185V8.42191Z" fill="#030504"/>
<path d="M19.707 16.5861C19.707 16.7154 19.71 16.8327 19.7191 16.941H23.9086V12.4093C22.7676 12.4093 21.7082 12.8393 20.9264 13.6151C20.1417 14.394 19.707 15.4495 19.707 16.5892V16.5861Z" fill="#030504"/>
<path d="M12.4989 79.5579H0V67.1055H12.4989V79.5579Z" fill="#EEF5F9"/>
<path d="M21.7887 79.5579H5.50781V76.3614H21.7887V79.5579Z" fill="#EEF5F9"/>
<path d="M5.46907 67.1055H21.75V70.3021H5.46907V67.1055Z" fill="#EEF5F9"/>
<path d="M17.457 75.2698C17.457 75.3992 17.46 75.5164 17.4691 75.6247H21.6586V71.093C20.5176 71.093 19.4582 71.523 18.6764 72.2988C17.8917 73.0777 17.457 74.1332 17.457 75.2729V75.2698Z" fill="#EEF5F9"/>
<path d="M12.4989 87.9818H0V75.5293H12.4989V87.9818Z" fill="#EEF5F9"/>
<path d="M21.7887 87.9818H5.50781V84.7852H21.7887V87.9818Z" fill="#EEF5F9"/>
<path d="M5.46907 75.5293H21.75V78.7259H5.46907V75.5293Z" fill="#EEF5F9"/>
<path d="M17.457 83.6936C17.457 83.8229 17.46 83.9402 17.4691 84.0485H21.6586V79.5168C20.5176 79.5168 19.4582 79.9468 18.6764 80.7226C17.8917 81.5014 17.457 82.5569 17.457 83.6966V83.6936Z" fill="#EEF5F9"/>
<path d="M12.4989 47.0696H0V34.6172H12.4989V47.0696Z" fill="#EEF5F9"/>
<path d="M21.7887 47.0696H5.50781V43.8731H21.7887V47.0696Z" fill="#EEF5F9"/>
<path d="M5.46907 34.6172H21.75V37.8138H5.46907V34.6172Z" fill="#EEF5F9"/>
<path d="M17.457 42.7815C17.457 42.9108 17.46 43.0281 17.4691 43.1363H21.6586V38.6046C20.5176 38.6046 19.4582 39.0346 18.6764 39.8105C17.8917 40.5893 17.457 41.6448 17.457 42.7845V42.7815Z" fill="#EEF5F9"/>
<path d="M12.4989 55.4925H0V43.0401H12.4989V55.4925Z" fill="#EEF5F9"/>
<path d="M21.7887 55.4925H5.50781V52.2959H21.7887V55.4925Z" fill="#EEF5F9"/>
<path d="M5.46907 43.0401H21.75V46.2366H5.46907V43.0401Z" fill="#EEF5F9"/>
<path d="M17.457 51.2044C17.457 51.3337 17.46 51.4509 17.4691 51.5592H21.6586V47.0275C20.5176 47.0275 19.4582 47.4575 18.6764 48.2333C17.8917 49.0122 17.457 50.0677 17.457 51.2074V51.2044Z" fill="#EEF5F9"/>
<path d="M12.4989 14.5814H0V2.12894H12.4989V14.5814Z" fill="#EEF5F9"/>
<path d="M21.7887 14.5814H5.50781V11.3848H21.7887V14.5814Z" fill="#EEF5F9"/>
<path d="M5.46907 2.12894L21.75 2.12894V5.32549L5.46907 5.32549V2.12894Z" fill="#EEF5F9"/>
<path d="M17.457 10.2932C17.457 10.4225 17.46 10.5398 17.4691 10.6481H21.6586V6.11636C20.5176 6.11636 19.4582 6.54637 18.6764 7.32221C17.8917 8.10105 17.457 9.15654 17.457 10.2962V10.2932Z" fill="#EEF5F9"/>
<path d="M12.4989 23.0032H0V10.5508H12.4989V23.0032Z" fill="#EEF5F9"/>
<path d="M21.7887 23.0032H5.50781V19.8067H21.7887V23.0032Z" fill="#EEF5F9"/>
<path d="M5.46907 10.5508L21.75 10.5508V13.7474L5.46907 13.7474V10.5508Z" fill="#EEF5F9"/>
<path d="M17.457 18.7151C17.457 18.8444 17.46 18.9617 17.4691 19.0699H21.6586V14.5382C20.5176 14.5382 19.4582 14.9682 18.6764 15.744C17.8917 16.5229 17.457 17.5784 17.457 18.7181V18.7151Z" fill="#EEF5F9"/>
</svg>
