<svg width="58" height="77" viewBox="0 0 58 77" fill="none" xmlns="http://www.w3.org/2000/svg">
<path d="M23.5151 22.8237C23.5151 21.7849 23.5458 20.8595 23.6142 20L57.5137 20L57.5137 55.9991C48.4891 56.0627 39.8079 52.6212 33.3781 46.431C30.2136 43.3327 27.7118 39.6497 26.0185 35.5966C24.3251 31.5436 23.4741 27.2016 23.5151 22.8237Z" fill="#F9A86F"/>
<path d="M40.5771 39.3309L31.2085 74.2948L7.0084 49.0733L40.5771 39.3309Z" fill="#79FE9D" stroke="#11133C" stroke-width="2"/>
<path d="M35.5137 19.9989V0.646166C34.7758 0.2176 33.9527 -0.00438309 33.1176 6.48499e-05C29.8524 6.48499e-05 26.1671 2.3458 23.003 6.43268C19.9147 10.4248 17.865 15.4937 17.5137 20L35.5137 19.9989Z" fill="#1D43C6"/>
</svg>
