<svg width="81" height="71" viewBox="0 0 81 71" fill="none" xmlns="http://www.w3.org/2000/svg">
<path d="M50.5796 56.8389V70.6838H37.6212C37.5961 70.3939 37.586 70.104 37.586 69.8191C37.576 67.345 38.2734 64.9159 39.5928 62.8217C40.862 60.8124 42.6731 59.198 44.8153 58.1634C46.6113 57.2987 48.5829 56.8439 50.5796 56.8439V56.8389Z" fill="#030504"/>
<path d="M50.5293 70.6789V56.834H63.4878C63.5129 57.1239 63.5229 57.4138 63.5229 57.6987C63.5329 60.1727 62.8356 62.6019 61.5162 64.6961C60.2469 66.7053 58.4358 68.3197 56.2936 69.3544C54.4976 70.2191 52.526 70.6739 50.5293 70.6739V70.6789Z" fill="#030504"/>
<path d="M50.3594 66.8752V53.0303H63.3179C63.3429 53.3202 63.353 53.6101 63.353 53.895C63.363 56.369 62.6657 58.7982 61.3462 60.8924C60.077 62.9016 58.2659 64.5161 56.1237 65.5507C54.3277 66.4154 52.3561 66.8702 50.3594 66.8702V66.8752Z" fill="#FCF8F3"/>
<path d="M50.4351 53.0303V66.8752H37.4766C37.4515 66.5853 37.4415 66.2954 37.4415 66.0105C37.4315 63.5364 38.1288 61.1073 39.4482 59.0131C40.7175 57.0038 42.5286 55.3894 44.6708 54.3548C46.4668 53.4901 48.4384 53.0353 50.4351 53.0353V53.0303Z" fill="#FCF8F3"/>
<path d="M57.689 43.7637V57.6086H44.7305C44.7055 57.3187 44.6954 57.0288 44.6954 56.7439C44.6854 54.2698 45.3827 51.8407 46.7022 49.7465C47.9714 47.7372 49.7825 46.1228 51.9247 45.0882C53.7207 44.2235 55.6923 43.7687 57.689 43.7687V43.7637Z" fill="#030504"/>
<path d="M57.6387 57.6086V43.7637H70.5972C70.6222 44.0536 70.6323 44.3435 70.6323 44.6284C70.6423 47.1024 69.945 49.5316 68.6255 51.6258C67.3563 53.635 65.5452 55.2495 63.403 56.2841C61.607 57.1488 59.6354 57.6036 57.6387 57.6036V57.6086Z" fill="#030504"/>
<path d="M57.4688 53.8V39.9551H70.4272C70.4523 40.245 70.4623 40.5349 70.4623 40.8198C70.4724 43.2939 69.775 45.723 68.4556 47.8172C67.1864 49.8264 65.3753 51.4409 63.2331 52.4755C61.4371 53.3402 59.4655 53.795 57.4688 53.795V53.8Z" fill="#FCF8F3"/>
<path d="M57.5425 39.9551V53.8H44.5841C44.559 53.5101 44.5489 53.2202 44.5489 52.9353C44.5389 50.4612 45.2362 48.0321 46.5557 45.9379C47.8249 43.9286 49.636 42.3142 51.7782 41.2796C53.5742 40.4149 55.5458 39.9601 57.5425 39.9601V39.9551Z" fill="#FCF8F3"/>
<path d="M67.5269 55.75V69.5949H54.5684C54.5433 69.305 54.5333 69.0151 54.5333 68.7302C54.5233 66.2561 55.2206 63.827 56.54 61.7328C57.8093 59.7235 59.6204 58.1091 61.7626 57.0745C63.5586 56.2098 65.5302 55.755 67.5269 55.755V55.75Z" fill="#030504"/>
<path d="M67.4805 69.5949V55.75H80.439C80.464 56.0399 80.4741 56.3298 80.4741 56.6147C80.4841 59.0888 79.7868 61.5179 78.4673 63.6121C77.1981 65.6214 75.387 67.2358 73.2448 68.2704C71.4488 69.1351 69.4772 69.5899 67.4805 69.5899V69.5949Z" fill="#030504"/>
<path d="M67.3066 65.7863V51.9414H80.2651C80.2902 52.2313 80.3002 52.5212 80.3002 52.8061C80.3103 55.2802 79.6129 57.7093 78.2935 59.8035C77.0242 61.8128 75.2132 63.4272 73.071 64.4618C71.275 65.3265 69.3033 65.7813 67.3066 65.7813V65.7863Z" fill="#FCF8F3"/>
<path d="M67.3804 51.9414V65.7863H54.4219C54.3969 65.4964 54.3868 65.2065 54.3868 64.9216C54.3768 62.4475 55.0741 60.0184 56.3936 57.9242C57.6628 55.9149 59.4739 54.3005 61.6161 53.2659C63.4121 52.4012 65.3837 51.9464 67.3804 51.9464V51.9414Z" fill="#FCF8F3"/>
<path d="M43.6461 42.5488V56.3937H30.6876C30.6625 56.1038 30.6525 55.8139 30.6525 55.529C30.6424 53.055 31.3398 50.6259 32.6592 48.5316C33.9284 46.5224 35.7395 44.908 37.8817 43.8733C39.6777 43.0087 41.6494 42.5538 43.6461 42.5538V42.5488Z" fill="#030504"/>
<path d="M43.5957 56.3937V42.5488H56.5542C56.5793 42.8387 56.5893 43.1286 56.5893 43.4135C56.5993 45.8876 55.902 48.3167 54.5826 50.4109C53.3133 52.4202 51.5022 54.0346 49.36 55.0692C47.564 55.9339 45.5924 56.3887 43.5957 56.3887V56.3937Z" fill="#030504"/>
<path d="M43.4258 52.591V38.7461H56.3843C56.4094 39.036 56.4194 39.3259 56.4194 39.6108C56.4294 42.0849 55.7321 44.514 54.4127 46.6082C53.1434 48.6174 51.3323 50.2319 49.1901 51.2665C47.3941 52.1312 45.4225 52.586 43.4258 52.586V52.591Z" fill="#FCF8F3"/>
<path d="M43.5015 38.7461V52.591H30.543C30.518 52.3011 30.5079 52.0112 30.5079 51.7263C30.4979 49.2522 31.1952 46.8231 32.5147 44.7289C33.7839 42.7196 35.595 41.1052 37.7372 40.0706C39.5332 39.2059 41.5048 38.7511 43.5015 38.7511V38.7461Z" fill="#FCF8F3"/>
<path d="M64.2457 32.3281V46.173H51.2872C51.2621 45.8831 51.2521 45.5932 51.2521 45.3083C51.242 42.8343 51.9394 40.4052 53.2588 38.3109C54.5281 36.3017 56.3391 34.6873 58.4813 33.6526C60.2773 32.788 62.249 32.3331 64.2457 32.3331V32.3281Z" fill="#030504"/>
<path d="M64.2012 46.173V32.3281H77.1597C77.1847 32.618 77.1948 32.9079 77.1948 33.1928C77.2048 35.6669 76.5075 38.096 75.188 40.1902C73.9188 42.1995 72.1077 43.8139 69.9655 44.8485C68.1695 45.7132 66.1979 46.168 64.2012 46.168V46.173Z" fill="#030504"/>
<path d="M64.0293 42.3644V28.5195H76.9878C77.0129 28.8094 77.0229 29.0993 77.0229 29.3842C77.0329 31.8583 76.3356 34.2874 75.0162 36.3816C73.7469 38.3909 71.9358 40.0053 69.7936 41.0399C67.9976 41.9046 66.026 42.3594 64.0293 42.3594V42.3644Z" fill="#FCF8F3"/>
<path d="M64.0992 28.5195V42.3644H51.1407C51.1156 42.0745 51.1056 41.7846 51.1056 41.4998C51.0955 39.0257 51.7929 36.5966 53.1123 34.5023C54.3816 32.4931 56.1926 30.8787 58.3348 29.8441C60.1309 28.9794 62.1025 28.5245 64.0992 28.5245V28.5195Z" fill="#FCF8F3"/>
<path d="M54.7236 9.80663C54.7437 14.9997 53.2838 20.0929 50.5195 24.4912C47.8556 28.7097 44.0578 32.0934 39.5577 34.2676C35.8152 36.067 31.7164 37.0166 27.5625 37.0366H0.376238C0.32607 36.4318 0.300985 35.8171 0.300985 35.2223C0.280918 30.0292 1.74082 24.9361 4.51011 20.5327C7.17405 16.3142 10.9718 12.9305 15.4719 10.7613C19.2094 8.95695 23.3082 8.0073 27.4621 7.9873H54.6534C54.6985 8.59708 54.7236 9.20686 54.7236 9.80663Z" fill="#030504"/>
<path d="M54.3676 1.81433C54.3877 7.00742 52.9278 12.1005 50.1585 16.5039C47.4946 20.7174 43.6968 24.1061 39.1967 26.2753C35.4742 28.0747 31.3956 29.0143 27.2617 29.0443C27.2115 29.0493 27.1563 29.0493 27.1062 29.0493H0.0704398C0.0202715 28.4395 0.000204129 27.8298 0.000204129 27.23C-0.0198632 22.0369 1.44004 16.9438 4.20431 12.5454C6.86825 8.32693 10.666 4.93818 15.1661 2.76898C18.8936 0.974638 22.9723 0.029989 27.1062 0H54.2924C54.3426 0.604777 54.3676 1.21955 54.3676 1.81433Z" fill="#FCF8F3"/>
<path d="M27.261 29.0443L27.1055 29.0493C27.1556 29.0493 27.2108 29.0493 27.261 29.0443Z" fill="#FCF8F3"/>
</svg>
