<svg width="103" height="65" viewBox="0 0 103 65" fill="none" xmlns="http://www.w3.org/2000/svg">
<path d="M88.0303 15.8281H59.1973V64.1761H88.0303V15.8281Z" fill="#C3D5E1"/>
<path d="M97.3607 5H69.2656V52.5631H97.3607V5Z" stroke="#C3D5E1" stroke-width="10"/>
<path d="M21.9793 51.5146L29.359 64.1775H14.5996L21.9793 51.5146Z" fill="#F9EAD4"/>
<path d="M44.1193 15.8281H0V48.531H44.1193V15.8281Z" fill="#F9EAD4"/>
<path d="M30.0938 36.5493C32.5391 36.5493 34.5215 34.5815 34.5215 32.1541C34.5215 29.7266 32.5391 27.7588 30.0938 27.7588C27.6484 27.7588 25.666 29.7266 25.666 32.1541C25.666 34.5815 27.6484 36.5493 30.0938 36.5493Z" fill="#79FE9D"/>
<path d="M43.5391 36.5493C45.9844 36.5493 47.9668 34.5815 47.9668 32.1541C47.9668 29.7266 45.9844 27.7588 43.5391 27.7588C41.0937 27.7588 39.1113 29.7266 39.1113 32.1541C39.1113 34.5815 41.0937 36.5493 43.5391 36.5493Z" fill="#79FE9D"/>
<path d="M58.457 36.5493C60.9024 36.5493 62.8848 34.5815 62.8848 32.1541C62.8848 29.7266 60.9024 27.7588 58.457 27.7588C56.0117 27.7588 54.0293 29.7266 54.0293 32.1541C54.0293 34.5815 56.0117 36.5493 58.457 36.5493Z" fill="#79FE9D"/>
</svg>
