<svg width="89" height="85" viewBox="0 0 89 85" fill="none" xmlns="http://www.w3.org/2000/svg">
<path d="M62.5533 0.0189344V68.8781H0.170597C0.0556522 67.4583 0.000424913 65.9912 0.000424913 64.5714C-0.0434056 52.2609 3.3045 40.1898 9.65578 29.7585C15.7594 19.7548 24.4727 11.7191 34.801 6.56884C43.4524 2.25847 52.9372 0.0130932 62.5487 0" fill="#030504"/>
<path d="M38.1387 58.8975C38.1363 62.3009 38.7856 65.6714 40.0494 68.8164C41.3132 71.9614 43.1667 74.8192 45.5041 77.2265C47.8415 79.6337 50.6169 81.5432 53.6716 82.8458C56.7263 84.1483 60.0005 84.8185 63.3069 84.8178C66.6119 84.8178 69.8845 84.1477 72.9378 82.8458C75.9911 81.5438 78.7653 79.6355 81.102 77.2298C83.4388 74.8241 85.2922 71.9682 86.5565 68.8252C87.8208 65.6821 88.4713 62.3135 88.4707 58.9117L38.1387 58.8975Z" fill="#030504"/>
<path d="M80.4024 40.8855C80.4024 42.593 79.7437 44.2306 78.5712 45.4384C77.3986 46.6462 75.8082 47.3253 74.1494 47.3266C72.4906 47.3253 70.9002 46.6462 69.7276 45.4384C68.5551 44.2306 67.8965 42.593 67.8965 40.8855C67.8977 39.1789 68.5568 37.5425 69.7292 36.3358C70.9016 35.129 72.4914 34.4505 74.1494 34.4492C75.8074 34.4505 77.3972 35.129 78.5696 36.3358C79.742 37.5425 80.4012 39.1789 80.4024 40.8855Z" fill="#030504"/>
<path d="M55.4442 40.8855C55.4442 42.5938 54.7848 44.2321 53.6113 45.44C52.4378 46.648 50.8461 47.3266 49.1865 47.3266C47.5277 47.3253 45.9373 46.6462 44.7647 45.4384C43.5922 44.2306 42.9336 42.593 42.9336 40.8855C42.9348 39.1789 43.5939 37.5425 44.7663 36.3358C45.9387 35.129 47.5285 34.4505 49.1865 34.4492C50.8453 34.4492 52.4364 35.1272 53.6098 36.3341C54.7831 37.541 55.4429 39.1781 55.4442 40.8855Z" fill="white"/>
</svg>
