<svg width="95" height="73" viewBox="0 0 95 73" fill="none" xmlns="http://www.w3.org/2000/svg">
<path d="M81.5302 49.7407L94.7518 72.7803H68.3047L81.5302 49.7407Z" fill="#79FE9D"/>
<path d="M63.1287 49.7407L76.3504 72.7803H49.8984L63.1287 49.7407Z" fill="#79FE9D"/>
<path d="M0.308821 55.0214L50.0636 55.5722C49.6689 51.522 47.6702 47.9259 43.6448 45.2196C9.535 22.2523 25.7908 0.976665 0 0L0.308821 55.0214Z" fill="#1D43C6"/>
<path d="M53.5742 26.853H89.4202C89.4202 36.8697 81.3966 44.9907 71.4977 44.9907C61.5989 44.9907 53.5742 36.8697 53.5742 26.853Z" fill="#F9A86F" stroke="#F9A86F" stroke-width="1.5" stroke-miterlimit="10"/>
<path d="M0.308821 55.0214L50.0636 55.5722C49.6689 51.522 47.6702 47.9259 43.6448 45.2196C9.535 22.2523 25.7908 0.976665 0 0L0.308821 55.0214Z" fill="#1D43C6"/>
</svg>
