<svg width="76" height="85" viewBox="0 0 76 85" fill="none" xmlns="http://www.w3.org/2000/svg">
<path d="M70.952 27.3477C65.0589 34.3238 59.7932 35.8536 49.3657 33.6432C36.5362 30.9777 25.9119 31.9596 12.6961 37.046C10.4312 37.9166 7.9995 38.2466 5.59463 38.0097L32.9424 0L70.952 27.3477Z" fill="#030504"/>
<path d="M61.8812 62.0277L28.9238 83.538C27.2827 82.6182 25.8881 81.3074 24.8644 79.7223C20.8319 73.5438 20.2753 63.9632 23.3277 53.4337C26.3121 43.1527 32.413 33.6402 39.6533 27.9668L61.8812 62.0277Z" fill="#11133C"/>
<path d="M75.0849 35.7374C69.1917 42.7134 63.926 44.2433 53.4986 42.0328C40.669 39.3674 30.0447 40.3493 16.829 45.4357C14.564 46.3063 12.1323 46.6363 9.72745 46.3993L37.0752 8.38965L75.0849 35.7374Z" fill="#1D43C6"/>
<path d="M56.2874 60.6918L23.33 82.2021C21.6889 81.2822 20.2944 79.9715 19.2706 78.3863C15.2381 72.2079 14.6816 62.6272 17.7339 52.0978C20.7184 41.8168 26.8193 32.3042 34.0596 26.6309L56.2874 60.6918Z" fill="#C3D5E1"/>
<path d="M27.1943 44.5029C32.7081 44.5984 37.9938 47.005 41.9453 51.251C43.9472 53.4394 45.532 56.0432 46.6055 58.9111C47.6794 61.7801 48.2193 64.855 48.1934 67.9561V67.9609C48.1934 68.5171 48.182 69.0251 48.1582 69.5H27.1943V44.5029Z" fill="#030504" stroke="#79FE9D"/>
<path d="M33.6943 16.5C45.0162 16.5 54.1943 25.6782 54.1943 37C54.1943 48.3218 45.0162 57.5 33.6943 57.5C22.3725 57.5 13.1943 48.3218 13.1943 37C13.1943 25.6782 22.3725 16.5 33.6943 16.5Z" fill="#030504" stroke="#F9A86F"/>
</svg>
