<svg width="53" height="118" viewBox="0 0 53 118" fill="none" xmlns="http://www.w3.org/2000/svg">
<path d="M25.7357 95.3602C31.2532 90.0641 38.7031 87.1191 46.4482 87.1726V117.97H17.347C17.2932 117.237 17.2688 116.446 17.2688 115.555C17.2333 111.81 17.9636 108.095 19.4173 104.628C20.871 101.161 23.019 98.0101 25.7357 95.3602Z" fill="#F9A86F"/>
<path d="M48.4521 75.5989C50.3732 73.727 51.6814 71.3422 52.2114 68.746C52.7414 66.1497 52.4693 63.4587 51.4296 61.0131C50.3899 58.5675 48.6293 56.4772 46.3703 55.0065C44.1113 53.5359 41.4554 52.751 38.7386 52.751C36.0218 52.751 33.366 53.5359 31.107 55.0065C28.848 56.4772 27.0873 58.5675 26.0476 61.0131C25.0079 63.4587 24.7359 66.1497 25.2659 68.746C25.7959 71.3422 27.1042 73.727 29.0252 75.5989C31.602 78.1078 35.0957 79.5171 38.7386 79.5171C42.3815 79.5171 45.8753 78.1078 48.4521 75.5989Z" fill="#F9A86F"/>
<path d="M33.0152 62.8339C32.7657 62.5906 32.4478 62.4249 32.1016 62.3577C31.7555 62.2905 31.3967 62.3249 31.0706 62.4564C30.7445 62.588 30.4657 62.8108 30.2696 63.0968C30.0735 63.3827 29.9687 63.7188 29.9688 64.0627C29.9687 64.4066 30.0735 64.7428 30.2696 65.0287C30.4657 65.3146 30.7445 65.5375 31.0706 65.669C31.3967 65.8006 31.7555 65.8349 32.1016 65.7678C32.4478 65.7006 32.7657 65.5348 33.0152 65.2916C33.1814 65.1305 33.3132 64.939 33.4031 64.7281C33.4931 64.5172 33.5394 64.2911 33.5394 64.0627C33.5394 63.8344 33.4931 63.6082 33.4031 63.3974C33.3132 63.1865 33.1814 62.995 33.0152 62.8339Z" fill="white"/>
<path d="M21.9078 62.8339C21.6583 62.5906 21.3404 62.4249 20.9942 62.3577C20.648 62.2905 20.2893 62.3249 19.9631 62.4564C19.637 62.588 19.3583 62.8108 19.1622 63.0968C18.9661 63.3827 18.8613 63.7188 18.8613 64.0627C18.8613 64.4066 18.9661 64.7428 19.1622 65.0287C19.3583 65.3146 19.637 65.5375 19.9631 65.669C20.2893 65.8006 20.648 65.8349 20.9942 65.7678C21.3404 65.7006 21.6583 65.5348 21.9078 65.2916C22.0739 65.1305 22.2057 64.939 22.2957 64.7281C22.3856 64.5172 22.432 64.2911 22.432 64.0627C22.432 63.8344 22.3856 63.6082 22.2957 63.3974C22.2057 63.1865 22.0739 62.995 21.9078 62.8339Z" fill="white"/>
<path d="M33.0152 62.8339C32.7657 62.5906 32.4478 62.4249 32.1016 62.3577C31.7555 62.2905 31.3967 62.3249 31.0706 62.4564C30.7445 62.588 30.4657 62.8108 30.2696 63.0968C30.0735 63.3827 29.9687 63.7188 29.9688 64.0627C29.9687 64.4066 30.0735 64.7428 30.2696 65.0287C30.4657 65.3146 30.7445 65.5375 31.0706 65.669C31.3967 65.8006 31.7555 65.8349 32.1016 65.7678C32.4478 65.7006 32.7657 65.5348 33.0152 65.2916C33.1814 65.1305 33.3132 64.939 33.4031 64.7281C33.4931 64.5172 33.5394 64.2911 33.5394 64.0627C33.5394 63.8344 33.4931 63.6082 33.4031 63.3974C33.3132 63.1865 33.1814 62.995 33.0152 62.8339Z" fill="#030504"/>
<path d="M21.9078 62.8339C21.6583 62.5906 21.3404 62.4249 20.9942 62.3577C20.648 62.2905 20.2893 62.3249 19.9631 62.4564C19.637 62.588 19.3583 62.8108 19.1622 63.0968C18.9661 63.3827 18.8613 63.7188 18.8613 64.0627C18.8613 64.4066 18.9661 64.7428 19.1622 65.0287C19.3583 65.3146 19.637 65.5375 19.9631 65.669C20.2893 65.8006 20.648 65.8349 20.9942 65.7678C21.3404 65.7006 21.6583 65.5348 21.9078 65.2916C22.0739 65.1305 22.2057 64.939 22.2957 64.7281C22.3856 64.5172 22.432 64.2911 22.432 64.0627C22.432 63.8344 22.3856 63.6082 22.2957 63.3974C22.2057 63.1865 22.0739 62.995 21.9078 62.8339Z" fill="#030504"/>
<path d="M26.6151 32.2223V51.5697C25.7199 51.0677 24.9569 50.3698 24.386 49.5311C21.0667 44.6395 17.6203 41.7436 12.4972 39.5288C8.3224 37.7522 6.87535 35.9708 6.57227 32.208L26.6151 32.2223Z" stroke="#11133C" stroke-width="2" stroke-miterlimit="10"/>
<path d="M14.1401 26.6544H3.17032L1.14648 11.9033H16.291L14.1401 26.6544Z" stroke="#1D43C6" stroke-width="2" stroke-miterlimit="10"/>
<path d="M8.71875 15.0127V24.1624" stroke="#1D43C6" stroke-width="2" stroke-miterlimit="10"/>
<path d="M13.4705 15.0127L11.1094 24.1624" stroke="#1D43C6" stroke-width="2" stroke-miterlimit="10"/>
<path d="M6.62099 5.38346L4.86914 12.1738L11.8385 13.8807L13.5903 7.09036L6.62099 5.38346Z" fill="#030504"/>
<path d="M13.8035 5.71049L7.23828 4.10059C7.45739 3.25233 8.01341 2.52365 8.78396 2.07479C9.5545 1.62594 10.4765 1.49367 11.3471 1.70716C12.2177 1.92065 12.9656 2.46239 13.4262 3.21316C13.8869 3.96393 14.0226 4.86223 13.8035 5.71049Z" fill="#030504"/>
<path d="M10.4834 9.28306C10.4319 9.48098 10.3214 9.6596 10.1657 9.79634C10.0101 9.93308 9.81635 10.0218 9.60898 10.0514C9.40162 10.0809 9.18988 10.05 9.00055 9.96246C8.81121 9.87491 8.65274 9.73469 8.54511 9.55947C8.43749 9.38426 8.38552 9.18194 8.39581 8.97799C8.4061 8.77404 8.47814 8.57763 8.60288 8.41355C8.72762 8.24946 8.89951 8.125 9.09674 8.05597C9.29398 7.98694 9.50775 7.97638 9.71114 8.02562C9.84678 8.05846 9.97442 8.11708 10.0867 8.19813C10.199 8.27918 10.2938 8.38106 10.3655 8.49791C10.4373 8.61476 10.4847 8.74429 10.5049 8.87903C10.5252 9.01377 10.5178 9.15108 10.4834 9.28306Z" fill="#F2F2F2"/>
<path d="M8.86083 11.3365L7.60938 11.0316L8.50886 10.1267L9.40834 9.22168L9.76031 10.4362L10.1123 11.6461L8.86083 11.3365Z" fill="#F2F2F2"/>
<path d="M27.1346 27.2063C26.7081 27.2125 26.2847 27.1337 25.8904 26.9748C25.4962 26.8159 25.1394 26.5803 24.842 26.2823C24.5351 25.9958 24.2931 25.6498 24.1315 25.2668C23.9699 24.8837 23.8922 24.472 23.9034 24.058C23.8924 23.6461 23.9702 23.2366 24.1318 22.8559C24.2935 22.4752 24.5355 22.1318 24.842 21.8479C25.1395 21.5563 25.4933 21.3249 25.883 21.167C26.2727 21.0091 26.6906 20.9278 27.1127 20.9278C27.5347 20.9278 27.9526 21.0091 28.3423 21.167C28.732 21.3249 29.0858 21.5563 29.3834 21.8479C29.9041 22.3234 30.24 22.9596 30.3345 23.6488C30.4289 24.338 30.2761 25.0378 29.9016 25.6297C29.6081 26.0985 29.202 26.4908 28.7185 26.7729C28.2405 27.0531 27.6925 27.1997 27.1346 27.1968V27.2063ZM30.1216 0L29.5985 18.8044H24.6708L24.1332 0H30.1216Z" fill="#11133C"/>
</svg>
