<svg width="67" height="80" viewBox="0 0 67 80" fill="none" xmlns="http://www.w3.org/2000/svg">
<path d="M27.4698 43.3552L21.4961 52.0869L24.3018 53.9069L30.2755 45.1751L27.4698 43.3552Z" fill="#1D43C6"/>
<path d="M23.4248 54.9193L20.291 56.1299L26.0542 70.2746L29.1879 69.064L23.4248 54.9193Z" stroke="#030504" stroke-miterlimit="10"/>
<path d="M42.0321 39.7428L38.7266 40.3877L40.8434 50.6751L44.149 50.0301L42.0321 39.7428Z" fill="#1D43C6"/>
<path d="M44.2098 51.3593L42.873 54.373L64.984 63.6721L66.3208 60.6584L44.2098 51.3593Z" fill="#1D43C6"/>
<path d="M46.2132 26.3425L44.2949 29.042L54.8153 36.1299L56.7335 33.4304L46.2132 26.3425Z" stroke="#030504" stroke-miterlimit="10"/>
<path d="M58.7779 34.8575L57.291 37.8037L63.0318 40.5507L64.5187 37.6045L58.7779 34.8575Z" fill="#1D43C6"/>
<path d="M7.5957 70.7274L12.4602 71.8216H51.8038L56.6644 70.6289" fill="#030504"/>
<path d="M7.5957 70.7274L12.4602 71.8216H51.8038L56.6644 70.6289" stroke="#1D43C6" stroke-width="4" stroke-linecap="round" stroke-linejoin="round"/>
<path d="M21.1153 76.3763C21.1153 76.8256 20.9785 77.2648 20.7221 77.6384C20.4658 78.012 20.1014 78.3032 19.6751 78.4751C19.2488 78.647 18.7797 78.6921 18.3271 78.6044C17.8746 78.5168 17.4588 78.3004 17.1325 77.9827C16.8062 77.665 16.5841 77.2602 16.4941 76.8195C16.404 76.3788 16.4502 75.922 16.6268 75.5069C16.8034 75.0918 17.1024 74.737 17.4861 74.4874C17.8698 74.2377 18.3208 74.1045 18.7822 74.1045C19.401 74.1045 19.9945 74.3438 20.432 74.7699C20.8695 75.1959 21.1153 75.7738 21.1153 76.3763Z" fill="#1D43C6"/>
<path d="M48.5568 76.971C48.5568 77.4203 48.42 77.8595 48.1636 78.2331C47.9072 78.6067 47.5429 78.8979 47.1166 79.0698C46.6903 79.2418 46.2211 79.2867 45.7685 79.1991C45.3159 79.1114 44.9003 78.8951 44.574 78.5774C44.2477 78.2597 44.0255 77.8548 43.9354 77.4142C43.8454 76.9735 43.8917 76.5167 44.0683 76.1016C44.2448 75.6865 44.5438 75.3317 44.9275 75.0821C45.3112 74.8325 45.7623 74.6992 46.2237 74.6992C46.8425 74.6992 47.4359 74.9386 47.8735 75.3646C48.311 75.7906 48.5568 76.3685 48.5568 76.971Z" fill="#1D43C6"/>
<path d="M43.1513 18.0791L49.2562 43.2656L25.1476 48.8125C24.9765 48.2976 24.8287 47.7713 24.7004 47.2526C23.5923 42.753 23.8175 38.0397 25.3498 33.6597C26.824 29.4598 29.4811 25.7481 33.0179 22.9482C35.981 20.6038 39.4485 18.9396 43.1629 18.0791" fill="#C3D5E1"/>
<path d="M16.2051 10.3063C16.2051 12.3447 16.8258 14.3373 17.9889 16.0322C19.1519 17.727 20.8049 19.048 22.739 19.8281C24.673 20.6081 26.8012 20.8123 28.8544 20.4146C30.9076 20.0169 32.7935 19.0354 34.2738 17.594C35.754 16.1527 36.7622 14.3162 37.1706 12.3169C37.579 10.3177 37.3693 8.24544 36.5682 6.36221C35.7671 4.47898 34.4105 2.8694 32.6699 1.73693C30.9293 0.604457 28.8829 0 26.7895 0C23.9823 0 21.2901 1.08579 19.3051 3.0186C17.3202 4.95141 16.2051 7.5729 16.2051 10.3063Z" fill="#C3D5E1"/>
<path d="M17.3867 10.8211C17.3867 11.213 17.5061 11.5959 17.7297 11.9216C17.9534 12.2474 18.2711 12.5012 18.643 12.651C19.0148 12.8007 19.4239 12.8397 19.8185 12.763C20.2131 12.6863 20.5755 12.4973 20.8598 12.22C21.144 11.9427 21.3374 11.5895 21.4154 11.2051C21.4934 10.8208 21.4526 10.4224 21.2981 10.0606C21.1436 9.69888 20.8823 9.38991 20.5473 9.17277C20.2124 8.95564 19.8189 8.84007 19.4165 8.84082C19.1496 8.84082 18.8853 8.89212 18.6388 8.99168C18.3923 9.09125 18.1684 9.23713 17.9799 9.42106C17.7913 9.605 17.6418 9.82338 17.54 10.0636C17.4383 10.3038 17.3862 10.5613 17.3867 10.8211Z" fill="#030504"/>
<path d="M10.2598 9.40796C10.2598 9.79962 10.379 10.1825 10.6025 10.5082C10.8259 10.8338 11.1436 11.0876 11.5152 11.2375C11.8868 11.3874 12.2957 11.4266 12.6902 11.3502C13.0847 11.2738 13.4471 11.0852 13.7315 10.8082C14.0159 10.5313 14.2096 10.1785 14.2881 9.79436C14.3665 9.41023 14.3262 9.01208 14.1723 8.65024C14.0183 8.2884 13.7578 7.97912 13.4233 7.76153C13.0889 7.54394 12.6957 7.42773 12.2934 7.42773C11.7541 7.42773 11.2368 7.63642 10.8554 8.00779C10.474 8.37916 10.2598 8.88277 10.2598 9.40796Z" fill="#030504"/>
<path d="M26.0508 51.4131V26.3213H50.0815C50.1243 26.8438 50.1476 27.3738 50.1476 27.8888C50.1628 32.3754 48.8726 36.7745 46.4264 40.5767C44.0743 44.2196 40.7179 47.1454 36.7402 49.0202C33.4075 50.5913 29.7535 51.4093 26.0508 51.4131Z" stroke="#030504" stroke-miterlimit="10"/>
<path d="M38.2881 29.4729L20.9629 32.7734L21.6102 35.9951L38.9354 32.6946L38.2881 29.4729Z" fill="#1D43C6"/>
<path d="M0.689064 28.6263L0 30.8086L17.9929 36.1951L18.6819 34.0128L0.689064 28.6263Z" fill="#1D43C6"/>
</svg>
