<svg width="71" height="69" viewBox="0 0 71 69" fill="none" xmlns="http://www.w3.org/2000/svg">
<g clip-path="url(#clip0_22_1327)">
<path d="M59.1536 4.15051H4.0625V41.2518H59.1536V4.15051Z" fill="#F9EAD4"/>
<path d="M34.4929 53.2876H29.1973L31.8451 48.5336L34.4929 43.7797L37.1383 48.5336L39.7862 53.2876H34.4929Z" fill="#F9EAD4"/>
<path d="M55.2141 0.12677H0.123047V37.2281H55.2141V0.12677Z" stroke="#11133C" stroke-width="2" stroke-miterlimit="10"/>
<path d="M51.6084 51.5914C55.3295 47.7552 60.366 45.6356 65.7889 45.6254V68.0693H45.8629C45.8238 67.5343 45.8066 66.9562 45.8066 66.3096C45.8066 60.6708 47.8652 55.4427 51.6035 51.604" fill="#79FE9D"/>
<path d="M51.6084 51.5914C55.3295 47.7552 60.366 45.6356 65.7889 45.6254V68.0693H45.8629C45.8238 67.5343 45.8066 66.9562 45.8066 66.3096C45.8115 60.6809 47.8701 55.4427 51.6084 51.5914Z" stroke="#11133C" stroke-width="2" stroke-miterlimit="10"/>
<path d="M67.169 37.19C68.4845 35.826 69.3805 34.088 69.7435 32.1959C70.1066 30.3038 69.9204 28.3425 69.2086 26.5601C68.4968 24.7777 67.2912 23.2543 65.7444 22.1824C64.1977 21.1106 62.3792 20.5385 60.5188 20.5385C58.6585 20.5385 56.84 21.1106 55.2932 22.1824C53.7464 23.2543 52.5409 24.7777 51.8291 26.5601C51.1172 28.3425 50.9311 30.3038 51.2941 32.1959C51.6572 34.088 52.5531 35.826 53.8687 37.19C55.6328 39.0182 58.0248 40.0452 60.5188 40.0452C63.0129 40.0452 65.4048 39.0182 67.169 37.19Z" fill="#79FE9D"/>
<path d="M67.169 37.19C68.4845 35.826 69.3805 34.088 69.7435 32.1959C70.1066 30.3038 69.9204 28.3425 69.2086 26.5601C68.4968 24.7777 67.2912 23.2543 65.7444 22.1824C64.1977 21.1106 62.3792 20.5385 60.5188 20.5385C58.6585 20.5385 56.84 21.1106 55.2932 22.1824C53.7464 23.2543 52.5409 24.7777 51.8291 26.5601C51.1172 28.3425 50.9311 30.3038 51.2941 32.1959C51.6572 34.088 52.5531 35.826 53.8687 37.19C55.6328 39.0182 58.0248 40.0452 60.5188 40.0452C63.0129 40.0452 65.4048 39.0182 67.169 37.19V37.19Z" stroke="#1D43C6" stroke-width="2" stroke-miterlimit="10"/>
<path d="M56.5928 27.8848C56.4219 27.7074 56.2041 27.5866 55.9669 27.5377C55.7298 27.4887 55.484 27.5138 55.2606 27.6098C55.0372 27.7057 54.8462 27.8682 54.7119 28.0767C54.5775 28.2852 54.5059 28.5303 54.5059 28.7811C54.5059 29.0318 54.5775 29.2769 54.7119 29.4854C54.8462 29.6939 55.0372 29.8564 55.2606 29.9523C55.484 30.0483 55.7298 30.0733 55.9669 30.0244C56.2041 29.9755 56.4219 29.8547 56.5928 29.6773C56.822 29.4396 56.9508 29.1172 56.9508 28.7811C56.9508 28.4449 56.822 28.1225 56.5928 27.8848Z" fill="white"/>
<path d="M48.9991 27.8848C48.8282 27.7074 48.6103 27.5866 48.3732 27.5377C48.1361 27.4887 47.8902 27.5138 47.6668 27.6098C47.4434 27.7057 47.2525 27.8682 47.1182 28.0767C46.9838 28.2852 46.9121 28.5303 46.9121 28.7811C46.9121 29.0318 46.9838 29.2769 47.1182 29.4854C47.2525 29.6939 47.4434 29.8564 47.6668 29.9523C47.8902 30.0483 48.1361 30.0733 48.3732 30.0244C48.6103 29.9755 48.8282 29.8547 48.9991 29.6773C49.2283 29.4396 49.357 29.1172 49.357 28.7811C49.357 28.4449 49.2283 28.1225 48.9991 27.8848Z" fill="white"/>
<path d="M59.1536 4.15051H4.0625V41.2518H59.1536V4.15051Z" fill="#C3D5E1"/>
<path d="M59.1536 4.15051H4.0625V41.2518H59.1536V4.15051Z" stroke="#79FE9D" stroke-width="2" stroke-miterlimit="10"/>
<path d="M34.4929 53.2876H29.1973L31.8451 48.5336L34.4929 43.7797L37.1383 48.5336L39.7862 53.2876H34.4929Z" fill="#F9EAD4"/>
<path d="M55.2141 0.12677H0.123047V37.2281H55.2141V0.12677Z" stroke="#11133C" stroke-width="2" stroke-miterlimit="10"/>
<path d="M67.169 37.19C68.4845 35.826 69.3805 34.088 69.7435 32.1959C70.1066 30.3038 69.9204 28.3425 69.2086 26.5601C68.4968 24.7777 67.2912 23.2543 65.7444 22.1824C64.1977 21.1106 62.3792 20.5385 60.5188 20.5385C58.6585 20.5385 56.84 21.1106 55.2932 22.1824C53.7464 23.2543 52.5409 24.7777 51.8291 26.5601C51.1172 28.3425 50.9311 30.3038 51.2941 32.1959C51.6572 34.088 52.5531 35.826 53.8687 37.19C55.6328 39.0182 58.0248 40.0452 60.5188 40.0452C63.0129 40.0452 65.4048 39.0182 67.169 37.19Z" fill="#79FE9D"/>
<path d="M67.169 37.19C68.4845 35.826 69.3805 34.088 69.7435 32.1959C70.1066 30.3038 69.9204 28.3425 69.2086 26.5601C68.4968 24.7777 67.2912 23.2543 65.7444 22.1824C64.1977 21.1106 62.3792 20.5385 60.5188 20.5385C58.6585 20.5385 56.84 21.1106 55.2932 22.1824C53.7464 23.2543 52.5409 24.7777 51.8291 26.5601C51.1172 28.3425 50.9311 30.3038 51.2941 32.1959C51.6572 34.088 52.5531 35.826 53.8687 37.19C55.6328 39.0182 58.0248 40.0452 60.5188 40.0452C63.0129 40.0452 65.4048 39.0182 67.169 37.19V37.19Z" stroke="#1D43C6" stroke-width="2" stroke-miterlimit="10"/>
<path d="M56.5928 27.8848C56.4219 27.7074 56.2041 27.5866 55.9669 27.5377C55.7298 27.4887 55.484 27.5138 55.2606 27.6098C55.0372 27.7057 54.8462 27.8682 54.7119 28.0767C54.5775 28.2852 54.5059 28.5303 54.5059 28.7811C54.5059 29.0318 54.5775 29.2769 54.7119 29.4854C54.8462 29.6939 55.0372 29.8564 55.2606 29.9523C55.484 30.0483 55.7298 30.0733 55.9669 30.0244C56.2041 29.9755 56.4219 29.8547 56.5928 29.6773C56.822 29.4396 56.9508 29.1172 56.9508 28.7811C56.9508 28.4449 56.822 28.1225 56.5928 27.8848Z" fill="#11133C"/>
<path d="M55.7303 30.0477C56.4054 30.0477 56.9527 29.4801 56.9527 28.7799C56.9527 28.0798 56.4054 27.5122 55.7303 27.5122C55.0551 27.5122 54.5078 28.0798 54.5078 28.7799C54.5078 29.4801 55.0551 30.0477 55.7303 30.0477Z" stroke="#030504" stroke-width="2" stroke-miterlimit="10"/>
<path d="M48.9991 27.8848C48.8282 27.7074 48.6103 27.5866 48.3732 27.5377C48.1361 27.4887 47.8902 27.5138 47.6668 27.6098C47.4434 27.7057 47.2525 27.8682 47.1182 28.0767C46.9838 28.2852 46.9121 28.5303 46.9121 28.7811C46.9121 29.0318 46.9838 29.2769 47.1182 29.4854C47.2525 29.6939 47.4434 29.8564 47.6668 29.9523C47.8902 30.0483 48.1361 30.0733 48.3732 30.0244C48.6103 29.9755 48.8282 29.8547 48.9991 29.6773C49.2283 29.4396 49.357 29.1172 49.357 28.7811C49.357 28.4449 49.2283 28.1225 48.9991 27.8848Z" fill="#11133C"/>
<path d="M48.1346 30.0477C48.8097 30.0477 49.357 29.4801 49.357 28.7799C49.357 28.0798 48.8097 27.5122 48.1346 27.5122C47.4594 27.5122 46.9121 28.0798 46.9121 28.7799C46.9121 29.4801 47.4594 30.0477 48.1346 30.0477Z" stroke="#030504" stroke-width="2" stroke-miterlimit="10"/>
</g>
<defs>
<clipPath id="clip0_22_1327">
<rect width="70.0392" height="68.1961" fill="white"/>
</clipPath>
</defs>
</svg>
