<svg width="38" height="73" viewBox="0 0 38 73" fill="none" xmlns="http://www.w3.org/2000/svg">
<path d="M22.8676 0C26.7833 0 30.5385 1.6417 33.3074 4.56398C36.0761 7.48626 37.6316 11.4497 37.6316 15.5825C37.6322 17.629 37.2508 19.6555 36.509 21.5463C35.7673 23.4372 34.6798 25.1552 33.3087 26.6023C31.9376 28.0494 30.3098 29.1972 28.5182 29.98C26.7267 30.7629 24.8066 31.1655 22.8676 31.1649C18.9523 31.1636 15.1977 29.5215 12.4291 26.5995C9.66059 23.6775 8.10471 19.7148 8.10352 15.5825C8.10471 11.4501 9.66059 7.48738 12.4291 4.56538C15.1977 1.64337 18.9523 0.00126352 22.8676 0Z" fill="#030504"/>
<path d="M30.5904 7.08301C31.278 7.08301 31.9374 7.37128 32.4236 7.8844C32.9097 8.39752 33.1829 9.09345 33.1829 9.81911C33.1829 10.5448 32.9097 11.2407 32.4236 11.7538C31.9374 12.2669 31.278 12.5552 30.5904 12.5552C29.9029 12.5552 29.2435 12.2669 28.7573 11.7538C28.2712 11.2407 27.998 10.5448 27.998 9.81911C27.998 9.09345 28.2712 8.39752 28.7573 7.8844C29.2435 7.37128 29.9029 7.08301 30.5904 7.08301Z" fill="#F2F2F2"/>
<path d="M22.8678 9.77148C23.5554 9.77148 24.2147 10.0597 24.7009 10.5728C25.1871 11.086 25.4602 11.7819 25.4602 12.5076C25.4602 13.2332 25.1871 13.9292 24.7009 14.4423C24.2147 14.9554 23.5554 15.2437 22.8678 15.2437C22.1803 15.2437 21.5209 14.9554 21.0347 14.4423C20.5485 13.9292 20.2754 13.2332 20.2754 12.5076C20.2754 11.7819 20.5485 11.086 21.0347 10.5728C21.5209 10.0597 22.1803 9.77148 22.8678 9.77148Z" fill="#F2F2F2"/>
<path d="M30.5916 38.2344V71.6396H1.077C1.02732 70.9437 1.00021 70.243 1.00021 69.5519C0.978847 63.5799 2.56209 57.724 5.56629 52.6633C8.45791 47.8146 12.5813 43.9202 17.467 41.4234C21.5589 39.3322 26.0452 38.2421 30.5916 38.2344V38.2344Z" stroke="#030504" stroke-width="2"/>
</svg>
