<svg width="58" height="94" viewBox="0 0 58 94" fill="none" xmlns="http://www.w3.org/2000/svg">
<path d="M10.5541 46.1526L10.0977 89.2542C13.5212 88.9116 16.5498 87.1708 18.8344 83.6986C38.2206 54.1479 56.1803 68.2311 57.0042 45.8887L10.5541 46.1526Z" fill="#030504" stroke="#030504" stroke-miterlimit="10"/>
<path d="M16.0322 27.1113C19.8152 27.1119 23.4431 28.6364 26.1181 31.3494C28.7931 34.0625 30.2962 37.742 30.2968 41.5788V92.1572H1.76758V41.5788C1.76758 37.7418 3.27047 34.0619 5.9456 31.3488C8.62073 28.6356 12.249 27.1113 16.0322 27.1113Z" fill="white"/>
<path d="M16.0318 27.3428C19.7543 27.3434 23.3241 28.8434 25.9563 31.5131C28.5885 34.1827 30.0676 37.8034 30.0682 41.5788V91.7544C30.0682 91.778 30.0635 91.8014 30.0546 91.8232C30.0456 91.845 30.0325 91.8647 30.0159 91.8813C29.9993 91.8979 29.9797 91.9109 29.9581 91.9198C29.9365 91.9286 29.9134 91.933 29.8901 91.9327H2.17576C2.1526 91.933 2.12957 91.9286 2.10811 91.9197C2.08665 91.9109 2.06716 91.8978 2.05078 91.8812C2.0344 91.8645 2.0215 91.8448 2.01278 91.823C2.00405 91.8012 1.99971 91.7779 2.00002 91.7544V91.7544V41.5788C2.00001 37.804 3.47821 34.1837 6.10955 31.514C8.74089 28.8444 12.3099 27.344 16.0318 27.3428V27.3428Z" stroke="#030504" stroke-width="4"/>
<path d="M16.0434 22.5832C22.1921 22.5832 27.1766 17.5278 27.1766 11.2916C27.1766 5.05542 22.1921 0 16.0434 0C9.89467 0 4.91016 5.05542 4.91016 11.2916C4.91016 17.5278 9.89467 22.5832 16.0434 22.5832Z" fill="#F9A86F"/>
<path d="M24.2127 15.6113L24.1922 22.5858L18.2695 19.1136L24.2127 15.6113Z" fill="#F9A86F"/>
</svg>
