<svg width="65" height="98" viewBox="0 0 65 98" fill="none" xmlns="http://www.w3.org/2000/svg">
<path d="M47.3433 48.0127V97.686H0.125018C0.0392236 96.653 0.000294516 95.6048 0.000294516 94.5795C-0.0314424 85.6995 2.50239 76.9924 7.30834 69.4673C11.9292 62.2547 18.5237 56.4616 26.3393 52.7489C32.8889 49.6417 40.0681 48.0229 47.3433 48.0127Z" fill="#030504"/>
<path d="M58.551 21.2634C58.551 25.4689 57.2797 29.58 54.898 33.0767C52.5163 36.5735 49.1312 39.2989 45.1707 40.9083C41.2101 42.5176 36.852 42.9387 32.6475 42.1183C28.443 41.2978 24.5808 39.2726 21.5495 36.2989C18.5182 33.3251 16.454 29.5364 15.6176 25.4117C14.7813 21.287 15.2106 17.0116 16.8512 13.1262C18.4917 9.24082 21.2696 5.9199 24.8341 3.58345C28.3985 1.24699 32.5892 0 36.8761 0C42.6246 0 48.1376 2.24017 52.2024 6.22784C56.2673 10.2155 58.551 15.6239 58.551 21.2634Z" fill="#030504"/>
<path d="M64.5099 13.4355H4.76562V23.5431H64.5099V13.4355Z" fill="#F9EAD4"/>
<path d="M12.4406 15.785C12.9859 15.2498 13.6808 14.8854 14.4373 14.7377C15.1938 14.5899 15.978 14.6657 16.6907 14.9552C17.4034 15.2447 18.0125 15.7351 18.441 16.3642C18.8696 16.9934 19.0983 17.7331 19.0983 18.4898C19.0983 19.2465 18.8696 19.9863 18.441 20.6154C18.0125 21.2446 17.4034 21.7349 16.6907 22.0244C15.978 22.3139 15.1938 22.3896 14.4373 22.2419C13.6808 22.0942 12.9859 21.7298 12.4406 21.1946C11.7095 20.4772 11.2988 19.5042 11.2988 18.4898C11.2988 17.4753 11.7095 16.5024 12.4406 15.785Z" fill="#030504"/>
<path d="M29.3429 15.785C29.8883 15.2498 30.5831 14.8854 31.3396 14.7377C32.0961 14.5899 32.8804 14.6657 33.593 14.9552C34.3057 15.2447 34.9148 15.7351 35.3434 16.3642C35.7719 16.9934 36.0007 17.7331 36.0007 18.4898C36.0007 19.2465 35.7719 19.9863 35.3434 20.6154C34.9148 21.2446 34.3057 21.7349 33.593 22.0244C32.8804 22.3139 32.0961 22.3896 31.3396 22.2419C30.5831 22.0942 29.8883 21.7298 29.3429 21.1946C28.6118 20.4772 28.2012 19.5042 28.2012 18.4898C28.2012 17.4753 28.6118 16.5024 29.3429 15.785Z" fill="#030504"/>
</svg>
