<svg width="94" height="87" viewBox="0 0 94 87" fill="none" xmlns="http://www.w3.org/2000/svg">
<path d="M36.5048 14.1748V86.6275C16.3475 86.6275 0 70.4093 0 50.402C0 30.3946 16.3425 14.1748 36.5048 14.1748Z" fill="#030504"/>
<path d="M42.3663 14.1748C46.3106 14.1748 49.508 11.0016 49.508 7.08738C49.508 3.17313 46.3106 0 42.3663 0C38.4221 0 35.2246 3.17313 35.2246 7.08738C35.2246 11.0016 38.4221 14.1748 42.3663 14.1748Z" fill="#1D43C6"/>
<path d="M32.2294 25.5439L53.1831 55.2128C51.2202 56.5783 49.0055 57.5468 46.6655 58.0629C44.3254 58.5791 41.9058 58.6327 39.5449 58.2208C37.1839 57.8089 34.9279 56.9396 32.9055 55.6624C30.8831 54.3852 29.134 52.7252 27.7581 50.7772C24.9802 46.8426 23.8906 41.9742 24.7291 37.2426C25.5676 32.5109 28.2655 28.3035 32.2294 25.5456V25.5439Z" fill="#79FE9D"/>
<path d="M86.5559 70.9215L86.8541 43.8086C84.6568 44.0235 82.7044 45.113 81.2351 47.3068C68.7708 65.899 57.2228 57.0377 56.6914 71.0951L86.5559 70.9215Z" fill="#F9A86F" stroke="#030504" stroke-miterlimit="10"/>
<path d="M94.0013 26.4932H89.3418V50.0103H94.0013V26.4932Z" fill="#1D43C6"/>
</svg>
