<svg width="48" height="83" viewBox="0 0 48 83" fill="none" xmlns="http://www.w3.org/2000/svg">
<g clip-path="url(#clip0_22_1316)">
<path d="M12.4782 0C14.3834 0 16.2458 0.595036 17.8298 1.70986C19.4139 2.82468 20.6485 4.40922 21.3776 6.26311C22.1067 8.11699 22.2974 10.1569 21.9257 12.125C21.5541 14.0931 20.6367 15.9009 19.2895 17.3198C17.9424 18.7387 16.226 19.705 14.3575 20.0964C12.4889 20.4879 10.5521 20.287 8.79203 19.5191C7.0319 18.7512 5.5275 17.4508 4.46906 15.7823C3.41062 14.1139 2.8457 12.1523 2.8457 10.1457C2.8457 7.45489 3.86052 4.87429 5.66698 2.9716C7.47344 1.06892 9.92353 0 12.4782 0Z" fill="#F9A86F"/>
<path d="M19.5498 14.0244L19.5333 20.2914L14.4062 17.1753L19.5498 14.0244Z" fill="#F9A86F"/>
<path d="M12.4727 24.3615C14.0949 24.3611 15.7012 24.6975 17.1998 25.3515C18.6984 26.0056 20.0599 26.9644 21.2063 28.1732C22.3527 29.382 23.2616 30.817 23.881 32.3962C24.5004 33.9753 24.8181 35.6676 24.8159 37.3761V82.8019H0.132812V37.3761C0.132812 33.9291 1.43291 30.6232 3.74708 28.1857C6.06126 25.7483 9.19998 24.3789 12.4727 24.3789" fill="white"/>
<path d="M12.4736 24.5669C14.0699 24.5669 15.6505 24.8983 17.1251 25.5423C18.5996 26.1862 19.9392 27.13 21.0672 28.3197C22.1951 29.5093 23.0894 30.9216 23.6987 32.4755C24.3081 34.0295 24.6207 35.6948 24.6185 37.3761V82.4328C24.6185 82.4756 24.6026 82.5167 24.5741 82.5473C24.5457 82.5779 24.507 82.5956 24.4664 82.5965H0.484153C0.463903 82.5965 0.443826 82.5922 0.425159 82.584C0.406491 82.5757 0.389609 82.5636 0.375445 82.5484C0.361281 82.5331 0.350124 82.515 0.34268 82.4952C0.335235 82.4754 0.331627 82.4542 0.332067 82.4328V37.3761C0.32946 35.695 0.641593 34.0298 1.2506 32.4758C1.8596 30.9218 2.75354 29.5096 3.88125 28.3199C5.00896 27.1302 6.34828 26.1863 7.82265 25.5423C9.29703 24.8984 10.8775 24.5669 12.4736 24.5669V24.5669Z" stroke="#030504" stroke-width="4"/>
<path d="M7.73921 41.4706L7.33594 80.2011C10.2945 79.8947 12.9191 78.3349 14.8959 75.2048C31.6686 48.6534 47.205 61.3059 47.919 41.2338L7.73921 41.4706Z" fill="#79FE9D"/>
</g>
<defs>
<clipPath id="clip0_22_1316">
<rect width="47.9216" height="82.9412" fill="white"/>
</clipPath>
</defs>
</svg>
