<svg width="85" height="48" viewBox="0 0 85 48" fill="none" xmlns="http://www.w3.org/2000/svg">
<path d="M21.1955 47.9214C32.9014 47.9214 42.391 38.5933 42.391 27.0864C42.391 15.5796 32.9014 6.25146 21.1955 6.25146C9.48955 6.25146 0 15.5796 0 27.0864C0 38.5933 9.48955 47.9214 21.1955 47.9214Z" fill="#1D43C6"/>
<path d="M63.5881 41.6699C75.294 41.6699 84.7836 32.3418 84.7836 20.835C84.7836 9.32813 75.294 0 63.5881 0C51.8821 0 42.3926 9.32813 42.3926 20.835C42.3926 32.3418 51.8821 41.6699 63.5881 41.6699Z" fill="#1D43C6"/>
<path d="M47.2635 29.1511C48.6755 29.1511 49.8201 28.0259 49.8201 26.638C49.8201 25.2501 48.6755 24.125 47.2635 24.125C45.8516 24.125 44.707 25.2501 44.707 26.638C44.707 28.0259 45.8516 29.1511 47.2635 29.1511Z" fill="#F9A86F"/>
<path d="M40.0685 28.7269C40.6555 28.7269 41.1312 28.2592 41.1312 27.6823C41.1312 27.1054 40.6555 26.6377 40.0685 26.6377C39.4816 26.6377 39.0059 27.1054 39.0059 27.6823C39.0059 28.2592 39.4816 28.7269 40.0685 28.7269Z" fill="#F9A86F"/>
<path d="M52.3768 17.0138C53.7887 17.0138 54.9333 15.8887 54.9333 14.5008C54.9333 13.1129 53.7887 11.9878 52.3768 11.9878C50.9649 11.9878 49.8203 13.1129 49.8203 14.5008C49.8203 15.8887 50.9649 17.0138 52.3768 17.0138Z" fill="#030504"/>
<path d="M64.0428 17.0138C65.4548 17.0138 66.5993 15.8887 66.5993 14.5008C66.5993 13.1129 65.4548 11.9878 64.0428 11.9878C62.6309 11.9878 61.4863 13.1129 61.4863 14.5008C61.4863 15.8887 62.6309 17.0138 64.0428 17.0138Z" fill="#030504"/>
<path d="M31.9688 26.0054C32.3474 26.2648 32.7828 26.4332 33.2399 26.4969C33.6969 26.5605 34.1627 26.5177 34.5998 26.3719C35.1311 26.1936 35.5981 25.8671 35.9436 25.4322C36.2892 24.9973 36.4984 24.4729 36.5458 23.923C36.5849 23.4711 36.515 23.0165 36.3416 22.5961C36.1683 22.1757 35.8965 21.8015 35.5483 21.5039L31.9688 26.0054Z" fill="#030504"/>
</svg>
