<svg width="47" height="83" viewBox="0 0 47 83" fill="none" xmlns="http://www.w3.org/2000/svg">
<g clip-path="url(#clip0_22_1309)">
<path d="M46.0798 17.0395C46.0798 20.4097 45.0596 23.7041 43.1483 26.5062C41.237 29.3084 38.5203 31.4924 35.3419 32.7821C32.1635 34.0717 28.6661 34.4092 25.2919 33.7517C21.9177 33.0942 18.8184 31.4714 16.3857 29.0883C13.9531 26.7053 12.2964 23.6691 11.6253 20.3638C10.9541 17.0584 11.2986 13.6324 12.6151 10.5188C13.9316 7.40521 16.1611 4.74399 19.0216 2.87166C21.8821 0.999327 25.2451 -3.05176e-05 28.6854 -3.05176e-05C33.2987 -3.05176e-05 37.723 1.7952 40.985 4.99074C44.2471 8.18628 46.0798 12.5204 46.0798 17.0395Z" fill="#F9A86F"/>
<path d="M7.38675 13.4216C7.38675 14.1371 7.17014 14.8367 6.76431 15.4316C6.35847 16.0266 5.78165 16.4904 5.10677 16.7642C4.4319 17.038 3.6893 17.1097 2.97285 16.9701C2.25641 16.8305 1.59829 16.4859 1.08177 15.9799C0.56524 15.4739 0.213477 14.8292 0.0709671 14.1274C-0.0715425 13.4256 0.00160507 12.6981 0.281148 12.037C0.56069 11.3759 1.03407 10.8108 1.64145 10.4133C2.24882 10.0157 2.96289 9.80353 3.69337 9.80353C4.17839 9.80353 4.65867 9.89711 5.10677 10.0789C5.55487 10.2608 5.96205 10.5273 6.30501 10.8632C6.64797 11.1992 6.92002 11.598 7.10563 12.037C7.29124 12.476 7.38675 12.9464 7.38675 13.4216Z" fill="#030504"/>
<path d="M24.2988 13.4216C24.2988 14.1371 24.0822 14.8367 23.6764 15.4316C23.2706 16.0266 22.6937 16.4904 22.0189 16.7642C21.344 17.038 20.6014 17.1097 19.8849 16.9701C19.1685 16.8305 18.5104 16.4859 17.9939 15.9799C17.4773 15.4739 17.1256 14.8292 16.9831 14.1274C16.8406 13.4256 16.9137 12.6981 17.1932 12.037C17.4728 11.3759 17.9462 10.8108 18.5535 10.4133C19.1609 10.0157 19.875 9.80353 20.6055 9.80353C21.585 9.80353 22.5245 10.1847 23.2171 10.8632C23.9097 11.5417 24.2988 12.462 24.2988 13.4216Z" fill="#030504"/>
<path d="M2.79688 82.9454C3.39136 75.542 6.22404 72.0316 14.3949 68.5395C24.4236 64.2066 31.1682 58.5122 37.6665 48.8793C38.7809 47.2293 40.2731 45.8569 42.0243 44.8712V82.9454H2.79688Z" fill="#C3D5E1"/>
</g>
<defs>
<clipPath id="clip0_22_1309">
<rect width="46.0784" height="82.9412" fill="white"/>
</clipPath>
</defs>
</svg>
