<svg width="54" height="93" viewBox="0 0 54 93" fill="none" xmlns="http://www.w3.org/2000/svg">
<path d="M45.7239 15.1055C49.9892 15.1055 53.4469 11.724 53.4469 7.55275C53.4469 3.38148 49.9892 0 45.7239 0C41.4587 0 38.001 3.38148 38.001 7.55275C38.001 11.724 41.4587 15.1055 45.7239 15.1055Z" fill="#1D43C6"/>
<path d="M39.4274 15.0361V92.1538C28.9705 92.1538 18.9419 88.0913 11.5478 80.8601C4.15365 73.6289 0 63.8214 0 53.595C0 43.3685 4.15365 33.561 11.5478 26.3298C18.9419 19.0986 28.9705 15.0361 39.4274 15.0361Z" fill="#79FE9D"/>
<path d="M30.8893 32.2651L53.5159 63.8672C49.2833 66.7355 44.0767 67.8829 38.9952 67.067C33.9137 66.2511 29.3549 63.536 26.2822 59.4947C23.2895 55.2928 22.1221 50.1016 23.0364 45.0595C23.9507 40.0173 26.872 35.5356 31.1597 32.5963L30.8893 32.2651Z" fill="#030504"/>
</svg>
