<svg width="49" height="80" viewBox="0 0 49 80" fill="none" xmlns="http://www.w3.org/2000/svg">
<path d="M45.2899 43.9172C46.7605 42.4881 47.762 40.6674 48.1678 38.6852C48.5737 36.703 48.3655 34.6483 47.5698 32.781C46.7741 30.9138 45.4265 29.3178 43.6974 28.1949C41.9683 27.072 39.9355 26.4727 37.8559 26.4727C35.7763 26.4727 33.7435 27.072 32.0144 28.1949C30.2854 29.3178 28.9377 30.9138 28.142 32.781C27.3463 34.6483 27.1381 36.703 27.5439 38.6852C27.9498 40.6674 28.9513 42.4881 30.4219 43.9172C31.3979 44.8665 32.5567 45.6196 33.8323 46.1334C35.1079 46.6472 36.4751 46.9116 37.8559 46.9116C39.2367 46.9116 40.6039 46.6472 41.8795 46.1334C43.1551 45.6196 44.314 44.8665 45.2899 43.9172Z" fill="#F9A86F"/>
<path d="M33.4681 34.1675C33.2769 33.9814 33.0333 33.8545 32.768 33.8031C32.5027 33.7516 32.2276 33.7778 31.9776 33.8783C31.7275 33.9788 31.5138 34.1491 31.3635 34.3677C31.2131 34.5863 31.1328 34.8434 31.1328 35.1063C31.1328 35.3693 31.2131 35.6263 31.3635 35.8449C31.5138 36.0635 31.7275 36.2339 31.9776 36.3344C32.2276 36.4349 32.5027 36.4611 32.768 36.4096C33.0333 36.3581 33.2769 36.2313 33.4681 36.0452C33.5954 35.9222 33.6965 35.7759 33.7655 35.6148C33.8344 35.4536 33.87 35.2808 33.87 35.1063C33.87 34.9318 33.8344 34.759 33.7655 34.5979C33.6965 34.4368 33.5954 34.2905 33.4681 34.1675Z" fill="white"/>
<path d="M24.9837 34.1675C24.7926 33.9814 24.5489 33.8545 24.2836 33.8031C24.0183 33.7516 23.7432 33.7778 23.4932 33.8783C23.2431 33.9788 23.0294 34.1491 22.8791 34.3677C22.7287 34.5863 22.6484 34.8434 22.6484 35.1063C22.6484 35.3693 22.7287 35.6263 22.8791 35.8449C23.0294 36.0635 23.2431 36.2339 23.4932 36.3344C23.7432 36.4349 24.0183 36.4611 24.2836 36.4096C24.5489 36.3581 24.7926 36.2313 24.9837 36.0452C25.1111 35.9222 25.2121 35.7759 25.2811 35.6148C25.35 35.4536 25.3855 35.2808 25.3855 35.1063C25.3855 34.9318 25.35 34.759 25.2811 34.5979C25.2121 34.4368 25.1111 34.2905 24.9837 34.1675Z" fill="white"/>
<path d="M28.8192 62.4459C32.9777 58.4278 38.6081 56.2041 44.6746 56.2041V79.7176H22.4021C22.3593 79.1584 22.3379 78.5525 22.3379 77.8737C22.3379 71.9699 24.6419 66.4927 28.8192 62.4537" fill="#F9A86F"/>
<path d="M33.4681 34.1675C33.2769 33.9814 33.0333 33.8545 32.768 33.8031C32.5027 33.7516 32.2276 33.7778 31.9776 33.8783C31.7275 33.9788 31.5138 34.1491 31.3635 34.3677C31.2131 34.5863 31.1328 34.8434 31.1328 35.1063C31.1328 35.3693 31.2131 35.6263 31.3635 35.8449C31.5138 36.0635 31.7275 36.2339 31.9776 36.3344C32.2276 36.4349 32.5027 36.4611 32.768 36.4096C33.0333 36.3581 33.2769 36.2313 33.4681 36.0452C33.5954 35.9222 33.6965 35.7759 33.7655 35.6148C33.8344 35.4536 33.87 35.2808 33.87 35.1063C33.87 34.9318 33.8344 34.759 33.7655 34.5979C33.6965 34.4368 33.5954 34.2905 33.4681 34.1675Z" fill="#030504"/>
<path d="M24.9837 34.1675C24.7926 33.9814 24.5489 33.8545 24.2836 33.8031C24.0183 33.7516 23.7432 33.7778 23.4932 33.8783C23.2431 33.9788 23.0294 34.1491 22.8791 34.3677C22.7287 34.5863 22.6484 34.8434 22.6484 35.1063C22.6484 35.3693 22.7287 35.6263 22.8791 35.8449C23.0294 36.0635 23.2431 36.2339 23.4932 36.3344C23.7432 36.4349 24.0183 36.4611 24.2836 36.4096C24.5489 36.3581 24.7926 36.2313 24.9837 36.0452C25.1111 35.9222 25.2121 35.7759 25.2811 35.6148C25.35 35.4536 25.3855 35.2808 25.3855 35.1063C25.3855 34.9318 25.35 34.759 25.2811 34.5979C25.2121 34.4368 25.1111 34.2905 24.9837 34.1675Z" fill="#030504"/>
<path d="M16.469 13.3145V25.3274C15.9115 25.0162 15.4368 24.5825 15.0829 24.0608C13.017 21.0231 10.8708 19.226 7.68366 17.8606C5.08524 16.7579 4.18342 15.6499 3.99609 13.3145H16.469Z" stroke="#11133C" stroke-miterlimit="10"/>
<path d="M12.8061 15.5564C16.342 13.8378 17.7749 9.65877 16.0066 6.22229C14.2382 2.78581 9.93828 1.3932 6.40235 3.11181C2.86643 4.83042 1.43353 9.00945 3.20187 12.4459C4.97021 15.8824 9.27017 17.275 12.8061 15.5564Z" stroke="#11133C" stroke-miterlimit="10"/>
</svg>
