<svg width="48" height="90" viewBox="0 0 48 90" fill="none" xmlns="http://www.w3.org/2000/svg">
<path d="M46.6142 85.7429C46.6142 86.9399 46.5818 88.0102 46.5124 89.0007H8.82617V47.4434C19.0967 47.4668 28.6269 51.3911 35.659 58.4887C42.691 65.5862 46.6234 75.3031 46.6234 85.7429" fill="#79FE9D"/>
<path d="M46.6142 85.7429C46.6142 86.9399 46.5818 88.0102 46.5124 89.0007H8.82617V47.4434C19.0967 47.4668 28.6269 51.3911 35.659 58.4887C42.691 65.5862 46.6142 75.3031 46.6142 85.7429Z" stroke="#11133C" stroke-width="2" stroke-miterlimit="10"/>
<path d="M6.2116 31.8264C3.7229 29.3007 2.02818 26.083 1.34173 22.5801C0.655284 19.0772 1.00794 15.4465 2.3551 12.1469C3.70226 8.8474 5.98331 6.02727 8.91003 4.04314C11.8368 2.05902 15.2776 1 18.7975 1C22.3174 1 25.7582 2.05902 28.685 4.04314C31.6117 6.02727 33.8929 8.8474 35.24 12.1469C36.5872 15.4465 36.9398 19.0772 36.2534 22.5801C35.5669 26.083 33.8722 29.3007 31.3835 31.8264C29.7308 33.5036 27.7687 34.8341 25.6092 35.7418C23.4496 36.6496 21.135 37.1168 18.7975 37.1168C16.46 37.1168 14.1455 36.6496 11.9859 35.7418C9.82642 34.8341 7.8643 33.5036 6.2116 31.8264Z" fill="#79FE9D"/>
<path d="M6.2116 31.8264C3.7229 29.3007 2.02818 26.083 1.34173 22.5801C0.655284 19.0772 1.00794 15.4465 2.3551 12.1469C3.70226 8.8474 5.98331 6.02727 8.91003 4.04314C11.8368 2.05902 15.2776 1 18.7975 1C22.3174 1 25.7582 2.05902 28.685 4.04314C31.6117 6.02727 33.8929 8.8474 35.24 12.1469C36.5872 15.4465 36.9398 19.0772 36.2534 22.5801C35.5669 26.083 33.8722 29.3007 31.3835 31.8264C29.7308 33.5036 27.7687 34.8341 25.6092 35.7418C23.4496 36.6496 21.135 37.1168 18.7975 37.1168C16.46 37.1168 14.1455 36.6496 11.9859 35.7418C9.82642 34.8341 7.8643 33.5036 6.2116 31.8264Z" stroke="#1D43C6" stroke-width="2" stroke-miterlimit="10"/>
<path d="M26.2106 14.6037C26.534 14.2754 26.9462 14.0518 27.3949 13.9612C27.8437 13.8705 28.3087 13.917 28.7314 14.0946C29.1542 14.2722 29.5154 14.5731 29.7697 14.959C30.0239 15.345 30.1596 15.7989 30.1596 16.2631C30.1596 16.7273 30.0239 17.1811 29.7697 17.5671C29.5154 17.9531 29.1542 18.2539 28.7314 18.4316C28.3087 18.6092 27.8437 18.6556 27.3949 18.565C26.9462 18.4744 26.534 18.2508 26.2106 17.9225C25.7769 17.4823 25.5332 16.8854 25.5332 16.2631C25.5332 15.6407 25.7769 15.0438 26.2106 14.6037Z" fill="white"/>
<path d="M40.5854 14.6037C40.9089 14.2754 41.3211 14.0518 41.7698 13.9612C42.2185 13.8705 42.6837 13.917 43.1064 14.0946C43.5292 14.2722 43.8905 14.5731 44.1447 14.959C44.3989 15.345 44.5346 15.7989 44.5346 16.2631C44.5346 16.7273 44.3989 17.1811 44.1447 17.5671C43.8905 17.9531 43.5292 18.2539 43.1064 18.4316C42.6837 18.6092 42.2185 18.6556 41.7698 18.565C41.3211 18.4744 40.9089 18.2508 40.5854 17.9225C40.1518 17.4823 39.9082 16.8854 39.9082 16.2631C39.9082 15.6407 40.1518 15.0438 40.5854 14.6037Z" fill="white"/>
<path d="M46.6142 85.7429C46.6142 86.9399 46.5818 88.0102 46.5124 89.0007H8.82617V47.4434C19.0967 47.4668 28.6269 51.3911 35.659 58.4887C42.691 65.5862 46.6234 75.3031 46.6234 85.7429" fill="#79FE9D"/>
<path d="M46.6142 85.7429C46.6142 86.9399 46.5818 88.0102 46.5124 89.0007H8.82617V47.4434C19.0967 47.4668 28.6269 51.3911 35.659 58.4887C42.691 65.5862 46.6142 75.3031 46.6142 85.7429Z" stroke="#11133C" stroke-width="2" stroke-miterlimit="10"/>
<path d="M6.2116 31.8264C3.7229 29.3007 2.02818 26.083 1.34173 22.5801C0.655284 19.0772 1.00794 15.4465 2.3551 12.1469C3.70226 8.8474 5.98331 6.02727 8.91003 4.04314C11.8368 2.05902 15.2776 1 18.7975 1C22.3174 1 25.7582 2.05902 28.685 4.04314C31.6117 6.02727 33.8929 8.8474 35.24 12.1469C36.5872 15.4465 36.9398 19.0772 36.2534 22.5801C35.5669 26.083 33.8722 29.3007 31.3835 31.8264C29.7308 33.5036 27.7687 34.8341 25.6092 35.7418C23.4496 36.6496 21.135 37.1168 18.7975 37.1168C16.46 37.1168 14.1455 36.6496 11.9859 35.7418C9.82642 34.8341 7.8643 33.5036 6.2116 31.8264Z" fill="#79FE9D"/>
<path d="M6.2116 31.8264C3.7229 29.3007 2.02818 26.083 1.34173 22.5801C0.655284 19.0772 1.00794 15.4465 2.3551 12.1469C3.70226 8.8474 5.98331 6.02727 8.91003 4.04314C11.8368 2.05902 15.2776 1 18.7975 1C22.3174 1 25.7582 2.05902 28.685 4.04314C31.6117 6.02727 33.8929 8.8474 35.24 12.1469C36.5872 15.4465 36.9398 19.0772 36.2534 22.5801C35.5669 26.083 33.8722 29.3007 31.3835 31.8264C29.7308 33.5036 27.7687 34.8341 25.6092 35.7418C23.4496 36.6496 21.135 37.1168 18.7975 37.1168C16.46 37.1168 14.1455 36.6496 11.9859 35.7418C9.82642 34.8341 7.8643 33.5036 6.2116 31.8264Z" stroke="#1D43C6" stroke-width="2" stroke-miterlimit="10"/>
<path d="M26.2106 14.6037C26.534 14.2754 26.9462 14.0518 27.3949 13.9612C27.8437 13.8705 28.3087 13.917 28.7314 14.0946C29.1542 14.2722 29.5154 14.5731 29.7697 14.959C30.0239 15.345 30.1596 15.7989 30.1596 16.2631C30.1596 16.7273 30.0239 17.1811 29.7697 17.5671C29.5154 17.9531 29.1542 18.2539 28.7314 18.4316C28.3087 18.6092 27.8437 18.6556 27.3949 18.565C26.9462 18.4744 26.534 18.2508 26.2106 17.9225C25.7769 17.4823 25.5332 16.8854 25.5332 16.2631C25.5332 15.6407 25.7769 15.0438 26.2106 14.6037Z" fill="#030504"/>
<path d="M40.5854 14.6037C40.9089 14.2754 41.3211 14.0518 41.7698 13.9612C42.2185 13.8705 42.6837 13.917 43.1064 14.0946C43.5292 14.2722 43.8905 14.5731 44.1447 14.959C44.3989 15.345 44.5346 15.7989 44.5346 16.2631C44.5346 16.7273 44.3989 17.1811 44.1447 17.5671C43.8905 17.9531 43.5292 18.2539 43.1064 18.4316C42.6837 18.6092 42.2185 18.6556 41.7698 18.565C41.3211 18.4744 40.9089 18.2508 40.5854 17.9225C40.1518 17.4823 39.9082 16.8854 39.9082 16.2631C39.9082 15.6407 40.1518 15.0438 40.5854 14.6037Z" fill="#030504"/>
</svg>
