<svg width="73" height="68" viewBox="0 0 73 68" fill="none" xmlns="http://www.w3.org/2000/svg">
<path d="M13.9336 30.5498L10.4297 39.5497L72.5493 39.4377L69.0258 30.5498H13.9336Z" fill="#F9EAD4"/>
<path d="M72.5493 39.5498H10.4297V41.4473H72.5493V39.5498Z" fill="#F9EAD4"/>
<path d="M71.2924 41.4473H11.8691V45.4597H71.2924V41.4473Z" stroke="#11133C" stroke-width="2" stroke-miterlimit="10"/>
<path d="M18.9174 45.4854H17.0547V60.158H18.9174V45.4854Z" fill="#030504"/>
<path d="M65.8158 45.4854H63.9531V60.158H65.8158V45.4854Z" fill="#030504"/>
<path d="M68.7533 45.4854H66.8906V67.0166H68.7533V45.4854Z" fill="#030504"/>
<path d="M16.0717 45.4854H14.209V67.0166H16.0717V45.4854Z" fill="#030504"/>
<path d="M52.4255 41.2627H35.8242V53.2077H52.4255V41.2627Z" fill="#F9EAD4"/>
<path d="M13.9336 30.5498L10.4297 39.5497L72.5493 39.4377L69.0258 30.5498H13.9336Z" fill="#F9EAD4"/>
<path d="M72.5493 39.5498H10.4297V41.4473H72.5493V39.5498Z" fill="#F9EAD4"/>
<path d="M18.9174 45.4854H17.0547V60.158H18.9174V45.4854Z" fill="#030504"/>
<path d="M65.8158 45.4854H63.9531V60.158H65.8158V45.4854Z" fill="#030504"/>
<path d="M68.7533 45.4854H66.8906V67.0166H68.7533V45.4854Z" fill="#030504"/>
<path d="M16.0717 45.4854H14.209V67.0166H16.0717V45.4854Z" fill="#030504"/>
<path d="M36.2932 1H1V24.185H36.2932V1Z" stroke="#11133C" stroke-width="2" stroke-miterlimit="10"/>
<path d="M22.3092 36.143H18.916L20.6094 33.1716L22.3092 30.2002L24.0026 33.1716L25.6959 36.143H22.3092Z" fill="#030504"/>
<path d="M39.4123 4.22168H4.11914V27.4067H39.4123V4.22168Z" fill="#C3D5E1"/>
<path d="M39.4123 4.22168H4.11914V27.4067H39.4123V4.22168Z" stroke="#79FE9D" stroke-width="2" stroke-miterlimit="10"/>
<path d="M56.3526 33.501V65.653H26.7192C26.6671 64.9941 26.6411 64.3353 26.6411 63.6764C26.6095 57.9312 28.1904 52.2948 31.2001 47.4225C34.0998 42.7545 38.2388 39.0057 43.1446 36.6043C47.2553 34.5945 51.7609 33.5473 56.3266 33.5406" fill="#0617BF"/>
<path d="M56.3526 33.501V65.653H26.7192C26.6671 64.9941 26.6411 64.3353 26.6411 63.6764C26.6095 57.9312 28.1904 52.2948 31.2001 47.4225C34.0998 42.7545 38.2388 39.0057 43.1446 36.6043C47.2601 34.5769 51.7751 33.5161 56.3526 33.501V33.501Z" stroke="#11133C" stroke-width="2" stroke-miterlimit="10"/>
<path d="M61.5557 17.2538C61.5557 19.2605 60.9674 21.2222 59.8653 22.8907C58.7632 24.5593 57.1969 25.8597 55.3642 26.6277C53.5315 27.3956 51.5148 27.5965 49.5693 27.205C47.6237 26.8136 45.8366 25.8472 44.4339 24.4283C43.0312 23.0093 42.0758 21.2014 41.6888 19.2332C41.3018 17.265 41.5005 15.2249 42.2596 13.3709C43.0188 11.5169 44.3042 9.93226 45.9536 8.81736C47.603 7.70247 49.5423 7.10742 51.526 7.10742C54.186 7.10742 56.7371 8.17637 58.6181 10.0792C60.499 11.982 61.5557 14.5628 61.5557 17.2538Z" fill="#1D43C6"/>
<path d="M61.5557 17.2538C61.5557 19.2605 60.9674 21.2222 59.8653 22.8907C58.7632 24.5593 57.1969 25.8597 55.3642 26.6277C53.5315 27.3956 51.5148 27.5965 49.5693 27.2051C47.6237 26.8136 45.8366 25.8472 44.4339 24.4283C43.0312 23.0093 42.0758 21.2014 41.6888 19.2332C41.3018 17.265 41.5005 15.2249 42.2596 13.3709C43.0188 11.5169 44.3042 9.93226 45.9536 8.81736C47.603 7.70247 49.5423 7.10742 51.526 7.10742C54.186 7.10742 56.7371 8.17637 58.6181 10.0792C60.499 11.982 61.5557 14.5628 61.5557 17.2538Z" stroke="#11133C" stroke-width="2" stroke-miterlimit="10"/>
</svg>
