<svg width="87" height="61" viewBox="0 0 87 61" fill="none" xmlns="http://www.w3.org/2000/svg">
<path d="M86.5797 8.43555H48.8945V45.8697H86.5797V8.43555Z" fill="#79FE9D"/>
<path d="M67.6512 2H2V51.1213H67.6512V2Z" stroke="#030504" stroke-width="4"/>
<path d="M25.2014 60.7759C30.5065 60.7759 34.8072 56.5039 34.8072 51.2341C34.8072 45.9644 30.5065 41.6924 25.2014 41.6924C19.8963 41.6924 15.5957 45.9644 15.5957 51.2341C15.5957 56.5039 19.8963 60.7759 25.2014 60.7759Z" fill="#1D43C6"/>
<path d="M49.3557 60.7759C54.6608 60.7759 58.9615 56.5039 58.9615 51.2341C58.9615 45.9644 54.6608 41.6924 49.3557 41.6924C44.0506 41.6924 39.75 45.9644 39.75 51.2341C39.75 56.5039 44.0506 60.7759 49.3557 60.7759Z" fill="#1D43C6"/>
</svg>
