<svg width="78" height="64" viewBox="0 0 78 64" fill="none" xmlns="http://www.w3.org/2000/svg">
<path d="M18.5703 36.5C18.7069 37.3081 18.9735 37.9007 19.4248 38.3955C19.9879 39.0128 20.8802 39.5302 22.3164 40.0723L22.3174 40.0732C25.9827 41.4719 28.466 43.3226 30.8418 46.4326C31.0275 46.6755 31.2494 46.8973 31.5 47.0947L31.5 36.5L18.5703 36.5Z" fill="#030504" stroke="#030504"/>
<path d="M60.5703 36.5C60.7069 37.3081 60.9735 37.9007 61.4248 38.3955C61.9879 39.0128 62.8802 39.5302 64.3164 40.0723L64.3174 40.0732C67.9827 41.4719 70.466 43.3226 72.8418 46.4326C73.0275 46.6755 73.2494 46.8973 73.5 47.0947L73.5 36.5L60.5703 36.5Z" fill="#030504" stroke="#030504"/>
<path d="M19.4297 36.5C19.2931 37.3081 19.0265 37.9007 18.5752 38.3955C18.0121 39.0128 17.1198 39.5302 15.6836 40.0723L15.6826 40.0732C12.0173 41.4719 9.53396 43.3226 7.1582 46.4326C6.97252 46.6755 6.75064 46.8973 6.5 47.0947L6.5 36.5L19.4297 36.5Z" fill="#030504" stroke="#030504"/>
<path d="M65.4297 36.5C65.2931 37.3081 65.0265 37.9007 64.5752 38.3955C64.0121 39.0128 63.1198 39.5302 61.6836 40.0723L61.6826 40.0732C58.0173 41.4719 55.534 43.3226 53.1582 46.4326C52.9725 46.6755 52.7506 46.8973 52.5 47.0947L52.5 36.5L65.4297 36.5Z" fill="#030504" stroke="#030504"/>
<path d="M52.5 29.499V1.25195C53.346 0.751968 54.2644 0.494515 55.1914 0.5H55.1943C59.2939 0.5 64.0772 3.84205 68.2686 9.93262C72.2309 15.6948 74.894 22.9711 75.459 29.5L52.5 29.499Z" fill="#030504" stroke="#030504"/>
<path d="M23.5 35.499V9.19629C22.656 8.73368 21.7367 8.4948 20.8076 8.5H20.8057C16.8188 8.5 12.2041 11.435 8.11523 16.7783L7.72168 17.3027C3.77114 22.6648 1.11548 29.4295 0.543945 35.5L23.5 35.499Z" fill="#030504" stroke="#030504"/>
<path d="M18 44.5C23.2467 44.5 27.5 48.7533 27.5 54C27.5 59.2467 23.2467 63.5 18 63.5C12.7533 63.5 8.5 59.2467 8.5 54C8.5 48.7533 12.7533 44.5 18 44.5Z" fill="#030504" stroke="#030504"/>
<path d="M64 44.5C69.2467 44.5 73.5 48.7533 73.5 54C73.5 59.2467 69.2467 63.5 64 63.5C58.7533 63.5 54.5 59.2467 54.5 54C54.5 48.7533 58.7533 44.5 64 44.5Z" fill="#030504" stroke="#030504"/>
<path d="M71 28.5C74.6649 28.5 77.5 31.032 77.5 34C77.5 36.968 74.6649 39.5 71 39.5C67.3351 39.5 64.5 36.968 64.5 34C64.5 31.032 67.3351 28.5 71 28.5Z" fill="#030504" stroke="#030504"/>
<rect x="32" y="22" width="20" height="26" fill="#030504"/>
<rect width="48" height="28" transform="matrix(-1 0 0 1 66 8)" fill="#030504"/>
<path d="M63.5 35.5V13.0889C62.659 12.6988 61.74 12.4955 60.8076 12.5H60.8057C56.7867 12.5 52.1674 15.0305 48.0908 19.5967L47.6982 20.0449C43.7757 24.6083 41.1405 30.3495 40.5527 35.5H63.5Z" fill="#FCF8F3" stroke="#030504"/>
</svg>
