<svg width="50" height="64" viewBox="0 0 50 64" fill="none" xmlns="http://www.w3.org/2000/svg">
<path d="M27.5 11.4521C26.4651 11.3361 25.7104 11.0948 25.0908 10.6797C24.3676 10.1951 23.7715 9.43827 23.1475 8.22363L23.1465 8.22168C21.6037 5.25129 19.5998 3.19418 16.3789 1.27832L15.7187 0.89746C15.5085 0.779357 15.3136 0.645545 15.1348 0.499999L27.5 0.5L27.5 11.4521Z" fill="#030504" stroke="#030504"/>
<path d="M24.5 11.4521C25.5349 11.3361 26.2896 11.0948 26.9092 10.6797C27.6324 10.1951 28.2285 9.43827 28.8525 8.22363L28.8535 8.22168C30.3963 5.25129 32.4002 3.19418 35.6211 1.27832L36.2813 0.89746C36.4915 0.779357 36.6864 0.645545 36.8652 0.499999L24.5 0.5L24.5 11.4521Z" fill="#030504" stroke="#030504"/>
<path d="M28.5 27.5V6.99609C29.0981 6.66477 29.7439 6.49619 30.3936 6.5H30.3965C33.4127 6.50022 36.9674 8.91025 40.1016 13.3633C43.0307 17.5283 45.0074 22.7765 45.4561 27.5H28.5Z" fill="#030504" stroke="#030504"/>
<path d="M23.5 27.5V7.01074C22.8221 6.67099 22.0849 6.49607 21.3398 6.5H21.3379C18.0413 6.5 14.2162 8.78949 10.8203 12.9736L10.4932 13.3838C7.23934 17.5478 5.04725 22.7884 4.54883 27.5H23.5Z" fill="#030504" stroke="#030504"/>
<path d="M0.5 20.5L0.500001 29.3799C0.683518 29.4605 0.872997 29.5011 1.06152 29.5L1.06445 29.5C2.26159 29.5 3.76952 28.5038 5.14844 26.5C6.36562 24.7298 7.20432 22.5199 7.44922 20.5L0.5 20.5Z" fill="#030504" stroke="#030504"/>
<path d="M49.5 22.5L49.5 29.4082C49.3191 29.4676 49.1298 29.5009 48.9375 29.5L48.9355 29.5C47.6893 29.5 46.1776 28.6796 44.8193 27.1006C43.6433 25.7324 42.8334 24.0441 42.5703 22.5L49.5 22.5Z" fill="#030504" stroke="#030504"/>
<path d="M27.5 28.5V51.5H4.5V28.5H27.5Z" fill="#030504" stroke="#030504"/>
<path d="M8.5 28.5L45.5 28.5L45.5 51.5L8.5 51.5L8.5 28.5Z" fill="#030504" stroke="#030504"/>
<path d="M33.1514 47L45.9229 63H5.99805L17.9707 47H33.1514Z" fill="#030504" stroke="#030504" stroke-width="2"/>
<path d="M26 38.5C26.2609 38.5 26.6314 38.7248 26.9668 39.3955C27.2871 40.0363 27.5 40.9563 27.5 42C27.5 43.0437 27.2871 43.9637 26.9668 44.6045C26.6314 45.2752 26.2609 45.5 26 45.5C25.7391 45.5 25.3686 45.2752 25.0332 44.6045C24.7129 43.9637 24.5 43.0437 24.5 42C24.5 40.9563 24.7129 40.0363 25.0332 39.3955C25.3686 38.7248 25.7391 38.5 26 38.5Z" fill="#FCF8F3" stroke="#030504"/>
<line x1="29" y1="20" x2="29" y2="34" stroke="#030504" stroke-width="2"/>
<rect x="20" y="12" width="12" height="10" fill="#030504"/>
<rect x="14" y="20" width="24" height="12" fill="#FCF8F3"/>
</svg>
