<svg width="72" height="55" viewBox="0 0 72 55" fill="none" xmlns="http://www.w3.org/2000/svg">
<path d="M0.5 9.07947C1.53493 9.19548 2.28962 9.43678 2.90918 9.85193C3.6324 10.3366 4.22851 11.0933 4.85254 12.308L4.85352 12.3099C6.3963 15.2803 8.40021 17.3374 11.6211 19.2533L12.2812 19.6342C12.4915 19.7523 12.6864 19.8861 12.8652 20.0316L0.5 20.0316L0.5 9.07947Z" fill="#030504" stroke="#030504"/>
<path d="M31.5902 0.557555C33.2997 0.774768 34.5428 1.23258 35.5595 2.05333C36.6894 2.96547 37.5957 4.36959 38.516 6.55124L38.5169 6.5532C40.8724 12.0747 44.0338 15.8207 49.3852 19.4452C49.9721 19.8432 50.4851 20.3341 50.9106 20.8931L31.2773 20.5864L31.5902 0.557555Z" fill="#030504" stroke="#030504"/>
<path d="M51.4434 35.0316C51.2437 36.6288 50.791 37.795 49.9619 38.7592C49.0291 39.8439 47.5765 40.7276 45.3096 41.6351H45.3076C39.5937 43.9477 35.7361 46.9988 32.0381 52.1332C31.6217 52.7108 31.1007 53.2186 30.5 53.639V35.0316H51.4434Z" fill="#030504" stroke="#030504"/>
<path d="M60.5 30.0316L71.29 30.0316C71.4286 29.6847 71.5018 29.3135 71.5 28.9369L71.5 28.934C71.4999 27.0854 70.3671 24.9211 68.251 22.9594L67.8145 22.5707C65.6471 20.7077 62.9461 19.4406 60.5 19.0931L60.5 30.0316Z" fill="#030504" stroke="#030504"/>
<rect x="10" y="18.5316" width="50" height="12" fill="#030504"/>
</svg>
