<svg width="50" height="56" viewBox="0 0 50 56" fill="none" xmlns="http://www.w3.org/2000/svg">
<path d="M0.5 18.5L0.500001 25.3857C0.763056 25.4606 1.04348 25.5011 1.3291 25.5L1.33106 25.5C2.98212 25.5 4.91333 24.6378 6.60938 23.0605C8.08142 21.6905 9.08247 20.0162 9.41113 18.5L0.5 18.5Z" fill="#030504" stroke="#030504"/>
<path d="M49.5 16.5L49.5 23.4082C49.3191 23.4676 49.1298 23.5009 48.9375 23.5L48.9355 23.5C47.6893 23.5 46.1776 22.6796 44.8193 21.1006C43.6433 19.7324 42.8334 18.0441 42.5703 16.5L49.5 16.5Z" fill="#030504" stroke="#030504"/>
<path d="M47.5 16.5V49.5H4.5V16.5H47.5Z" fill="#030504" stroke="#030504"/>
<rect x="10" y="16" width="30" height="14" fill="#FCF8F3"/>
<path d="M14 36.5C14.8284 36.5 15.5 37.1716 15.5 38C15.5 38.8284 14.8284 39.5 14 39.5C13.1716 39.5 12.5 38.8284 12.5 38C12.5 37.1716 13.1716 36.5 14 36.5Z" fill="#FCF8F3" stroke="#030504"/>
<path d="M33 36.5C33.7434 36.5 34.3937 36.702 34.8438 37.002C35.2973 37.3043 35.5 37.6669 35.5 38C35.5 38.3331 35.2973 38.6957 34.8438 38.998C34.3937 39.298 33.7434 39.5 33 39.5C32.2566 39.5 31.6063 39.298 31.1562 38.998C30.7027 38.6957 30.5 38.3331 30.5 38C30.5 37.6669 30.7027 37.3043 31.1562 37.002C31.6063 36.702 32.2566 36.5 33 36.5Z" fill="#FCF8F3" stroke="#030504"/>
<line x1="25" y1="14" x2="25" y2="30" stroke="#030504" stroke-width="2"/>
<rect x="6" y="46" width="6" height="10" fill="#030504"/>
<rect x="36" y="46" width="6" height="10" fill="#030504"/>
<path d="M47.4404 15.5C47.2718 14.296 46.909 13.4169 46.2676 12.6875C45.5195 11.8369 44.3465 11.1368 42.4951 10.4121L42.4941 10.4111C37.804 8.55513 34.6333 6.10386 31.5967 1.98145C31.2953 1.57263 30.9248 1.20823 30.5 0.897461V15.5L47.4404 15.5Z" fill="#030504" stroke="#030504"/>
<path d="M4.55273 15.5C4.70332 14.2834 5.02861 13.3967 5.60059 12.665C6.26135 11.8199 7.29469 11.1246 8.93262 10.4033H8.93457C13.1194 8.54027 15.942 6.08045 18.6406 1.95898C18.8818 1.59104 19.1722 1.26054 19.5 0.973633V15.5L4.55273 15.5Z" fill="#030504" stroke="#030504"/>
<rect x="20" width="10" height="16" fill="#030504"/>
</svg>
