<svg width="72" height="55" viewBox="0 0 72 55" fill="none" xmlns="http://www.w3.org/2000/svg">
<path d="M31.7018 6.51691C31.1709 7.11356 30.6667 7.47262 30.0926 7.66602C29.3837 7.9048 28.5033 7.91705 27.2269 7.70117L27.2247 7.70091C23.9059 7.15337 21.178 7.52306 17.8643 8.95827C17.6781 9.03882 17.4857 9.10134 17.2898 9.14705L22.8574 0.692581L31.7018 6.51691Z" fill="#030504" stroke="#030504"/>
<path d="M71.4951 10.9385C71.4332 14.1666 70.6217 17.239 69.2246 19.6152L68.9229 20.1045C68.0955 21.3563 67.1227 22.3301 66.0693 22.9824C65.0171 23.6341 63.9033 23.9529 62.791 23.9375L62.7842 23.9375C62.6848 23.9375 62.5903 23.9339 62.5 23.9307L62.5 10.9385L71.4951 10.9385Z" fill="#030504" stroke="#030504"/>
<path d="M13 26.9385C19.8693 26.9385 25.5 32.9471 25.5 40.4385C25.5 47.9299 19.8693 53.9385 13 53.9385C6.13069 53.9385 0.5 47.9299 0.5 40.4385C0.5 32.9471 6.13069 26.9385 13 26.9385Z" fill="#030504" stroke="#030504"/>
<path d="M59 26.9385C65.8693 26.9385 71.5 32.9471 71.5 40.4385C71.5 47.9299 65.8693 53.9385 59 53.9385C52.1307 53.9385 46.5 47.9299 46.5 40.4385C46.5 32.9471 52.1307 26.9385 59 26.9385Z" fill="#030504" stroke="#030504"/>
<line x1="57" y1="26.4385" x2="57" y2="10.4385" stroke="#030504" stroke-width="2"/>
<line x1="32" y1="15.4385" x2="56" y2="15.4385" stroke="#030504" stroke-width="2"/>
<line x1="12.6312" y1="39.0056" x2="57.5706" y2="22.3626" stroke="#030504" stroke-width="2"/>
</svg>
