<svg width="68" height="62" viewBox="0 0 68 62" fill="none" xmlns="http://www.w3.org/2000/svg">
<path d="M67.4561 26.5C67.1676 29.6716 66.4422 31.9935 65.0342 33.9004C63.543 35.9199 61.2456 37.5313 57.7354 39.168L57.7334 39.1689C48.9443 43.312 43.0288 48.7663 37.3516 57.9473C36.5924 59.1736 35.623 60.2279 34.5 61.0586V26.5L67.4561 26.5Z" fill="#030504" stroke="#030504"/>
<path d="M0.543945 26.5C0.832352 29.6716 1.55783 31.9935 2.96582 33.9004C4.45702 35.9199 6.75435 37.5313 10.2646 39.168L10.2666 39.1689C19.0557 43.312 24.9712 48.7664 30.6484 57.9473C31.4076 59.1736 32.377 60.2279 33.5 61.0586L33.5 26.5L0.543945 26.5Z" fill="#030504" stroke="#030504"/>
<path d="M55.5 8.5V23.5H10.5V8.5H55.5Z" fill="#030504" stroke="#030504"/>
<path d="M47.5 0.5V13.5H20.5V0.5H47.5Z" fill="#030504" stroke="#030504"/>
</svg>
