<svg width="75" height="72" viewBox="0 0 75 72" fill="none" xmlns="http://www.w3.org/2000/svg">
<path d="M74.9839 0.361417L75.0009 0.344608V0.204525L74.9839 0.187715V0.128874L74.9526 0.156893L74.7939 0H45.4746C45.7042 6.53629 47.7422 9.30995 54.2075 12.0836C56.2087 12.9423 58.1392 13.9539 59.9813 15.1094L60.0408 15.0534C64.4341 17.855 67.9771 21.4972 71.4295 26.6523C72.3287 27.9944 73.5575 29.0894 75.0009 29.8349L74.9839 0.361417Z" stroke="#030504" stroke-width="1.4" stroke-miterlimit="10"/>
<path d="M65.89 47.8469C70.9228 47.8469 75.0027 43.8141 75.0027 38.8395C75.0027 33.8649 70.9228 29.8322 65.89 29.8322C60.8572 29.8322 56.7773 33.8649 56.7773 38.8395C56.7773 43.8141 60.8572 47.8469 65.89 47.8469Z" fill="#F9A86F"/>
<path d="M29.5177 23.8422L29.5347 23.8254V23.6853L29.5177 23.6685V23.6097L29.4894 23.6377L29.3278 23.4808H0C0.229589 30.0171 2.26756 32.7907 8.73572 35.5644C10.7363 36.4225 12.6658 37.4342 14.5066 38.5902L14.5661 38.5342C18.9594 41.3358 22.4884 44.978 25.9549 50.1331C26.8541 51.4752 28.0828 52.5702 29.5262 53.3157L29.5177 23.8422Z" stroke="#030504" stroke-width="1.4" stroke-miterlimit="10"/>
<path d="M20.4252 71.3332C25.458 71.3332 29.5379 67.3005 29.5379 62.3258C29.5379 57.3512 25.458 53.3185 20.4252 53.3185C15.3924 53.3185 11.3125 57.3512 11.3125 62.3258C11.3125 67.3005 15.3924 71.3332 20.4252 71.3332Z" fill="#F9A86F"/>
</svg>
